<?xml version="1.0" encoding="utf-8"?>
<!DOCTYPE svg PUBLIC "-//W3C//DTD SVG 1.1//EN" "http://www.w3.org/Graphics/SVG/1.1/DTD/svg11.dtd">
<svg version="1.1" id="Layer_1" xmlns="http://www.w3.org/2000/svg" xmlns:xlink="http://www.w3.org/1999/xlink" x="0px" y="0px"
	 viewBox="-15.5386 -9.1283 2072.0771 1217.2566" enable-background="new -15.5386 -9.1283 2072.0771 1217.2566"
	 xml:space="preserve">
<g>
	<path fill="#FFFFFF" stroke="#FFFFFF" stroke-width="0.394" d="M1406.21,346.39c7.02-0.71,14.12-0.07,21.04,1.24
		c3.45,0.63,7.21,2.66,7.95,6.41c0.9401,4.61-2.9399,8.92-7.25,9.92c-6.46,1.42-11.6699,5.67-17.51,8.5
		c-6.86,3.61-14.22,6.23-21.71,8.17c-4.5499,0.94-9.99,1.68-13.89-1.44c-3.6-3.53-2.87-9.6-0.12-13.41
		c3.77-4.89,8.8301-8.57,13.78-12.17C1393.64,349.69,1399.71,346.92,1406.21,346.39z"/>
	<path fill="#FFFFFF" stroke="#FFFFFF" stroke-width="0.394" d="M1295.01,465.33c28.28-2.23,56.67-2.02,85.01-1.79
		c75.09,0.67,150.12,4.24,225.14,7.37c5.25,0.42,10.48,0.96,15.77,0.76c76.74,4.34,153.45,9.34,230.1699,14.11
		c2.14,0.14,4.27,0.3,6.4501,0.45c24.7899,1.63,49.6,3.14,74.3999,4.77c7.4401,0.26,14.51,4.45,18.5601,10.65
		c0.96,1.69,2.09,3.93,0.97,5.83c-1.6,1.11-3.63,0.77-5.4199,0.81c-27.63-1.4-55.2301-3.56-82.8601-4.95
		c-3.38-0.36-6.7699-0.57-10.1399-0.75c-12.3601-0.75-24.7201-1.72-37.1001-2.04c-8.24,0.4-15.97,3.66-23.83,5.86
		c-14.77,4.35-29.63,9.38-45.14,9.93c-8-0.05-15.9299-1.15-23.88-1.85c-34.83-3.62-69.6-7.67-104.4-11.57
		c-1.21-0.14-2.3999-0.28-3.5699-0.4c-59.7001-6.91-119.46-13.32-179.1901-19.95c-52.0699-5.76-104.22-10.88-156.4199-15.32
		C1284.67,466.52,1289.8101,465.7,1295.01,465.33z"/>
	<path fill="#000005" stroke="#000005" stroke-width="0.394" d="M1064.34,0h0.37c18.8401,0.56,37.7001,1.3,56.4401,3.4
		c12.76,1.53,24.38,8.1,33.7999,16.61c8.3201,7.02,15.75,15.25,25.2001,20.83c8.99,5.32,19.74,4.75,29.76,5.92
		c58.2899,3.75,116.73,3.89,175.11,4.73c52.33,0.87,104.7,0.69,156.98,3.3c22.97,1.15,45.62,5.42,68.04,10.35
		c44.1,9.99,87.5299,22.97,129.7899,39.07c17,6.61,33.8101,13.75,50.2001,21.76c20.1,10.13,40,21.1,57.39,35.51
		c9.95,8.08,18.5,17.79,25.39,28.59c24.21,36.85,39.1899,78.81,51.33,120.93c14.65,53.13,23.99,107.66,29,162.52
		c8.59,2.98,15.34,9.48,20.9399,16.43c5.8101,7.44,8.86,16.53,11.74,25.4c16.37,6.36,31.3101,18.16,38.38,34.58
		c9.52,20.76,9.62,44.2,7.9601,66.55c-0.9501,26.16-3.99,52.27-3.52,78.47c4.5599,1.64,9.95,2.78,12.36,7.52v16.83
		c-2.41,20.61-5.41,41.21-10.61,61.32c-4.89,16.85-11.04,33.46-19.75,48.74c-0.75-0.38-2.25-1.15-3-1.53
		c-2.5,3.18-3.8,7.16-6.64,10.08c-3.42,3.64-6.6,7.48-9.78,11.31c-1.2,1.6-3.02,2.44-4.7999,3.16c0-0.5,0.0199-1.49,0.0299-1.99
		c13.49-11.47,22.0701-27.34,28.9401-43.39c7.53-16.02,11.21-33.5,14.98-50.69c3.24-14.94,6.2-29.98,7.58-45.22
		c0.15-3.41,1.4601-7.84-1.6899-10.32c-3.17-1.97-7.15-1.85-10.4-3.63c-1.24-4.27-0.5699-8.81-0.64-13.2
		c0.01-9.99,1.02-19.93,1.5801-29.89c1.0199-12.97,1.58-25.97,2.61-38.93c0.35-12.68,1.5399-25.4,0.1799-38.06
		c-1.0499-9.51-3.72-18.84-7.97-27.41c-1.26-0.15-2.49-0.29-3.6899-0.42c-0.4301-0.65-0.8401-1.28-1.2101-1.9
		c-4.85-7.92-11.4-14.8-19.26-19.76c-5.0299-3.3-10.59-5.62-16.09-7.98c-3.29-9.46-6.0699-19.48-12.64-27.29
		c-4.16-4.86-8.77-9.67-14.74-12.23c-2.12-0.92-4.22-1.83-6.2-2.97c1.0699-13.32-0.5901-26.68-2.03-39.91
		c-6.49-49.45-18.8201-97.86-30.9301-146.16c-0.38-2.53-2.96-3.63-4.38-5.48c-11.1699-34.09-25.13-67.68-45.6899-97.26
		c-9.51-14.02-22.91-24.82-36.77-34.29c-21.14-14-43.99-25.18-67.23-35.22c12.3199,12.8,21.01,28.71,27,45.34
		c2.89,7.73,4.27,15.89,6.3199,23.86c5.0701,23.66,9.6901,47.42,14.16,71.21c11.1901,57.55,21.6901,115.24,32.13,172.92
		c1.4,12.16,8.01,23.14,8,35.55c0.5601,0.66,1.1801,1.33,1.78,2.02c3.97,4.71,5.78,10.72,7.4,16.55
		c-2.1801-0.15-4.3101-0.31-6.4501-0.45c-0.6899-6.08-3.77-11.63-8.3199-15.67c-0.03-0.6-0.0901-1.8-0.12-2.4
		c0-9.69-4.29-18.51-6.5901-27.72c-10.8899-60.26-21.84-120.52-33.5499-180.63c-4.28-22.82-8.72-45.62-13.5601-68.34
		c-2.39-9.99-4.27-20.16-8.27-29.68c-6.6599-16.28-15.72-32.32-29.6499-43.47c-4.75-3.3-9.16-7.36-14.8201-9.02
		C1693.8,92.8,1650.2,79.88,1605.9301,69.99c-18.2201-3.7-36.51-7.72-55.12-8.74c7.96,6.76,15.11,14.66,19.97,23.98
		c8.28,15.66,10.74,33.46,12.76,50.83c3.76,29.66,6.6799,59.42,9.35,89.19c5.01,49.83,9.28,99.75,12.63,149.72
		c0.74,15.99,2.25,31.98,1.89,48c0.09,9.24-2.04,18.57-0.3401,27.74c1.14,7.71,8.4,12.5,9.5801,20.22
		c-1.92,0.03-3.8,0.06-5.6801,0.08c-1.3199-3.17-3.02-6.15-5.08-8.89c-2.8101-3.55-3.8201-8.06-4.83-12.37
		c-0.92-11.24,1.1599-22.48,0.7799-33.74c-0.74-27.39-2.9-54.72-4.9199-82.04c-2.8301-36.88-6.2001-73.72-9.86-110.52
		c-2.3701-26.51-5.0701-52.98-8.16-79.42c-2.6801-20.1-4.16-41.27-14.76-59.12c-5.53-9.56-14.02-16.78-22.08-24.09
		c-11.2301-1.57-22.7001-1.16-34.03-1.64c-18.3201-1.03-36.6801-0.7-55.01-1.21c-11.3201-0.63-23.29-0.05-33.3301,5.76
		C1406.67,71.18,1396.12,82.2,1386.77,93.77c-11.15,13.76-20.5601,28.88-28.1901,44.85c-18.58,38.16-35.73,77-53.49,115.54
		c-16.96,37.69-33.7899,75.44-50.83,113.1c-7.62,17.55-17.88,33.89-24.1,52.05c-3.85,11.41-6.74,23.46-5.5901,35.58
		c0.8401,7.11,3.04,14.28,7.6801,19.86c4.46,5.69,11.04,9.02,16.59,13.47c10.2101,7.82,18.78,17.97,23.9401,29.81
		c4.47,10.03,6.13,21.05,6.64,31.95c0.6799,23.01,0.22,46.03,0.1799,69.04c-0.22,25.98-0.24,51.95-0.7899,77.92
		c-0.3,58.01-1.27,116.01-1.6001,174.02c0.0801,7.03-0.64,14.04-0.4199,21.08c0.02,0.87,0.0599,2.6,0.09,3.47
		c0.38,9.67-2.01,19.12-3.6901,28.57c-2.33,12.57-5.4399,24.98-8.11,37.48c-1.5199,0.93-3.2799,0.68-4.9299,0.44
		c-0.12-0.79-0.35-2.36-0.47-3.15c3.1599-12.52,5.8999-25.15,8.33-37.8199c1.59-8.35,3.4299-16.73,3.28-25.27
		c0.24-50.26,1.12-100.5,1.4399-150.76c0.8201-52,0.88-104.01,1.47-156.01c0.0801-15.65,0.2001-31.33-1.08-46.93
		c-1.4399-17.09-9.49-33.48-22.38-44.84c-6.4399-6.34-14.86-10.23-21.05-16.83c-8.11-8.6-11.34-20.78-11.0499-32.37
		c0.5599-15.54,5.49-30.55,11.85-44.61c4.63-11.27,11.17-21.61,16.01-32.77c31.76-70.22,62.96-140.7,95.54-210.54
		c8.49-17.3,16-35.21,26.7999-51.26c10.4401-15.79,22.4-30.87,37.26-42.75c4.22-3.38,8.73-6.46,13.6901-8.66
		c-24.26,0.24-48.5-0.74-72.76-0.82c-16.01-0.17-32.02-0.26-48.02-0.83c-24.72-0.13-49.39-1.43-74.08-2.36
		c-11.7301-0.95-23.53-1.32-35.1801-3.12c-5.08-0.78-9.66-3.18-14.21-5.42c-9-6.33-16.75-14.14-25.04-21.32
		c-8.91-7.93-19.99-13.78-31.99-14.87c-34.6801-3.1-69.77-4.7-104.39-0.11c-16.35,2.54-33.29,6.49-46.52,16.98
		c-2.81,2.38-6.33,5.29-5.9,9.39c0.59,7.61,0.84,15.27,0.25,22.89c-0.42,3.96-3.96,5.61-7.09,7.15c-2.21,2.61-2.31,6.65-5.2,8.77
		c-2.68,1.81-6.09,1.59-9.14,2.05c-23.3,2.91-46.41,7.1-69.61,10.7c-20.41,3.46-40.7599,7.26-61,11.57
		c-10.5699,2.56-21.3,4.59-31.55,8.28c-3.75,1.31-7.25,3.28-10.28,5.83c-13.15,10.73-24.73,23.2-36.23,35.63
		c-37.29,41.06-71.54,84.75-105.23,128.78c-20.13,27.54-41.01,54.63-58.81,83.77c-4.3,6.08-7.65,12.75-11.29,19.23
		c-44.26,11.56-89,21.12-133.57,31.37c-18.67,4.57-37.5,8.51-55.87,14.21c-11.8,3.14-23.3,7.28-35,10.78
		c-22.97,7-45.85,14.66-67.59,24.94c5.53-1.06,11.1-1.86,16.58-3.12c11.31-0.92,22.51-2.97,33.85-3.59
		c22.16-1.74,44.49-3.34,66.67-1.04c32.56,3.39,64.91,8.95,96.77,16.46c6.61,1.91,13.96,3.01,19.17,7.89
		c5,4.49,7.34,11.1,8.58,17.55c2.07,11.11,1.52,22.5,1.27,33.74c-1.79,20.64-6.44,40.89-9.91,61.28
		c-4.88,26.63-10.56,53.12-14.56,79.91c-2.6,20.65-5.25,41.29-7.04,62.03c-4.29,42.82-7.51,85.81-7.6,128.87
		c14.23,0.79,28.38,2.48,42.51,4.36c59.08,7.57,118.07,15.84,177.16,23.35c25.62,3.55,51.5,4.33,77.3,5.64
		c17.92,0.53,35.81,1.55,53.73,2.05c22.34,0.34,44.67,1.84,67,1.39c4.08-4,9.6201-7.2,11.29-13.01c0.8,1.56,2.07,3.5,0.52,5.1
		c-2.8101,3.21-6.44,5.6-9.45,8.63c-3.27,3.21-8.1,1.22-12.08,1.17c-4.84,0.02-9.85-0.68-14.53,0.88c7.27,1.12,14.83-0.46,21.91,2
		l0.28,1.11c-26.97-0.27-53.92-1.44-80.89-2.15c-25.68-1.23-51.39-1.85-77.05-3.56c-25.42-1.34-50.61-5.21-75.83-8.46
		c-49.29-6.52-98.56-13.2-147.87-19.56c-15.03-1.65-30.15-4.23-45.29-2.54c-47.41,1.99-94.79-2.04-142-5.9901
		c-43.02-4.18-85.93-10.23-128.1-19.83c-12.05-3-24.18-5.97-35.73-10.6c-4.87-1.73-10.05-3.15-15.26-2.38
		c-10.23,1.34-20.54,2.16-30.87,2.19c-5.03-0.07-10.05,1.37-15.07,0.37c-23.66-3.43-47.3-6.99-70.91-10.68
		c-2.01-0.08-4.44-0.83-6.13,0.64c-1.68,1.97-1.19,4.72-0.86,7.08c1.79,11.17,5.22,21.98,7.88,32.96c0.46,2.51,2.9,3.79,4.13,5.86
		c0.74,1.65,1.13,3.44,1.59,5.19c1.12,4.61,2.43,9.17,3.66,13.7599c2.25,9.38,6.97,17.89,11.45,26.35
		c3.52,6.62,7.49,13.07,12.26,18.87c2.32,3.03,6.35,3.35,9.79,4.16c28.4,5.63,57.02,10.05,85.53,15.05
		c-3.13,0.43-6.16,1.6299-8.04,4.31c-27.95-4.91-56.06-9.03-83.81-15c-4.58-0.67-7.53-4.56-10.24-7.92
		c-6.87-9.52-12.41-19.92-17.35-30.55c-4.87-9.64-6.32-20.5-9.65-30.68c-1.35-1.83-3.91-2.86-4.09-5.43
		c-3.03-12.61-7.15-25-8.92-37.87c-0.71-3.31,0.27-6.53,1.68-9.48c-2.23-0.92-5.12-2.0099-5.39-4.81c-1.5-15.72-1.9-31.52-2.53-47.3
		v-41.11c0.54-5.28,0.83-10.59,1.64-15.83c2.56-1.33,4.74-3.33,5.31-6.27c4.41-0.91,9.21-3.03,13.58-0.89
		c3.61,1.62,7.61,1.71,11.49,1.96c-1.39,0.39-2.78,0.78-4.18,1.15c-5.72-0.72-11.48-1.08-17.17-2.02c-3,2.11-3.32,5.92-3.81,9.25
		c-1.84,14.66-1.53,29.47-1.45,44.22c0.54,18.61,1.05,37.22,2.66,55.78c10.25,2.43,20.69,3.83,31.07,5.58
		c18.9,2.93,37.83,5.93,56.91,7.47c3.32,0.68,5.81-2.07,7.14-4.75c1.49-2.67,1.12-5.81,1.13-8.73c0.46-4.74,0.71-9.5,0.7-14.26
		c1.2,0.38,2.41,0.77,3.62,1.17c-0.02,4.39,0.22,8.79,1.09,13.1c0.63,4.71-0.1,9.5-2.6,13.59c7.93-0.3,15.88-0.5,23.75-1.53
		c3.99-0.45,8.03-1.4,12.04-0.59c3.92,0.72,7.72,1.95,11.57,2.97c1.19-49.85,8.15-99.41,17.83-148.28
		c3.65-17.75,7.65-35.4301,12.36-52.92c11.67-42.76,27.03-84.42,43.65-125.47c3.96-9.62,8.2-19.39,15.36-27.12
		c-39.64,6.81-79.7,11.21-119.08,19.5c-4.88,0.93-9.65,2.37-14.28,4.17c5.14-0.88,10.36-1.53,15.55-0.72
		c6.03,1.43,11.6,4.72,15.44,9.63c5.96,7.43,7.76,17.16,8.7,26.39c1.72,16.55-2.12,33.22-8.52,48.42
		c-6.58,15.67-16.64,29.59-27.69,42.39c-9.44,10.5-20.7,19.99-34.21,24.66c-9.34,3.2599-20.66,2.98-28.55-3.56
		c-6.87-5.37-10.14-13.85-12.13-22.06c-2.3,20.45-1.18,41.05-1.33,61.5699c-3.45,0.71-6.81,2.1801-10.39,1.79
		c1.68-0.92,3.37-1.82,5.05-2.74c-1.2-34.09-0.86-68.75,7.97-101.92c6.05-20.92,15.46-41.07,28.97-58.24
		c12.43-15.75,29.08-28.99,48.78-34.06c42.29-9.45,85.5-13.74,128.1-21.47c6.45-1.06,10.1-7.32,15.83-9.91
		c10.24-4.9,21.01-8.56,31.67-12.4c21.27-7.8,42.82-14.78,64.45-21.51c21.7-6.82,43.93-11.71,66.03-17.01
		c42.97-9.78,86.04-19.14,128.73-30.12c6.86-12.84,14.8-25.08,22.96-37.14c11.65-17.46,24.15-34.34,36.65-51.2
		c9.33-12.92,19.05-25.54,28.89-38.07c26.72-34.78,54.46-68.81,83.74-101.47c12.26-13.34,24.53-26.78,38.56-38.32
		c3.59-2.98,7.52-5.66,11.96-7.22c10.85-4.07,22.3-6.12,33.51-8.92c45.42-9.55,91.33-16.75,137.25-23.25
		c1.87-2.64,2.13-6.24,4.59-8.52c1.43-1.43,3.45-1.96,5.27-2.74c0.86-7.96,0.35-16.02-0.14-24c-0.08-4.43,2.87-8.19,6-11.02
		c9.87-8.78,22.49-13.75,35.18-16.82C1019.15,0.79,1041.87,0.33,1064.34,0 M278.99,463.98c-8.72,1.52-17.88,2.71-25.52,7.54
		c-6.66,4.04-11.07,10.73-14.54,17.53c-5.27,10.76-9.25,22.08-13.68,33.2c-7.43,18.52-14.18,37.3-20.57,56.2
		c-14.34,41.66-24.53,84.64-32.06,128.02c-6.83,40.1-11.81,80.6201-12.53,121.33c2.64,0.87,5.27,1.74,7.94,2.5
		c40.98,10.78,82.83,18,124.94,22.59c45.13,5.35,90.59,7.65,136.03,7.85c11.19-0.09,22.4,1,33.58,0.05
		c0.2-51.72,4.89-103.29,10.19-154.69c1.46-11.71,2.91-23.42,4.31-35.14c3.35-23.12,8.11-46.01,12.43-68.96
		c3.89-21.37,8.18-42.67,11.29-64.17c1.48-9.88,1.1-19.91,1-29.87c-0.31-8.19-1.22-16.92-5.87-23.91
		c-4.13-5.94-11.77-6.85-18.17-8.8c-32.48-7.71-65.49-13.31-98.71-16.71c-15.3-1.67-30.69-0.7-46.01-0.15
		C314.96,459.63,296.91,461.26,278.99,463.98 M116.54,506.64c-12.46,2.35-22.94,10.44-31.58,19.34
		c-12.79,13.16-21.12,29.91-27.01,47.13c-4.03,12.18-5.79,25.43-3.2,38.1c1.63,7.86,5.92,15.9,13.58,19.27
		c8.26,3.67,17.75,1.26,25.42-2.73c13.81-7.29,24.78-19.22,32.36-32.75c9.9-17.41,17.08-36.85,18.01-56.99
		c0.57-8.98-1.46-18.62-7.72-25.38C131.43,507.25,123.62,505.28,116.54,506.64 M43.75,613.72c0.9,6.27,1.96,12.7,5.25,18.2401
		c3.5,6.44,10.53,10.99,17.96,10.81c7.62,0.43,14.7-2.9,21.22-6.44c-8.48,2.36-18.25,2.43-25.76-2.69
		c-8.06-5.24-12.03-14.64-13.73-23.77C47.12,611.25,45.47,612.53,43.75,613.72z"/>
	<path fill="#000005" stroke="#000005" stroke-width="0.394" d="M1612.12,502.32c0.76,0.05,2.27,0.15,3.02,0.2
		c1.17,0.12,2.36,0.26,3.5699,0.4c5.8201,9.11,13.65,17.1,17.41,27.45c2.41,9.02,2.27,18.46,3.0601,27.71
		c1.5499,26.95,1.8099,54.01-0.3,80.95c-3.12,53.34-7.3101,106.62-10.17,159.99c-0.1699,14.37-1.49,28.92,1.3101,43.14
		c0.45,3.33,0.75,6.6801,0.7999,10.05c-0.2899,21.21-3.75,42.2-6.87,63.14c-1.84-0.19-3.6699-0.37-5.46-0.54
		c2.7-20.57,6.41-41.11,6.67-61.91c0-3.47-0.28-6.9301-0.77-10.35c-1.58-8.09-1.99-16.33-1.83-24.54
		c0.49-27.37,2.6399-54.67,4.36-81.98c1.7699-26.01,3.39-52.03,5.1699-78.04c1.2201-21.65,3.03-43.28,2.5901-64.98
		c-0.17-15.37-0.7001-30.73-1.88-46.04c-0.7101-5.85-0.53-11.99-3.03-17.4399c-1.9-3.45-3.91-6.86-6.11-10.11
		C1619.95,513.6,1614.35,509.01,1612.12,502.32z"/>
	<path fill="#000005" stroke="#000005" stroke-width="0.394" d="M1983.37,576.25c1.72-4.59,5.5699-8.86,10.75-9.18
		c-5.5,6.23-6.27,15.05-5.74,22.99c0.33,6.24,2.3099,12.32,5.9301,17.44c-5.65-1.79-10.15-6.42-11.78-12.11
		C1980.85,589.14,1981.08,582.32,1983.37,576.25z"/>
	<path fill="#3F4991" stroke="#3F4991" stroke-width="0.394" d="M1014.12,8.58c34.62-4.59,69.71-2.99,104.39,0.11
		c12,1.09,23.08,6.94,31.99,14.87c8.29,7.18,16.04,14.99,25.04,21.32c-8.3-2-13.5701-9.25-20.0701-14.18
		c0.5801,3.6,2.16,7.29,1.16,10.94c-1.09,3.49-3.0699,6.84-6.14,8.92c-7.87,5.4-16.86,9.25-26.33,10.59
		c-18.67,1.85-37.4501,2.13-56.13,3.8c-7.67,0.28-15.36,0.05-23.04,0.29c-3.6,0.18-7.17-0.26-10.6799-1
		c28.62-0.88,57.24-2.13,85.7899-4.49c10.65-0.64,21.1901-4.37,29.61-10.98c3.8201-2.95,6.9401-7.84,5.26-12.82
		c-2.84-8.76-11.1899-14.24-19.24-17.74c-9.95-4.52-21.0499-4.92-31.78-5.31c-15.9399-1.27-31.95-0.84-47.9199-0.88
		c-20.4401,0.87-41.09,1.88-60.96,7.15c-8.72,2.36-17.45,5.54-24.62,11.19c-2.06,1.68-4.33,3.59-4.7,6.4
		c-1.24,6.44-0.82,13.04-0.47,19.55c-1.1201,0.5-2.23,1.01-3.33,1.53c0.59-7.62,0.34-15.28-0.25-22.89c-0.43-4.1,3.09-7.01,5.9-9.39
		C980.83,15.07,997.77,11.12,1014.12,8.58z"/>
	<path fill="#BBBBBB" stroke="#BBBBBB" stroke-width="0.394" d="M995.07,19.17c19.87-5.27,40.52-6.28,60.96-7.15
		c15.97,0.04,31.98-0.39,47.9199,0.88c10.7301,0.39,21.8301,0.79,31.78,5.31c8.05,3.5,16.4,8.98,19.24,17.74
		c1.6801,4.98-1.4399,9.87-5.26,12.82c-8.4199,6.61-18.96,10.34-29.61,10.98c-28.5499,2.36-57.1699,3.61-85.7899,4.49
		c-22.8901,0.64-46.0701,1.8-68.7101-2.35c-0.11-1.86-0.23-3.72-0.3199-5.58c-0.35-6.51-0.77-13.11,0.47-19.55
		c0.37-2.81,2.64-4.72,4.7-6.4C977.62,24.71,986.35,21.53,995.07,19.17z"/>
	<path fill="#BBBBBB" stroke="#BBBBBB" stroke-width="0.394" d="M1955.79,792.37l0.2-0.18c6.3101,22.64,7.88,46.44,5.96,69.82
		c-1.8899,21.29-6.4299,42.68-16.1799,61.85c-4.4401,8.42-9.9501,16.59-17.6901,22.31c-4.3199,3.23-9.63,5.29-15.08,5.07
		c-8.89,0.15-16.48-5.79-21.74-12.46c-9.62-12.33-14.63-27.55-17.98-42.65c-3.6-18.01-5.1-36.58-3.35-54.89
		c-0.05,2.51,2.0599,3.81,3.75,5.26c1.6599,1.25,1.7,3.56,2.13,5.45c0.74,5.61,1.4299,11.31,3.7899,16.53
		c-0.87,0.53-1.72,1.09-2.52,1.67c-1.6,8.2-0.33,16.63,1.01,24.78c0.9301,4.76,2.23,9.57,5.02,13.63
		c1.3101,0.47,2.66,0.96,4.02,1.46c4.64-3.89,5.5-10.4,5.47-16.11c-0.59-7.39-3.0599-14.59-6.66-21.04
		c4.7301,1.2,10.54,3.53,14.79-0.15c2.66-4.1299,2.4501-9.53,5.4-13.56c1.4-2.29,3.86-3.54,6.16-4.75
		c0.63,13.4301,2.62,27.03,7.8999,39.48c2.4,5.44,5.9301,11.26,11.92,13.18c3.99,1.29,10.04-0.16,10.22-5.17
		c-3.26,1.06-6.6499,3.88-10.1699,2.18c-4.92-2.02-7.54-7.07-9.53-11.69c-5.14-12.7-7.34-26.46-7.49-40.11
		c4.36-0.79,9.09-1.4301,12.48-4.61c7.12-6.28,14.5601-12.85,18.26-21.83c2.3099,9.5,3.47,19.4,2.3,29.15
		c-0.7101,6.09-0.8,12.66-4.2201,17.99c-2.47,3.96-6.52,6.46-10.1,9.28c5.4401,1.02,10.64-2.62,13.3201-7.15
		c4.6799-7.23,5.7-16.01,6.37-24.4c0.6399-9.6,0.6399-19.32-1.05-28.81c-0.48-2.46-0.99-4.89-1.45-7.33
		c0.61-3.76,1.62-7.44,2.2799-11.19c6.42,18.32,5.88,38.15,4,57.21c-2.22,18.5699-7.2999,37.68-19.4399,52.36
		c-4.86,5.71-10.98,11.33-18.85,11.86c-9.5,1-18.0601-3.95-25.89-8.63c3.2999,5.03,7.15,10.06,12.7999,12.59
		c-1.95,1.45-4.86,2.46-5.38,5.11c1.55,4.63,6.52,7.15,10.87,8.67c5.88,1.83,11.8401-2.35,14.1001-7.64
		c0.7999-2.02-0.4-4.0099-1.15-5.79c7.78-3.17,14.45-8.67,19.01-15.74c10.87-16.36,14.97-36.19,16.65-55.48
		c1.62-20.97,1.0399-42.9301-7.7001-62.4301C1953.48,794.43,1954.62,793.4,1955.79,792.37z"/>
	<path fill="#BBBBBB" stroke="#BBBBBB" stroke-width="0.394" d="M1164.47,882.33c2.36-3.06,4.89-6.01,7.5701-8.8
		c9.6699,24.22,13.5599,50.47,13.97,76.45c-0.01,22.22-2.45,44.53-8.1901,66.02c-5.0599,19.46-12.61,38.39-23.63,55.27
		c-9.9399,15.08-22.7599,28.91-39.1899,36.9299c-2.9,1.39-5.88,2.91-9.13,3.1801c-6.92-0.28-13.8199,1.02-20.72,0.27
		c-6.62-0.24-12.98-2.26-19.5701-2.61c-14.35-6.03-25.5499-17.8301-34.2999-30.4501c-12.91-19.2-20.61-41.47-24.98-64.08
		c-3.57-19.68-4.91-39.81-3.48-59.76c1.8-0.43,3.61-1.33,5.51-1.14c3.52,0.92,7.15,3.25,8.03,7.02c1.9,7.33,2.65,14.93,4.86,22.2
		c0.97,3.62,4.3,5.81,6.9,8.26c-3.22-0.6801-6.46,1.49-6.79,4.79c-1.33,10.01,0.29,20.18,2.25,30c2.41,8.96,4.55,19.23,12.8599,24.7
		c1.3301-0.0199,2.67-0.0199,4.03-0.0199c2.5601-3.1101,4.79-6.67,5.23-10.76c0.1901-0.0801,0.5801-0.2201,0.77-0.29
		c1.41-7.04,1.99-14.58-0.58-21.43c-2.99-9.21-7.9401-17.82-14.55-24.9c6.17,1.32,11.7201,4.7,18.04,5.44
		c5.83,1.03,12.77,0.43,16.92-4.29c3.46-4.58,3.3199-10.83,6.5399-15.56c3.36-5.74,9.4601-8.98,15.53-11.12
		c0.46,20.03,5.2,39.98,14.0699,57.96c3.79,7.41,9.1101,14.4401,16.5901,18.42c6.6699,3.6599,15.37,4.01,21.97-0.01
		c1.71-0.74,1.95-2.5801,2.2-4.21c-3.9399,1.6599-7.7,4.2999-12.13,4.24c-7.1499,0.36-13.8199-3.4801-18.5199-8.6101
		c-6.63-7.1399-10.25-16.3799-13.6001-25.3599c-6.1499-18-9.1699-37.35-7.3199-56.32c0.04,4.02,0.26,8.05,0.39,12.08
		c4-0.79,8.03-1.4,12.0599-2.06c4.76-0.71,8.9301-3.28,13.01-5.6801c7.3101-4.48,14.17-9.7,20.5901-15.37
		c5.72-5.23,11.61-11.02,13.45-18.85c0.11,0.38,0.34,1.14,0.45,1.52c1.55,7.52,3.8101,14.93,4.36,22.63
		c1,12.71-0.0299,25.5699-2.97,37.98c-1.58,6.71-6.59,11.85-11.73,16.13c-4.04,3.3-9.02,5.06-13.47,7.7
		c7.52,1.3199,15.5-0.82,21.36-5.72c6.4-5.33,10.9399-12.76,13.23-20.74c2.37-7.69,3.38-15.72,4.0701-23.72
		c0.8999-13.3,0.47-26.78-2.5801-39.8c-0.62-3.63-1.53-7.23-3.23-10.5c3.76-5.81,3.3199-12.98,3.75-19.59
		c7.54,15.97,10.89,33.67,11.21,51.27c0.3501,22.07-2.0499,44.38-9.0199,65.41c-4.9401,15.26-12.65,29.71-23.16,41.8699
		c-9.59,10.63-21.22,20.4801-35.47,23.8201c-12.8401,3.1799-26.29,0.7999-38.54-3.5701c-6.66-2.1799-12.75-5.6899-19.23-8.2799
		c7.1699,8.63,16.01,16.48,27.0599,19.5399c-3.36,1.9801-7.99,2.88-9.9399,6.5601c1.03,4.83,6.53,6.98,10.1599,9.75
		c7.4301,5.37,19.15,7,26.04-0.11c2.6-2.5601,5.37-5.13,6.97-8.47c1.16-3.16-1.6799-5.65-3.45-7.8501
		c16.99-2.64,31.65-13.37,42.2-26.5599c12.7101-15.79,20.4-35.05,25.0601-54.63c4.58-20.31,6.1899-41.27,5.0699-62.05
		C1178.24,917.67,1173.7,898.85,1164.47,882.33z"/>
	<path fill="#3F4897" stroke="#3F4897" stroke-width="0.394" d="M1155.47,30.7c6.5,4.93,11.77,12.18,20.0701,14.18
		c4.5499,2.24,9.13,4.64,14.21,5.42c11.65,1.8,23.45,2.17,35.1801,3.12c24.6899,0.93,49.36,2.23,74.08,2.36
		c16,0.57,32.01,0.66,48.02,0.83c24.26,0.08,48.5,1.06,72.76,0.82c-4.9601,2.2-9.4701,5.28-13.6901,8.66
		c-14.86,11.88-26.8199,26.96-37.26,42.75c-10.7999,16.05-18.3099,33.96-26.7999,51.26c-32.5801,69.84-63.78,140.32-95.54,210.54
		c-4.84,11.16-11.38,21.5-16.01,32.77c-6.36,14.06-11.29,29.07-11.85,44.61c-0.29,11.59,2.9399,23.77,11.0499,32.37
		c6.1901,6.6,14.6101,10.49,21.05,16.83c12.89,11.36,20.9401,27.75,22.38,44.84c1.28,15.6,1.16,31.28,1.08,46.93
		c-0.59,52-0.6499,104.01-1.47,156.01c-0.3199,50.26-1.2,100.5-1.4399,150.76c-4.25,0.48-8.5901,2.12-12.8201,0.77
		c-0.01-1.58,0.01-3.14,0.0601-4.7c2.86-45.86,1.58-92.54-10.0601-137.22c-4.9399-18.37-11.6799-36.39-21.58-52.69
		c-10.16-17.11-24.02-32.27-41.09-42.67c-16.75-10.34-36.2201-15.87-55.8-17.11c-40.02-2.96-81.15,7.71-113.99,30.95
		c-24.03,16.64-43.7,39-59.33,63.5699c-4.99,8.59-7.53,18.32-11.84,27.2401C925.79,800.63,912.16,839.81,899,878.94
		c-0.65,1.88-1.23,3.79-1.74,5.72c-1.67,5.81-7.21,9.01-11.29,13.01c-22.33,0.45-44.66-1.05-67-1.39
		c-17.92-0.5-35.81-1.52-53.73-2.05c-25.8-1.31-51.68-2.09-77.3-5.64c-59.09-7.51-118.08-15.78-177.16-23.35
		c-14.13-1.88-28.28-3.57-42.51-4.36c0.09-43.06,3.31-86.05,7.6-128.87c1.79-20.74,4.44-41.38,7.04-62.03
		c4-26.79,9.68-53.28,14.56-79.91c3.47-20.39,8.12-40.64,9.91-61.28c0.25-11.24,0.8-22.63-1.27-33.74
		c-1.24-6.45-3.58-13.06-8.58-17.55c-5.21-4.88-12.56-5.98-19.17-7.89c-31.86-7.51-64.21-13.07-96.77-16.46
		c3.97-0.36,7.93-0.92,11.92-1.1c5.15,0.66,10.37,0.12,15.51,0.92c8.58,1.25,17.3,1.06,25.88,2.35c15.06,2.22,30.35,0.97,45.47,0.1
		c4.84-0.53,9.69-1.13,14.57-0.97c14.36-0.7,28.66-2.26,43.03-2.91c4.73-0.07,9.4-1.03,14.14-1.08c7.78-0.06,15.48-1.24,23.21-1.96
		c24-2.05,48.02-3.77,72.01-5.99c9.93-0.08,19.71-2,29.61-2.64c18.04-1.2,35.96-3.97,54.02-4.79c10.36-0.84,20.62-2.64,31.0099-2.88
		c13.97-1.8,28-3.1,42.03-4.3c14.59-2.35,29.4-2.81,44.03-4.9c4.91-0.71,9.86-1.01,14.79-1.43c30.4-3.8,60.84-7.13,91.17-11.47
		c21-3.1,42.11-5.74,62.83-10.43c6.07-1.54,12.61-2.29,17.83-6.06c1.4399-0.83,0.89-2.71,1.1699-4.06
		c-6.1799-3.72-13.16-5.81-20.2299-7.04c-15.7-3.18-31.67-4.69-47.57-6.51c-12.37-0.67-24.67-2.44-37.07-2.58
		c-11.63-1.14-23.3-1.62-34.97-2.13c-12.93-1.59-26.01-0.13-38.96-1.42c-8.59-0.72-17.24,0.23-25.8-0.88
		c-5.3799-0.62-10.8-0.29-16.1899-0.38c-29.3701-0.1-58.75-0.24-88.1201,0.13c-11.6,1.54-23.34,0.16-34.96,1.5
		c-7.3,0.62-14.67-0.29-21.94,0.82c-6.32,0.89-12.7,0.14-19.03,0.75c-3.16,0.29-6.32,0.59-9.49,0.68
		c-7.78-2.12-15.67,0.42-23.52,0.47c-8.74,0.21-17.29,2.18-25.98,2.91c-5.76,0.61-11.31,2.39-17.04,3.19
		c-11.74,1.94-23,6.96-35.06,6.73c4.96-1.98,10.22-2.9,15.38-4.14c3.15-0.67,4.55-3.95,5.93-6.51c2.21-4.92,5.43-9.43,6.61-14.77
		c17.8-29.14,38.68-56.23,58.81-83.77c33.69-44.03,67.94-87.72,105.23-128.78c11.5-12.43,23.08-24.9,36.23-35.63
		c3.03-2.55,6.53-4.52,10.28-5.83c10.25-3.69,20.98-5.72,31.55-8.28c20.2401-4.31,40.59-8.11,61-11.57
		c23.2-3.6,46.31-7.79,69.61-10.7c3.05-0.46,6.46-0.24,9.14-2.05c2.89-2.12,2.9901-6.16,5.2-8.77c3.13-1.54,6.67-3.19,7.09-7.15
		c1.1-0.52,2.21-1.03,3.33-1.53c0.09,1.86,0.21,3.72,0.3199,5.58c22.64,4.15,45.82,2.99,68.7101,2.35
		c3.5099,0.74,7.08,1.18,10.6799,1c7.6801-0.24,15.37-0.01,23.04-0.29c18.6799-1.67,37.46-1.95,56.13-3.8
		c9.47-1.34,18.46-5.19,26.33-10.59c3.0701-2.08,5.05-5.43,6.14-8.92C1157.63,37.99,1156.05,34.3,1155.47,30.7 M1071.96,112.24
		c-36,0.47-71.95,2.36-107.8799,4.34c-20.6,1.72-41.27,2.44-61.82,4.73c-39.23,3.27-78.45,7.34-117.23,14.24
		c-8.11,1.7-16.28,3.3-24.11,6.06c-11.39,4.41-20.32,13.08-28.88,21.49c-6.25,5.74-11.64,12.31-17.5,18.42
		c-25.88,29.44-49.71,60.62-72.55,92.46c-21.36,29.58-42.24,59.56-61.17,90.75c-1.13,1.78-2.08,3.67-2.63,5.72
		c-0.69,0.95-1.38,1.91-2.06,2.87c6.32-1.35,12.67-2.48,18.97-3.91c8.98,0.76,17.92-1.07,26.9-1.06
		c53.61-3.04,107.26-5.48,160.94-6.75c11.71-0.31,23.44-0.09,35.14-0.72c25.67-0.51,51.33,0.19,76.99,0.78
		c63.7,2.21,127.34,5.69,190.9901,8.9c27.83,1.8,55.72,2.8,83.5299,4.88c0.05-0.38,0.15-1.15,0.2001-1.53
		c8.0599,0.33,16.1599,1.17,24.21,0.13c7.98-0.95,16.24-3.15,22.4399-8.52c4.2201-3.5,6.1101-8.81,8.5901-13.52
		c29.78-58.84,60.1-117.42,89.5399-176.44c3.6801-7.85,8.6101-15.57,8.87-24.51c0.52-6.26-1.85-12.74-6.6899-16.82
		c-7.39-6.46-17.45-8.31-26.89-9.53c-3.58-0.63-7.37-0.46-10.7-2.05c5.4299-0.39,10.88,0.45,16.3199-0.07
		c-11.8199-1.8-23.6-3.95-35.52-4.86c-35.85-4.08-71.9399-5.26-107.99-6.06C1125.3,111.48,1098.61,111.2,1071.96,112.24
		 M742.37,501.51c-10.44,1.3-20.31,5.48-29.36,10.69c-17.4,10.4-31.38,25.86-41.63,43.21c-8.87,15.22-15.1,32.07-17.42,49.58
		c-2.07,17.69-0.7401,36.44,7.8,52.39c6.91,13.32,19.59,23.84,34.42,26.87c15.63,3.59,31.99-0.7,45.86-8.12
		c23.98-13.14,41.56-35.62,52.95-60.1c9.32-19.8101,12.36-42.4,9.14-64.01c-2.37-15.64-9.69-31.1-22.46-40.84
		C770.64,502.66,756.06,499.47,742.37,501.51 M639.76,760.38c-5.98,0.26-12.12,1.36-17.54,3.97
		c-12.8199,6.17-19.04,20.31-22.55,33.34c-2.72,10.87-4.29,22.19-3.17,33.39c1.33-3.91,1.46-8.07,2.43-12.06
		c2.5-12.04,8.43-22.93,14.33-33.59c8.51-1.52,17.2-0.66,25.8-0.92c38.68,0.61,77.31,2.46,115.96,4c9.33,0.07,18.63,1.18,27.97,0.84
		c2.51-7.17,5.77-14.6,4.64-22.36c-0.13-1.45-1.4-2.46-2.61-3.03c-13.75-2.16-27.64-3.31-41.51-4.29
		c-23.12-1.47-46.29-2.43-69.46-1.86C662.61,758.39,651,758.16,639.76,760.38 M680.4,801.52c-5.13,0.91-9.63,4-12.96,7.91
		c-11.02,12.95-13.27,32.71-5.95,47.98c2.91,5.8,8.05,10.83,14.54,12.25c6.68,1.22,13.67-1.43,18.29-6.3
		c8.47-8.39,11.94-20.7,11.84-32.38c0.05-9.2-3.41-18.6-10.21-24.91C691.82,802.23,685.96,800.38,680.4,801.52z"/>
	<path fill="#3F4897" stroke="#3F4897" stroke-width="0.394" d="M1419.6899,63.73c10.04-5.81,22.01-6.39,33.3301-5.76
		c18.33,0.51,36.6899,0.18,55.01,1.21c11.33,0.48,22.7999,0.07,34.03,1.64c8.0599,7.31,16.5499,14.53,22.08,24.09
		c10.6,17.85,12.08,39.02,14.76,59.12c3.09,26.44,5.7899,52.91,8.16,79.42c-4.6001,1.49-9.39,0.04-14.0801-0.04
		c-3.08,0.09-5.72-1.5-8.1-3.25c-1.5699-21.75-3.72-43.46-5.78-65.17c-0.77-6.73-1.24-13.51-2.5499-20.16
		c-22.9801-3.78-46.26-5.75-69.55-5.66c-15.04-0.17-30.1801,0.48-44.95,3.57c-5.5801,1.23-11.3,2.44-16.2101,5.5
		c-8.4099,1.98-16.1699,5.88-23.89,9.61c-7.6899,3.95-14.99,8.88-20.86,15.27c-7.72,8.22-13.39,18.04-19.77,27.27
		c-5.8099,8.49-10.5099,17.64-14.8099,26.97c-2.63,1.29-4.55,3.54-6,6.03c-4.59,7.23-8.6,15.08-9.91,23.63
		c-0.5399,3.43-1.11,6.98-3.12,9.91c-2.33,3.51-3.45,7.6-5.25,11.37c-13.1,27.72-26.9299,55.08-40.29,82.68
		c-4.2599,9.25-9.34,18.22-11.87,28.16c-3.37,12.58-6.25,25.74-4.46,38.81c0.77,7.21,6.8101,12.02,11.5701,16.83
		c5.5,5.3,13.0099,9.05,20.8099,8.25c10.72-1.11,20.05-7.15,28.65-13.22c6.0499,0.95,12.22,0.41,18.27,1.47
		c21.74,1,43.39,3.38,65.13,4.46c12.76,1.24,25.5399,1.96,38.33,2.8c7.88,0.69,15.77,1.44,23.6801,1.87
		c7.0299-0.21,13.95,1.42,20.99,1.27c13.6899,1.15,27.39,2.18,41.11,3.03c6.9,1.22,13.9299,0.55,20.87,1.39
		c15.3199,1.51,30.6899,2.56,46.04,3.65c1.0099,4.31,2.0199,8.82,4.83,12.37c2.0599,2.74,3.76,5.72,5.08,8.89
		c1.88-0.02,3.76-0.05,5.6801-0.08c-1.1801-7.72-8.4401-12.51-9.5801-20.22c2.2101-0.14,4.4301-0.33,6.67-0.21
		c11.63,1.44,23.4,1.41,35.04,2.82c8.08,0.56,16.1699,1,24.27,1.46c9.2699,1.49,18.6799,1.3,27.99,2.4
		c47.21,3.31,94.4199,7.01,141.62,10.53c0.0299,0.6,0.09,1.8,0.12,2.4c4.5499,4.04,7.63,9.59,8.3199,15.67
		c-76.72-4.77-153.4299-9.77-230.1699-14.11c-5.29,0.2-10.52-0.34-15.77-0.76c-75.02-3.13-150.05-6.7-225.14-7.37
		c-28.34-0.23-56.73-0.44-85.01,1.79c-5.2,0.37-10.34,1.19-15.48,1.92c52.2,4.44,104.35,9.56,156.4199,15.32
		c59.7301,6.63,119.49,13.04,179.1901,19.95c-0.75-0.05-2.26-0.15-3.02-0.2c2.23,6.69,7.83,11.28,11.54,17.1
		c2.2,3.25,4.21,6.66,6.11,10.11c-1.8101,0.9-3.79,1.34-5.79,1.1299c-52.66-2.34-105.33-4.69-158-6.69
		c-28.62-1.42-57.27-2.15-85.9-3.23c-35.75-1.33-71.5199-2.59-107.2999-2.71c-5.16-11.84-13.73-21.99-23.9401-29.81
		c-5.5499-4.45-12.13-7.78-16.59-13.47c-4.64-5.58-6.84-12.75-7.6801-19.86c-1.1499-12.12,1.7401-24.17,5.5901-35.58
		c6.22-18.16,16.48-34.5,24.1-52.05c17.04-37.66,33.87-75.41,50.83-113.1c17.76-38.54,34.91-77.38,53.49-115.54
		c7.63-15.97,17.04-31.09,28.1901-44.85C1396.12,82.2,1406.67,71.18,1419.6899,63.73z"/>
	<path fill="#3F4897" stroke="#3F4897" stroke-width="0.394" d="M1550.8101,61.25c18.61,1.02,36.8999,5.04,55.12,8.74
		c44.2699,9.89,87.87,22.81,130.2899,38.86c5.66,1.66,10.0701,5.72,14.8201,9.02c13.9299,11.15,22.99,27.19,29.6499,43.47
		c4,9.52,5.88,19.69,8.27,29.68c4.8401,22.72,9.28,45.52,13.5601,68.34c-3.72-0.71-7.41-1.57-11.0701-2.51
		c-4.35-21.45-8.6-43.03-15.8099-63.74c-1.62-3.81-2.86-7.93-5.4401-11.22c-4.1799-3.89-9.5699-6.14-14.76-8.32
		c-22.33-8.97-45.9199-14.32-69.5299-18.6c-24.85-4.08-49.99-6.95-75.1801-7.12l-0.91-0.02c9.04,26.4,12.2101,54.31,16.64,81.74
		c-11.25-0.99-22.38-2.9-33.5699-4.32c-2.67-29.77-5.59-59.53-9.35-89.19c-2.02-17.37-4.48-35.17-12.76-50.83
		C1565.92,75.91,1558.77,68.01,1550.8101,61.25z"/>
	<path fill="#3F4897" stroke="#3F4897" stroke-width="0.394" d="M1760.76,118.78c23.24,10.04,46.09,21.22,67.23,35.22
		c13.86,9.47,27.26,20.27,36.77,34.29c20.5599,29.58,34.52,63.17,45.6899,97.26c-3.7999,1.86-7.6899-1.38-11.5599-1.6
		c-2.53-8.52-5.72-16.82-8.61-25.22c-3.03-8.09-5.99-16.58-12.0801-22.95c-10.4299-11.4-24.58-18.51-38.6599-24.35
		c-6.7001-2.68-13.6001-4.82-20.65-6.31c-0.46-0.12-1.37-0.35-1.8201-0.47c4.37,19.15,9.04,38.24,12.8401,57.52
		c-0.7101,0.54-1.4,1.09-2.0601,1.64c-6.6799-0.91-13.16-2.77-19.61-4.62c-4.47-23.79-9.09-47.55-14.16-71.21
		c-2.0499-7.97-3.4299-16.13-6.3199-23.86C1781.77,147.49,1773.08,131.58,1760.76,118.78z"/>
	<path fill="#3F4897" stroke="#3F4897" stroke-width="0.394" d="M285.39,472.73c28.03-3.85,56.37-6.45,84.69-5.15
		c23.15,1.95,46.09,5.85,68.89,10.22c12.21,2.61,24.54,4.91,36.4,8.88c4.44,1.47,7.69,5.29,9.37,9.55
		c2.96,7.54,3.19,15.78,3.16,23.79c1.07,19.57-3.62,38.78-6.77,57.96c-3.93,22.96-8.63,45.78-12.45,68.75
		c-6.15,34.5-8.92,69.47-12.22,104.32c-2.64,32.41-4.63,64.9-4.8,97.42c-32.89,2.4301-65.85-0.23-98.69-2.15
		c-46.04-3.98-92.11-8.87-137.45-18.07c-14.2-3.01-28.39-6.28-42.06-11.23c0.75-47.36,7.34-94.44,16.26-140.9
		c4.14-20.47,8.64-40.89,14.41-60.98c10.19-36.07,22.98-71.36,36.67-106.24c4-9.67,7.83-20.16,16.22-26.96
		C265.03,475.5,275.64,474.49,285.39,472.73 M260,507.02c-8.53,6.94-13.54,17.08-18.13,26.85c-11.92,26.94-19.48,55.55-26.72,84.03
		c-10.94,45.6-19.22,91.8-26.07,138.18c-1.98,15.89-4.22,31.82-3.87,47.87c7.79,3.71,16.45,4.97,24.78,6.94
		c48.21,9.29,96.97,15.4,145.79,20.37c21.03,1.76,42.11,3.67,63.25,3.15c5.26-0.48,10.75-0.28,15.7-2.41
		c0.13-28.12,3.86-56.07,7.05-83.97c2.92-25.5601,6.32-51.0601,9.11-76.63c0.52-1.14,1.16-2.25,1.21-3.52
		c0.35-5.08,1.53-10.07,1.5-15.18c3.86-22.53,7.68-45.09,11.31-67.66c2.24-17.3,5.12-34.74,3.43-52.23c-0.72-4.4-1.6-9.17-4.65-12.6
		c-8.52-8.18-20.25-11.74-31.61-13.77c-17.21-2.64-34.68-2.28-52.03-1.74c-13.35,0.69-26.74,1.6-40.11,0.79
		c-13.98-1.3-27.73-4.44-41.7-5.81C285.23,498.46,270.92,498.92,260,507.02z"/>
	<path fill="#3F4897" stroke="#3F4897" stroke-width="0.394" d="M1850.15,469.68c4.66-2.41,9.96-0.86,14.89-0.43
		c25.6699,1.81,51.2899,4.03,76.98,5.42c2.11,0.17,3.9299,1.45,5.77,2.43c1.98,1.14,4.08,2.05,6.2,2.97
		c5.97,2.56,10.58,7.37,14.74,12.23c6.5701,7.81,9.35,17.83,12.64,27.29c5.5,2.36,11.0601,4.68,16.09,7.98
		c7.86,4.96,14.41,11.84,19.26,19.76c-2.8099,3.01-7.1699,1.46-10.73,1.44c-42.88-2.37-85.8-4.02-128.67-6.47
		c-0.5199-9.81,0.1901-20.24-4.2799-29.3c-1.99-4.32-6.0801-7.02-9.8401-9.66c27.63,1.39,55.2301,3.55,82.8601,4.95
		c1.7899-0.04,3.8199,0.3,5.4199-0.81c1.12-1.9-0.01-4.14-0.97-5.83c-4.05-6.2-11.12-10.39-18.5601-10.65
		c-24.7999-1.63-49.61-3.14-74.3999-4.77C1855.9301,480.4,1854.12,474.39,1850.15,469.68z"/>
	<path fill="#3F4897" stroke="#3F4897" stroke-width="0.394" d="M124.61,491.52c39.38-8.29,79.44-12.69,119.08-19.5
		c-7.16,7.73-11.4,17.5-15.36,27.12c-16.62,41.05-31.98,82.71-43.65,125.47c-4.71,17.49-8.71,35.17-12.36,52.92
		c-9.68,48.87-16.64,98.43-17.83,148.28c-3.85-1.02-7.65-2.25-11.57-2.97c-4.01-0.81-8.05,0.14-12.04,0.59
		c-7.87,1.03-15.82,1.23-23.75,1.53c2.5-4.09,3.23-8.88,2.6-13.59c-0.23-27.19-0.32-54.41,0.43-81.6
		c6.59-2.14,12.93-5.91,16.99-11.62c3.4-5.46,2.44-12.54,0.04-18.2c-1.92-4.41-6.63-6.76-11.22-7.22
		c-24.68-3.06-49.36-6.19-74.06-9.14c-1.49-0.21-2.92-0.67-4.32-1.1801c0.15-20.52-0.97-41.12,1.33-61.5699
		c1.99,8.21,5.26,16.69,12.13,22.06c7.89,6.54,19.21,6.8199,28.55,3.56c13.51-4.67,24.77-14.16,34.21-24.66
		c11.05-12.8,21.11-26.72,27.69-42.39c6.4-15.2,10.24-31.87,8.52-48.42c-0.94-9.23-2.74-18.96-8.7-26.39
		c-3.84-4.91-9.41-8.2-15.44-9.63c0.52-0.01,1.56-0.04,2.07-0.05C126.85,493.77,125.73,492.64,124.61,491.52z"/>
	<path fill="#3F4897" stroke="#3F4897" stroke-width="0.394" d="M1792.13,506.41c7.86-2.2,15.59-5.46,23.83-5.86
		c12.38,0.32,24.74,1.29,37.1001,2.04c0.2699,4.34,5.22,5.04,8.2699,6.9c4.0601,1.68,6.9301,5.39,8.0701,9.59
		c2.0699,7.42,1.96,15.21,2.16,22.86c-24.88-0.55-49.7101-2.23-74.5601-3.3c-51.01-2.2-101.97-5.1-152.98-7.02
		c-2.6901-0.11-5.3101-0.67-7.9-1.25c-3.76-10.35-11.59-18.34-17.41-27.45c34.8,3.9,69.5701,7.95,104.4,11.57
		c7.9501,0.7,15.88,1.8,23.88,1.85C1762.5,515.79,1777.36,510.76,1792.13,506.41z"/>
	<path fill="#3F4897" stroke="#3F4897" stroke-width="0.394" d="M6.86,711.79c0.49-3.33,0.81-7.14,3.81-9.25
		c5.69,0.94,11.45,1.3,17.17,2.02c16.06,2.33,32.15,4.5,48.2,6.93c5.6,0.86,11.28,1.34,16.79,2.71c6.72,1.44,11.01,8.34,11.47,14.85
		c0,17.66-0.59,35.31-0.45,52.97c0.09,9.78-0.35,19.58,0.47,29.34c-0.01,2.92,0.36,6.06-1.13,8.73c-1.33,2.68-3.82,5.43-7.14,4.75
		c-19.08-1.54-38.01-4.54-56.91-7.47c-10.38-1.75-20.82-3.15-31.07-5.58c-1.61-18.56-2.12-37.17-2.66-55.78
		C5.33,741.26,5.02,726.45,6.86,711.79 M45.14,733.17c-5.42,1.57-9.87,5.52-12.9,10.19c-5.73,8.62-7.49,19.4-6.49,29.58
		c0.97,8.43,4.09,16.98,10.29,22.98c4.68,4.36,11.65,6.97,17.94,4.86c6.09-1.71,10.93-6.4301,14.05-11.79
		c5.16-8.67,6.57-19.12,5.62-29.04c-0.89-8.73-4.84-17.28-11.58-23.02C57.47,733.11,50.95,731.15,45.14,733.17z"/>
	<path fill="#3F4897" stroke="#3F4897" stroke-width="0.394" d="M12.91,821c1.69-1.47,4.12-0.72,6.13-0.64
		c23.61,3.69,47.25,7.25,70.91,10.68c5.02,1,10.04-0.44,15.07-0.37c10.33-0.03,20.64-0.85,30.87-2.19
		c5.21-0.77,10.39,0.65,15.26,2.38c11.55,4.63,23.68,7.6,35.73,10.6c42.17,9.6,85.08,15.65,128.1,19.83
		c47.21,3.95,94.59,7.98,142,5.9901c15.14-1.69,30.26,0.89,45.29,2.54c49.31,6.36,98.58,13.04,147.87,19.56
		c25.22,3.25,50.41,7.12,75.83,8.46c25.66,1.71,51.3701,2.33,77.05,3.56c26.97,0.71,53.92,1.88,80.89,2.15
		c-0.61,5.24-2.71,10.13-4.15,15.18c-7.11,22.38-13.5,45-20.76,67.34c-5.65,16.79-11.45,33.61-19.46,49.44
		c-26.92-0.02-53.75-2.28-80.58-3.99c-100.35-8.3-200.25-21.15-300.02-34.62c-66.1-8.9301-132.03-18.9901-198.01-28.73
		c-37.53-5.98-75.08-11.77-112.59-17.89c-28.51-5-57.13-9.42-85.53-15.05c-3.44-0.81-7.47-1.13-9.79-4.16
		c-4.77-5.8-8.74-12.25-12.26-18.87c-0.12-1.6-0.19-3.18-0.27-4.76c0.9-0.02,1.8-0.02,2.71-0.01c4.92,6.34,12.29,10.1,19.6,13.01
		c7.25,2.9,14.98,4.28,22.69,5.33c-7.48-3.13-15.21-5.8-22.14-10.07c-4.95-2.93-7.33-8.52-9.3-13.65
		c-2.22-6.56-4.01-13.95-1.76-20.72c3.41-5.81,11.04-6.39,17.08-6.84c-5.02-1.82-10.09-3.54-15.35-4.48
		c-7.96-1.56-16.3-3.89-24.34-1.58c-0.08,0.56-0.25,1.67-0.33,2.23c-0.56,0.94-1.14,1.89-1.72,2.85c-0.66-0.48-1.32-0.96-1.98-1.42
		c-0.46-1.75-0.85-3.54-1.59-5.19c-1.23-2.07-3.67-3.35-4.13-5.86c-2.66-10.98-6.09-21.79-7.88-32.96
		C11.72,825.72,11.23,822.97,12.91,821 M495.51,923.17c-0.1,1.7-0.2,3.42-0.29,5.15c4.28,0.52,8.62,0.79,12.86,1.62
		c2.79,2.88,2.71,7.4,3.28,11.17c0.43,11.66-1.53,24.08-8.37,33.82c-4.82-0.49-9.57-1.55-14.41-1.65c-0.16,1.74-0.33,3.49-0.48,5.25
		c53.68,7.62,107.32,15.52,161.04,22.78c27.56,3.39,55.11,7.22,82.85,8.84c8.67,0.6,17.82-1.84,24.19-7.96
		c10.81-10.13,13.06-28.46,4.07-40.45c-5.06-7.2-13.69-10.93-22.22-11.89c-66.38-7.42-132.78-14.63-199.13-22.23
		C524.42,926.27,510.04,923.8,495.51,923.17z"/>
	<path fill="#3F4897" stroke="#3F4897" stroke-width="0.394" d="M549.4,934.38c33.42,3.81,66.83,7.83,100.29,11.15
		c-7.57,4.61-12.12,13.2-12.94,21.91c-0.57,9.08-1.23,18.93,3.67,27.06c-32.16-4.34-64.24-9.18-96.38-13.58
		C551.03,966.7,553.34,949.8,549.4,934.38z"/>
	<path fill="#3F4897" stroke="#3F4897" stroke-width="0.394" d="M702.84,951.56c12.1299,1.39,24.28,2.59,36.39,4.16
		c8.99,1.1801,17.55,7.25,19.93,16.28c4.59,13.79-5.05,30.79-19.92,32.26c-14.83,0.8-29.58-1.76-44.32-3.03
		c1.79-2.67,4.74-4.23,6.7-6.76c3.25-4.05,5.17-9.23,5.16-14.4399c0.06-6,0.36-12.0601-0.75-17.98
		C705.47,958.41,703.75,955.1,702.84,951.56z"/>
	<path fill="#000002" stroke="#000002" stroke-width="0.394" d="M1071.96,112.24c26.65-1.04,53.3401-0.76,80.01-0.58
		c36.05,0.8,72.14,1.98,107.99,6.06c-1,0.26-1.98,0.52-2.9399,0.8c1.6699,0.42,3.37,0.84,5.0699,1.27
		c-0.2899,0.39-0.88,1.16-1.1699,1.55c-53.2301-2.94-106.5901-3.24-159.88-2.26c-84.2,1.71-168.35,7.05-252.01,16.77
		c-24.4,3.03-48.83,6.13-72.96,10.92c-8.13,1.85-17.01,2.98-23.53,8.67c-17.16,14.21-31.41,31.47-45.91,48.27
		c-44.84,53.98-86.74,110.32-128.44,166.74c0.55-2.05,1.5-3.94,2.63-5.72c18.93-31.19,39.81-61.17,61.17-90.75
		c22.84-31.84,46.67-63.02,72.55-92.46c5.86-6.11,11.25-12.68,17.5-18.42c8.56-8.41,17.4901-17.08,28.88-21.49
		c7.83-2.76,16-4.36,24.11-6.06c38.78-6.9,78-10.97,117.23-14.24c20.55-2.29,41.22-3.01,61.82-4.73
		C1000.01,114.6,1035.96,112.71,1071.96,112.24z"/>
	<path fill="#000002" stroke="#000002" stroke-width="0.394" d="M45.14,733.17c5.81-2.02,12.33-0.06,16.93,3.76
		c6.74,5.74,10.69,14.29,11.58,23.02c0.95,9.92-0.46,20.37-5.62,29.04c-3.12,5.36-7.96,10.08-14.05,11.79
		c-6.29,2.11-13.26-0.5-17.94-4.86c-6.2-6-9.32-14.55-10.29-22.98c-1-10.18,0.76-20.96,6.49-29.58
		C35.27,738.69,39.72,734.74,45.14,733.17 M52.28,741.38c-4.73,0.75-8.35,4.47-10.48,8.57c-4.48,8.6-4.73,19.2-1.04,28.13
		c1.7,4.01,4.67,7.81,8.87,9.35c3.57,1.34,7.61,0,10.39-2.41c9.7-9.04,9.88-24.72,4.23-36.02
		C62.14,744.53,57.45,740.69,52.28,741.38 M39.09,786.7c-0.41,1.04-0.81,2.09-1.22,3.15c2.47,2.47,5.18,4.97,8.7,5.78
		c3.66,1.24,7.23-0.79,10.55-2.09c-3.28-0.04-6.69,0.29-9.8-1C44.09,791.36,41.66,788.85,39.09,786.7z"/>
	<path fill="#000002" stroke="#000002" stroke-width="0.394" d="M29.68,868.43c8.04-2.31,16.38,0.02,24.34,1.58
		c5.26,0.94,10.33,2.66,15.35,4.48c-6.04,0.45-13.67,1.03-17.08,6.84c-2.25,6.77-0.46,14.16,1.76,20.72
		c1.97,5.13,4.35,10.72,9.3,13.65c6.93,4.27,14.66,6.94,22.14,10.07c-7.71-1.05-15.44-2.43-22.69-5.33
		c-7.31-2.91-14.68-6.67-19.6-13.01c-8.31-10.36-13.46-23.47-13.85-36.77C29.43,870.1,29.6,868.99,29.68,868.43z"/>
	<path fill="#000014" stroke="#000014" stroke-width="0.394" d="M1257.02,118.52c0.96-0.28,1.9399-0.54,2.9399-0.8
		c11.92,0.91,23.7001,3.06,35.52,4.86c-5.4399,0.52-10.89-0.32-16.3199,0.07c-6.11-0.02-12.17-0.84-18.24-1.31
		c0.2899-0.39,0.88-1.16,1.1699-1.55C1260.39,119.36,1258.6899,118.94,1257.02,118.52z"/>
	<path fill="#CBCBCB" stroke="#CBCBCB" stroke-width="0.394" d="M849.03,135.85c83.66-9.72,167.81-15.06,252.01-16.77
		c53.2899-0.98,106.6499-0.68,159.88,2.26c6.0699,0.47,12.13,1.29,18.24,1.31c3.33,1.59,7.12,1.42,10.7,2.05
		c9.4401,1.22,19.5,3.07,26.89,9.53c4.84,4.08,7.21,10.56,6.6899,16.82c-0.2599,8.94-5.1899,16.66-8.87,24.51
		c-29.4399,59.02-59.7599,117.6-89.5399,176.44c-2.48,4.71-4.37,10.02-8.5901,13.52c-6.2,5.37-14.46,7.57-22.4399,8.52
		c-8.05,1.04-16.15,0.2-24.21-0.13c-20.51-2.79-40.8401-6.91-61.27-10.25c-44.4401-7.58-88.85-15.37-133.42-22.16
		c-24.62-2.41-49.4-2.28-74.11-2.65c-48.69-0.25-97.4,0.14-146.04,2.4c-14.01,0.76-27.99,1.96-41.81,4.4
		c-39.55,6.89-78.7,15.83-118.04,23.76c-6.3,1.43-12.65,2.56-18.97,3.91c0.68-0.96,1.37-1.92,2.06-2.87
		c41.7-56.42,83.6-112.76,128.44-166.74c14.5-16.8,28.75-34.06,45.91-48.27c6.52-5.69,15.4-6.82,23.53-8.67
		C800.2,141.98,824.63,138.88,849.03,135.85z"/>
	<path fill="#CBCBCB" stroke="#CBCBCB" stroke-width="0.394" d="M1425.84,138.24c17.62-2.19,35.35-3.5,53.11-3.77
		c24.16-0.21,48.66-0.08,72.28,5.6c5.01,42.22,8.72,84.57,12.5801,126.91c3.8799,49.24,7.9199,98.55,7.8899,147.97
		c-19.6599,1.88-39.4199,1-59.13,0.67c-23.7599-0.33-47.5099-1.51-71.2699-2.09c-5.01-0.22-10.03-0.44-14.9701-1.26
		c12.36-1.35,24.5801-3.77,36.7001-6.52c9.34-2.53,18.8099-4.99,27.4399-9.49c6.91-3.59,13.6901-8.42,17.29-15.54
		c3.1-6.08,2.53-13.12,3.05-19.72c0.1699-7,1.11-14.09-0.04-21.04c-0.78-4.61-4.3-8.02-7.84-10.73
		c-8.0701-6.25-17.8501-9.98-27.8201-11.78c-11.27-2.09-22.78-1.02-34.15-1.82c-16.01-0.81-31.9399-3.14-47.98-2.95
		c-5.09,0.33-10.6,0.37-14.99,3.32c-8.46,5.7-14.34,14.4-22.65,20.28c-4.0699,2.08-8.46,4.53-13.09,4.53
		c-2.4399-6.14-2.8-12.89-4.03-19.34c-2.71-17.45-5.01-34.95-6.7-52.53c-0.51-3.85,0.41-7.75-0.39-11.57
		c4.6-13.52,9.6899-26.9,15.38-40.01c4.3-9.33,9-18.48,14.8099-26.97c6.38-9.23,12.05-19.05,19.77-27.27
		c5.87-6.39,13.17-11.32,20.86-15.27C1409.67,144.12,1417.4301,140.22,1425.84,138.24z"/>
	<path fill="#CBCBCB" stroke="#CBCBCB" stroke-width="0.394" d="M1609.8199,147.83l0.91,0.02c22.42,2.65,44.6,6.91,66.6901,11.47
		c23.9399,5.31,47.95,10.76,71,19.21c6.09,2.65,13.6,4.91,16.48,11.54c3.7999,8.66,6.0599,17.88,8.37,27.03
		c6.02,25.7,10.47,51.73,14.54,77.8c3.71,22.25,6.71,44.61,9.84,66.95c3.01,24.47,6.62,48.91,8.22,73.54
		c-25.3099-0.33-50.48-3.4-75.71-5.13c-28.5-2.2-56.9601-5.01-85.52-6.33c-1.72-0.24-3.41-0.49-5.08-0.73
		c1.72-52.16-2.88-104.26-8.3201-156.08c-1.5-12.52-3.2-25.03-4.78-37.55C1622.03,202.14,1618.86,174.23,1609.8199,147.83z"/>
	<path fill="#CBCBCB" stroke="#CBCBCB" stroke-width="0.394" d="M1817.0699,204.65c0.4501,0.12,1.3601,0.35,1.8201,0.47
		c15.03,4.22,29.22,11.21,42.1799,19.88c8.7001,6.09,17.4301,13.41,21.17,23.71c7.39,19.05,13.21,38.65,19.17,58.18
		c9.72,33.45,18.9199,67.09,25.98,101.21c1.52,8.54,3.46,17.17,3.0699,25.89c0.05,3.44-3.95,3.53-6.4099,3.94
		c-20.5601,2.15-41.2201,0.1-61.8101,0.16c-7.05-46.79-15.88-93.27-24.83-139.72c-2.52-12.07-5-24.14-7.5-36.2
		C1826.11,242.89,1821.4399,223.8,1817.0699,204.65z"/>
	<path fill="#CBCBCB" stroke="#CBCBCB" stroke-width="0.394" d="M1399.9399,326.62c27.04-0.76,54.0801,1.2,81.1201,0.05
		c8.2799-1.29,15.25,4.6,21.35,9.37c-8.01,9.46-18.9,15.87-29.64,21.75c-20.21,10.64-41.77,18.61-63.86,24.34
		c-20.5601,5.29-42.03,8.6-63.2101,5.44c4.7201-0.73,9.8501,0.32,14.3201-1.6c4.95-3.59,1.51-10.7,4.75-15.2
		c2.5599-4.04,5.5699-7.78,8.21-11.77c2.15-3.29,4.86-6.48,5.41-10.52c0.91-7.21,4.4399-14.24,10.08-18.89
		C1391.65,326.89,1395.98,326.76,1399.9399,326.62 M1406.21,346.39c-6.5,0.53-12.5699,3.3-17.71,7.22
		c-4.95,3.6-10.01,7.28-13.78,12.17c-2.75,3.81-3.48,9.88,0.12,13.41c3.9,3.12,9.3401,2.38,13.89,1.44
		c7.49-1.94,14.85-4.56,21.71-8.17c5.8401-2.83,11.05-7.08,17.51-8.5c4.3101-1,8.1901-5.31,7.25-9.92c-0.74-3.75-4.5-5.78-7.95-6.41
		C1420.33,346.32,1413.23,345.68,1406.21,346.39z"/>
	<path fill="#CBCBCB" stroke="#CBCBCB" stroke-width="0.394" d="M1354.3,408.16c3.58-1.98,7.51-3.78,11.71-3.53
		c5.26,0.35,9.8199,3.23,14.64,5.08C1371.85,409.56,1363.08,408.74,1354.3,408.16z"/>
	<path fill="#CBCBCB" stroke="#CBCBCB" stroke-width="0.394" d="M1901.74,754.78c4.77-4.07,10.8201-7.16,17.23-6.9301
		c8.11-0.1,15.15,5.1,20.26,10.97c8.13,9.64,13.09,21.54,16.5601,33.55c-1.17,1.03-2.3101,2.06-3.4401,3.1
		c-3.61-7.95-8.72-15.43-15.63-20.86c7.38,8.35,13.25,18.11,16.61,28.77c-0.6599,3.75-1.6699,7.43-2.2799,11.19
		c-1.88-2.58-3.8201-5.71-7.15-6.43c-4.05-0.89-8.16,0.95-11.01,3.75c-7,6.48-9.46,16.42-9.7001,25.64
		c2.8201-6.09,4.6001-12.98,9.5701-17.79c2.62-2.73,7.38-3.3,10.35-0.81c1.47,1.88,2.21,4.21,3.2001,6.38
		c2.35-0.51,4.3899-1.82,6.1899-3.41c1.6899,9.49,1.6899,19.21,1.05,28.81c-0.67,8.39-1.6901,17.17-6.37,24.4
		c-2.6801,4.53-7.88,8.17-13.3201,7.15c3.58-2.82,7.63-5.32,10.1-9.28c3.42-5.33,3.51-11.9,4.2201-17.99
		c1.1699-9.75,0.0099-19.65-2.3-29.15c-3.7,8.98-11.14,15.55-18.26,21.83c-3.39,3.18-8.12,3.82-12.48,4.61
		c-0.01-13.46,2.14-26.92,6.4399-39.6801c2.4301-6.91,5.65-13.81,10.9601-19.0099c2.5599-2.57,5.9199-4.05,9.1-5.7
		c-1.12-0.83-2.29-2.03-3.72-1.16c-8.0601,3.19-13.03,11.1-16.5,18.66c-6.5601,15.42-9.1801,32.33-9.13,49.02
		c-2.3,1.21-4.76,2.46-6.16,4.75c-2.95,4.03-2.74,9.4301-5.4,13.56c-4.25,3.6801-10.0599,1.35-14.79,0.15
		c-1.49-2.18-3.46-4.49-6.34-4.39c-2.36-5.22-3.0499-10.92-3.7899-16.53c-0.4301-1.89-0.4701-4.2-2.13-5.45
		c-1.6901-1.45-3.8-2.75-3.75-5.26c1.11-20.47,5.2799-40.99,13.47-59.87C1887.85,771.53,1893.46,761.89,1901.74,754.78
		 M1909.5,761.11c1.59,5.05,6.25,8.15,10.5699,10.74c3.66,2,9.37,3.4301,12.3501-0.37c1.73-3.71,1.48-8.18-0.03-11.92
		c-1.97-4.19-7.08-5.71-11.38-5.26C1916.45,754.7,1911.17,756.38,1909.5,761.11 M1884.59,794.48c-3.12,8.47-4.74,17.48-5.12,26.48
		c-0.0499,2.46,0.3401,5.86,3.13,6.72l-0.24,0.99c1.62-0.54,3.39-0.97,5.1-1.35l0.1901-0.49c9.0699-7.14,12.63-19.62,11.87-30.81
		c-0.36-4.83-1.27-11.2-6.8301-12.6C1888.15,785.38,1886.25,790.19,1884.59,794.48z"/>
	<path fill="#CBCBCB" stroke="#CBCBCB" stroke-width="0.394" d="M1048.34,833.48c13.79-14.62,32.88-26.27,53.64-25.02
		c17.17,0.58,32.66,10.14,44.1801,22.35c11.49,12.25,19.73,27.18,25.88,42.72c-2.6801,2.79-5.2101,5.74-7.5701,8.8
		c-7.39-13.27-17.97-24.89-31.02-32.76c4.28,4.41,9.2301,8.16,13.1901,12.89c7.1899,8.17,13.23,17.39,17.73,27.31
		c-0.4301,6.61,0.01,13.78-3.75,19.59c-3.2-4.88-8.04-9.14-14.03-9.82c-10.13-1.2599-19.9199,4.09-26.58,11.39
		c-7.8101,8.95-12.09,20.95-12.05,32.81c4.74-9.12,8.77-19.15,16.99-25.78c5.26-4.4901,12.99-5.91,19.4301-3.28
		c3.72,1.63,5.13,5.79,6.75,9.2c-1.84,7.83-7.73,13.62-13.45,18.85c-6.42,5.67-13.28,10.89-20.5901,15.37
		c-4.08,2.4-8.25,4.97-13.01,5.6801c-4.0299,0.66-8.0599,1.27-12.0599,2.06c-0.13-4.03-0.35-8.06-0.39-12.08
		c1.61-18.46,6.6-36.7,14.8099-53.32c6.89-13.12,17.52-25.91,32.4901-29.63c1.4399-0.16,2.36-1.25,1.88-2.69
		c-5.8101-0.15-11.0901,2.85-15.79,5.93c-11.97,8.39-20.05,21.17-25.42,34.56c-7.4299,18.72-11.59,38.85-11.23,59.04
		c-6.0699,2.14-12.17,5.38-15.53,11.12c-3.22,4.73-3.08,10.98-6.5399,15.56c-4.15,4.72-11.0901,5.32-16.92,4.29
		c-6.3199-0.74-11.87-4.12-18.04-5.44c-1.09-0.7-2.1599-1.39-3.22-2.09c-2.6-2.45-5.93-4.64-6.9-8.26
		c-2.21-7.27-2.96-14.87-4.86-22.2c-0.88-3.77-4.51-6.1-8.03-7.02c-1.9-0.19-3.71,0.71-5.51,1.14c1.55-22.61,5.62-45.13,13.4-66.45
		C1023.42,868.28,1033.77,849.12,1048.34,833.48 M1088.99,824.85c-2.1899,0.98-3.5599,2.96-4.3099,5.1801
		c1.84,5.24,6.7999,8.25,11.3199,10.97c7.75,4.45,16.88,7.82,25.91,5.94c2.1599-0.32,4.09-2.15,3.77-4.47l0.7899,0.04
		c0.17-3.82,0.5901-7.82-0.98-11.42c-2.1899-5.97-8.61-9.1201-14.5699-9.88C1103.5,820.43,1095.67,821.4,1088.99,824.85
		 M1045.77,866.68c-4.4301,3.84-7.25,9.12-9.71,14.35c-5.4801,11.9-8.4801,24.86-9.4,37.9c-0.1,1.82-0.01,3.73,0.7999,5.41
		l-0.8999-0.84c-0.0801,3.03,1.24,6.58,4.4299,7.5c4.6901,0.96,9.15-1.68,12.87-4.25c6.88-5.3,12.23-12.75,14.72-21.09
		c0.3501-1.69,1.24-3.61,0.0901-5.16c0.14-0.29,0.4199-0.88,0.5599-1.17c0.87-7.11,1.79-14.36,0.4401-21.47
		c-0.8-4.28-2.2101-8.84-5.7301-11.67C1051.53,864.36,1047.99,864.73,1045.77,866.68z"/>
	<path fill="#CBCBCB" stroke="#CBCBCB" stroke-width="0.394" d="M1163.85,919.86c3.05,13.02,3.48,26.5,2.5801,39.8
		c-0.6901,8-1.7001,16.03-4.0701,23.72c-2.29,7.98-6.83,15.41-13.23,20.74c-5.86,4.9-13.84,7.04-21.36,5.72
		c4.45-2.64,9.4299-4.4,13.47-7.7c5.14-4.28,10.15-9.42,11.73-16.13c2.9401-12.41,3.97-25.27,2.97-37.98
		c-0.5499-7.7-2.8099-15.11-4.36-22.63C1156.33,925.36,1160.35,922.83,1163.85,919.86z"/>
	<path fill="#CBCBCB" stroke="#CBCBCB" stroke-width="0.394" d="M1065.58,1109.04c6.5901,0.35,12.9501,2.37,19.5701,2.61
		c6.9,0.75,13.7999-0.55,20.72-0.27l1.0699,0.03C1093.54,1115.8,1078.3,1115.3199,1065.58,1109.04z"/>
	<path fill="#000001" stroke="#000001" stroke-width="0.394" d="M1442.05,132.74c14.7699-3.09,29.9099-3.74,44.95-3.57
		c23.29-0.09,46.5699,1.88,69.55,5.66c1.3099,6.65,1.7799,13.43,2.5499,20.16c2.0601,21.71,4.2101,43.42,5.78,65.17
		c6.24,67.61,11.21,135.33,16.62,203.01c-15.84,0.76-31.66-0.89-47.46-1.69c-24.39-1.32-48.7201-3.46-73.0601-5.41
		c-6.5699-0.79-13.28-0.71-19.6799-2.54c23.76,0.58,47.51,1.76,71.2699,2.09c19.7101,0.33,39.4701,1.21,59.13-0.67
		c0.03-49.42-4.01-98.73-7.8899-147.97c-3.8601-42.34-7.5701-84.69-12.5801-126.91c-23.62-5.68-48.12-5.81-72.28-5.6
		c-17.76,0.27-35.49,1.58-53.11,3.77C1430.75,135.18,1436.47,133.97,1442.05,132.74z"/>
	<path stroke="#000000" stroke-width="0.394" d="M1610.73,147.85c25.1901,0.17,50.3301,3.04,75.1801,7.12
		c23.61,4.28,47.2,9.63,69.5299,18.6c5.1901,2.18,10.5801,4.43,14.76,8.32c2.5801,3.29,3.8201,7.41,5.4401,11.22
		c7.21,20.71,11.46,42.29,15.8099,63.74c8.8201,47.09,15.79,94.51,21.4401,142.08c1.42,13.74,3.1,27.47,3.61,41.29
		c-47.61-2.76-95.08-7.46-142.52-12.24c-9.7999-1.25-19.6899-1.88-29.34-4.05c28.5599,1.32,57.02,4.13,85.52,6.33
		c25.23,1.73,50.4,4.8,75.71,5.13c-1.6-24.63-5.21-49.07-8.22-73.54c-3.13-22.34-6.13-44.7-9.84-66.95
		c-4.0701-26.07-8.52-52.1-14.54-77.8c-2.3101-9.15-4.5701-18.37-8.37-27.03c-2.88-6.63-10.39-8.89-16.48-11.54
		c-23.05-8.45-47.0601-13.9-71-19.21C1655.33,154.76,1633.15,150.5,1610.73,147.85z"/>
	<path stroke="#000000" stroke-width="0.394" d="M1327.48,256.93c1.1901,0.15,2.42,0.3,3.65,0.44c0.8,3.82-0.12,7.72,0.39,11.57
		c1.6899,17.58,3.99,35.08,6.7,52.53c1.23,6.45,1.5901,13.2,4.03,19.34c4.63,0,9.02-2.45,13.09-4.53
		c8.3101-5.88,14.1901-14.58,22.65-20.28c4.39-2.95,9.9-2.99,14.99-3.32c16.04-0.19,31.97,2.14,47.98,2.95
		c11.37,0.8,22.88-0.27,34.15,1.82c9.97,1.8,19.75,5.53,27.8201,11.78c3.5399,2.71,7.0599,6.12,7.84,10.73
		c1.15,6.95,0.21,14.04,0.04,21.04c-0.52,6.6,0.0499,13.64-3.05,19.72c-3.6,7.12-10.38,11.95-17.29,15.54
		c-8.63,4.5-18.1,6.96-27.4399,9.49c-12.12,2.75-24.3401,5.17-36.7001,6.52c-7.74,1.22-15.5,2.66-23.37,2.41
		c-7.73,0.05-15.24-2-22.3099-4.97c-4.8201-1.85-9.38-4.73-14.64-5.08c-4.2-0.25-8.13,1.55-11.71,3.53
		c-9.88,6.32-18.24,14.69-27.66,21.65c-8.6,6.07-17.9301,12.11-28.65,13.22c-7.8,0.8-15.3099-2.95-20.8099-8.25
		c-4.76-4.81-10.8-9.62-11.5701-16.83c-1.79-13.07,1.09-26.23,4.46-38.81c2.53-9.94,7.6101-18.91,11.87-28.16
		c13.3601-27.6,27.1901-54.96,40.29-82.68C1324.03,264.53,1325.15,260.44,1327.48,256.93 M1323.59,279.75
		c-1.23,1.73-1.61,3.86-2.1599,5.86c-1.67,7.3-4.4801,14.27-6.3501,21.51c-2.5199,9.27-6.09,18.3-7.23,27.89
		c-1.6899,10.3-2.5,20.76-4.83,30.95c-1.11,4.49-4.64,8.26-4.3101,13.11c0.04,6.39,2.4701,13.69,8.5801,16.71
		c4.63,2.94,10.36,2.14,15.5499,1.81c5.8201-0.7,11.6901-0.54,17.52-1.12c26.64-2.1,53.12,2.45,79.62,4.4
		c5.4,0.45,10.73-0.71,16.02-1.69c17.9399-3.57,35.7-8.03,53.64-11.65c3.65-0.8,7.86-1.44,10.14-4.77
		c6.6799-7.68,4.8199-18.46,5.53-27.8c0.1499-6.36,2.1599-13.84-2.9-18.92c-6.1-4.77-13.0701-10.66-21.35-9.37
		c-27.04,1.15-54.0801-0.81-81.1201-0.05c-3.96,0.14-8.2899,0.27-11.47,2.97c-5.64,4.65-9.1699,11.68-10.08,18.89
		c-0.55,4.04-3.26,7.23-5.41,10.52c-2.64,3.99-5.65,7.73-8.21,11.77c-3.24,4.5,0.2,11.61-4.75,15.2c-4.47,1.92-9.6,0.87-14.3201,1.6
		c-6.1799,0.03-14.23-2.05-14.9099-9.38c-0.2001-0.19-0.5801-0.58-0.77-0.77c-1.4301-10.11-1.04-20.6,1.9299-30.41
		c0.67-2.5,2-4.75,3.92-6.5c-2.4301-11.75-3.9399-23.64-5.76-35.49c-1.5499-10.12-2.25-20.36-4.09-30.43
		C1325.25,276.33,1324.42,278.04,1323.59,279.75z"/>
	<path stroke="#000000" stroke-width="0.394" d="M260,507.02c10.92-8.1,25.23-8.56,38.24-7.34c13.97,1.37,27.72,4.51,41.7,5.81
		c13.37,0.81,26.76-0.1,40.11-0.79c17.35-0.54,34.82-0.9,52.03,1.74c11.36,2.03,23.09,5.59,31.61,13.77
		c3.05,3.43,3.93,8.2,4.65,12.6c1.69,17.49-1.19,34.93-3.43,52.23c-3.63,22.57-7.45,45.13-11.31,67.66
		c-1.78,6.08-2.23,12.41-2.71,18.7c-2.79,25.5699-6.19,51.0699-9.11,76.63c-3.19,27.9-6.92,55.85-7.05,83.97
		c-4.95,2.13-10.44,1.93-15.7,2.41c-21.14,0.52-42.22-1.39-63.25-3.15c-48.82-4.97-97.58-11.08-145.79-20.37
		c-8.33-1.97-16.99-3.23-24.78-6.94c-0.35-16.05,1.89-31.98,3.87-47.87c6.85-46.38,15.13-92.58,26.07-138.18
		c7.24-28.48,14.8-57.09,26.72-84.03C246.46,524.1,251.47,513.96,260,507.02z"/>
	<path stroke="#000000" stroke-width="0.394" d="M742.37,501.51c13.69-2.04,28.27,1.15,39.3,9.67c12.77,9.74,20.09,25.2,22.46,40.84
		c3.22,21.61,0.18,44.2-9.14,64.01c-11.39,24.48-28.97,46.96-52.95,60.1c-13.87,7.42-30.23,11.71-45.86,8.12
		c-14.83-3.03-27.51-13.55-34.42-26.87c-8.54-15.95-9.87-34.7-7.8-52.39c2.32-17.51,8.55-34.36,17.42-49.58
		c10.25-17.35,24.23-32.81,41.63-43.21C722.06,506.99,731.93,502.81,742.37,501.51 M750.46,523.61
		c-22.01,4.45-39.76,20.78-51.34,39.38c-10.93,17.8-17.33,38.95-15.24,59.94c1.22,11.98,5.7,24.16,14.75,32.45
		c8.09,7.51,19.62,10.78,30.5,9.34c14.75-1.75,28.02-9.81,38.6-19.92c12.71-12,21.61-27.65,26.66-44.3
		c4.47-14.28,6.71-29.76,3.08-44.48c-2.64-11.07-8.8799-21.75-18.8-27.73C770.33,523.09,760.02,521.8,750.46,523.61 M659.25,628.77
		c1.18,14.3,6.63,28.78,17.13,38.84c8.1,7.84,19.33,12.22,30.58,12.23c15.34,0.3199,30.05-6.1201,42.31-14.96
		c-7.21,2.67-14.54,5.43-22.31,5.65c-11.4901,0.83-23.32-2.97-31.85-10.79c-11.3-10.13-16.47-25.56-17.08-40.42
		C673.26,624.72,666.48,628.32,659.25,628.77z"/>
	<path stroke="#000000" stroke-width="0.394" d="M1016.01,673.09c32.84-23.2401,73.97-33.91,113.99-30.95
		c19.58,1.24,39.05,6.77,55.8,17.11c17.0699,10.4,30.9299,25.56,41.09,42.67c9.9,16.3,16.64,34.32,21.58,52.69
		c11.64,44.68,12.92,91.36,10.0601,137.22c-2.24,12.51-2.11,25.29-3.9601,37.86c-1.7,10.97-2.46,22.22-6.0599,32.79
		c-1.55,0.98-3.73,1.65-4.14,3.67c-3.59,12.3-5.99,25.34-13.1801,36.19c-1.95,2.0699-3.6399,4.36-4.9399,6.89l1.71-0.24
		c91.15-13.56,182.05-28.74,273.1001-42.96c42.5199-6.44,85-13.26,127.59-19.27c49.66-7.67,99.34-15.12,149.0499-22.44
		c4.6801,17.79,13.38,34.58,25.78,48.21c9.7001,9.9399,22.03,16.95,34.8101,22.15c15.21,6.13,31.47,9.74,47.89,10.2
		c-14.4-5.28-25.67-16.64-33.5-29.55c-11.05-18.06-16.9601-38.71-21.0601-59.33c1.24-1.94,2.55-3.84,4-5.64
		c1.13,2.39,2.02,4.93,2.42,7.58c3.0699,17.9,9.12,35.26,17.6899,51.28c8.03,13.2401,18.84,26.28,34.3,30.7401
		c8.0399,1.74,16.89,2.41,24.5-1.34c15.36-7.21,26.46-20.74,35.5499-34.66c4.62-7.47,9.53-14.98,11.7301-23.58
		c3.2699-6.29,6.1799-12.81,7.8999-19.72c6.8401-20.17,9.9301-41.44,10.64-62.67c1.1901-10.98,0.53-22.01-0.3099-32.98
		c0.35-17.44-2.23-34.77-5.1801-51.91c-3.53-18.24-9.29-36.5099-20.28-51.7c-9.23-13.87-25.88-22.69-42.64-21.56
		c-5.87-0.14-11.2,2.47-16.49,4.62c-0.46-0.31-1.37-0.94-1.8199-1.25c0.83-1.67,1.6801-3.34,2.52-5.02
		c7.41-3.55,15.7999-5.17,23.98-3.86c10.54,1.16,20.3099,5.87,28.76,12.14c-4.0601-5.49-9.9401-9.17-15.63-12.73
		c-8.98-5.35-19.28-7.68-29.49-9.28c4.64-5.67,8.15-12.18,13.14-17.58c6.95-7.94,16.25-14.64,27.0499-15.62
		c7.92-0.82,15.8,2.87,21.1901,8.57c4.12,4.37,7.2899,9.57,9.9199,14.96c4.4901,10.13,8.8601,20.39,11.54,31.18
		c8.4501,33.22,8.6901,67.97,5.2001,101.91c-0.8401,8.84-2.4601,17.6-4.51,26.24c-1.3401,5.32-0.9301,10.84-0.8501,16.27
		c-0.01,0.5-0.0299,1.49-0.0299,1.99c1.7799-0.72,3.6-1.56,4.7999-3.16c3.1801-3.83,6.36-7.67,9.78-11.31
		c2.84-2.92,4.14-6.9,6.64-10.08c0.75,0.38,2.25,1.15,3,1.53c-6.3,10.82-14.21,20.97-24.6,28.12
		c-0.9301,24-4.9501,47.94-12.7001,70.7c-5.96,17.03-13.9,33.4-23.6599,48.59c-9.65,14.25-22.8401,27.64-40.1901,31.56
		c-21.6899,4.6-44.35,1.44-65.21-5.43c-17.13-5.9-33.8201-14.58-46.27-27.9901c-11.99-13.93-20.79-30.55-25.52-48.3199
		c-91.03,15.5-182.24,29.98-273.39,44.8199c-92.6,14.73-185.1799,29.54-277.84,43.88c-6.6901,41.23-21.22,81.54-44.97,116.06
		c-10.8401,15.16-22.24,30.23-36.73,42.12c-12.3301,10.28-26.79,18.1801-42.4401,21.9501c-8.13,2.01-16.48,2.9199-24.8099,3.58
		H1042.34c-21.11-1.3101-42.04-5.08-62.3799-10.87c-24.39-7.21-48.31-17.16-68.94-32.24c-11.93-8.63-21.56-19.9501-30.22-31.75
		c-10.82-14.4301-19.18-30.6901-24.38-47.96c-4.53-14.6801-7.14-29.88-8.62-45.15c-1.42,3.4099-2.97,6.76-4.52,10.11
		c-26.79,0.0699-53.51-1.9301-80.22-3.71c-81.5-6.4-162.65-16.48-243.74-26.7001c-12.79,16.01-27.73,30.28-44.15,42.51
		c-18.57,13.41-39.48,23.3201-61.16,30.55c-25.98,8.33-53.5,12.5399-80.78,10.4199c-28.33-2.08-56.1-11.13-80.2-26.1499
		c-23.24-14.38-43.05-33.8501-59.34-55.7001c-12.23-16.09-21.85-34.2-27.93-53.5c-8.49-1.42-16.99-2.76-25.46-4.27
		c1.88-2.6801,4.91-3.88,8.04-4.31c37.51,6.12,75.06,11.91,112.59,17.89c65.98,9.74,131.91,19.8,198.01,28.73
		c99.77,13.47,199.67,26.3199,300.02,34.62c26.83,1.71,53.66,3.97,80.58,3.99c8.01-15.83,13.81-32.65,19.46-49.44
		c7.26-22.34,13.65-44.96,20.76-67.34c1.44-5.05,3.54-9.94,4.15-15.18l-0.28-1.11c-7.08-2.46-14.64-0.88-21.91-2
		c4.6801-1.56,9.69-0.86,14.53-0.88c3.98,0.05,8.81,2.04,12.08-1.17c3.01-3.03,6.64-5.42,9.45-8.63c1.55-1.6,0.28-3.54-0.52-5.1
		c0.51-1.93,1.09-3.84,1.74-5.72c13.16-39.13,26.79-78.31,45.84-115.04c4.31-8.92,6.85-18.65,11.84-27.2401
		C972.31,712.09,991.98,689.73,1016.01,673.09 M987.36,727.44c-8.92,3.13-18.49,5.85-25.74,12.15c-4.8,7.8-7.1,16.85-10.92,25.1299
		C929.99,804.46,915.58,847.03,901.39,889.4c-1.57,4.74-6.38,6.99-9.51,10.53c-1.16,1.95-1.69,4.22-2.42,6.36
		c-5.06,16.32-10.12,32.65-15.02,49.01c-6.4,20.97-12.64,42.02-20.87,62.36c-0.46,1.29-1.17,2.58-1.09,4.01
		c1.28,12.04,2.34,24.15,4.99,36.0101c4.01,19.6,11.23,38.6699,22.4,55.35c9.58,14.11,20.31,27.85,34.13,38.0699
		c16.61,12.25,35.55,20.97,55,27.67c22.75,7.61,46.43,12.79,70.4,14.26c-3.5701-2.5601-7.88-3.65-11.7101-5.6901
		c-15.7299-8.0499-29.2-20.0499-40.0499-33.9c-21.48-27.4299-33.67-60.86-41.43-94.5c-5.7-25.9199-9.36-52.3499-10.18-78.9
		c-1.13-44.52,6.9399-89.39,24.6-130.34c13.7-31.61,33.05-61.2,58.75-84.36c16-14.23,34.65-26.14,55.55-31.52
		c20.2999-5.28,42.0099-2.36,61.47,4.81c8.2899,2.89,15.5399,7.91,23.28,11.92c-9.3401-9.68-21.51-16.1-33.66-21.56
		c-20.39-8.99-42.79-12.8-64.99-13.03C1036.04,715.7,1011.29,720.6,987.36,727.44 M1085.4,737.41
		c-7.72,1.34-15.3,3.4301-22.5601,6.39c-4.6,1.43-8.45,4.4-12.7999,6.35c-4.4301,2.44-8.88,4.91-12.8501,8.05
		c-6.6699,5.61-13.95,10.53-19.89,16.97c-10.75,10.08-19.36,22.1-28.19,33.81c-5.49,8.69-11.02,17.38-15.56,26.61
		c-2.67,6.22-6.32,12-8.36,18.48c-4.13,9.32-7.69,18.9-10.37,28.73c-7.68,23.32-11.11,47.77-12.83,72.18
		c-0.03,12.33-0.23,24.67,0.11,37c1.4301,14.02,2.35,28.13,5.03,42c2.29,10.02,2.95,20.4301,6.53,30.14
		c3.81,16.77,9.32,33.17,16.32,48.88c7.29,14.77,15.26,29.42,26.28,41.8c3.02,4.25,7.6,6.99,10.82,11.0699
		c2.68,3.4,6.71,5.28,9.91,8.13c3.51,3.0699,7.71,5.12,11.83,7.26c8.51,5.35,18.4,7.9,28.15,9.96
		c12.15,1.8101,24.8101,2.04,36.6901-1.5c6.83-1.64,13.0699-4.96,19.58-7.49c6.3101-3.5499,12.67-7.12,18.36-11.63
		c11.62-8.59,21.2101-19.48,31.0701-29.9199c3.4199-3.77,4.85-8.91,8.61-12.4c4.83-6.72,9.14-13.8301,13.2999-20.99
		c3.03-7.6001,7.79-14.3501,10.61-22.03c9.3201-22.54,16.6901-46,20.1901-70.19c0.53-2.67,1.29-5.3,1.47-8.02
		c0.84-12.07,3.6801-23.98,3.11-36.13c0.25-14.32-0.09-28.64,0.04-42.96c0.14-5.02-0.99-9.95-0.9399-14.95
		c0.1-8.07-1.77-15.98-2.1801-24.01c-2.02-13.62-3.53-27.38-7.27-40.68c-3.2-13.65-7.16-27.18-12.99-39.96
		c-4.33-8.78-8.05-17.99-14.3099-25.63c-4.3301-5.06-7.5601-11.03-12.54-15.51c-6.4501-6.7-14.13-12.02-21.8201-17.16
		c-8.0399-3.97-16.25-7.82-25.01-9.88C1110.75,736.87,1097.9301,736.25,1085.4,737.41 M172.98,960.42
		c0.94,6.1,4.11,11.53,6.31,17.22c2.76,7.18,7.44,13.34,11.02,20.1c10.33,15.31,22.4,29.4,35.64,42.24
		c6.17,5.6,12.28,11.36,19.38,15.78c5.1,3.66,9.92,7.86,15.8,10.27c8.08,5.0599,16.87,8.88,25.82,12.12
		c20.52,8.4299,43,11.1799,65.05,10.9299c3.69,0.01,7.33-0.73,11-0.9299c9.46-0.26,18.77-2.23,28-4.16
		c6.49-1.0599,12.85-2.78,19.06-4.9299c4.99-1.63,9.66-4.1901,14.87-5.14c5.17-0.67,8.97-4.5901,13.8-6.2101
		c6.39-2.27,11.88-6.3099,17.99-9.1599c2.89-1.67,5.4-3.92,8.37-5.4601c5.35-2.7999,9.4-7.4,14.48-10.6
		c5.59-3.5599,9.74-8.8199,14.7-13.14c3.95-3.51,7.49-7.44,10.75-11.59c2.67-2.23,5.2-4.64,6.9-7.71
		c-7.53-1.69-15.29-2.11-22.89-3.39c-3.48-0.75-7.14,0.26-10.52-0.98c-6.7-1.8-13.72-1.79-20.54-2.96
		c-9.7-1.99-19.61-2.7-29.38-4.29c-15.6-1.64-31.04-4.33-46.56-6.51c-7.06-0.68-14.05-1.92-21.03-3.12
		c-7.1-1.26-14.34-1.57-21.33-3.36c-11.1-1.48-22.23-2.83-33.24-4.91c-13.23-1.3101-26.28-3.94-39.46-5.63
		c-12.05-1.6801-23.99-4.09-36.06-5.61c-10.51-2.47-21.37-2.81-31.91-5.06C190.22,963.65,181.77,960.93,172.98,960.42z"/>
	<path stroke="#000000" stroke-width="0.394" d="M1909.5,761.11c1.67-4.73,6.95-6.41,11.51-6.81c4.3-0.45,9.41,1.07,11.38,5.26
		c1.51,3.74,1.76,8.21,0.03,11.92c-2.9801,3.8-8.6901,2.37-12.3501,0.37C1915.75,769.26,1911.09,766.16,1909.5,761.11z"/>
	<path stroke="#000000" stroke-width="0.394" d="M639.76,760.38c11.24-2.22,22.85-1.99,34.29-2.57c23.17-0.57,46.34,0.39,69.46,1.86
		c13.87,0.98,27.76,2.13,41.51,4.29c1.21,0.57,2.48,1.58,2.61,3.03c1.13,7.76-2.13,15.19-4.64,22.36
		c-9.34,0.34-18.64-0.77-27.97-0.84c-38.65-1.54-77.28-3.39-115.96-4c-8.6,0.26-17.29-0.6-25.8,0.92
		c-5.9,10.66-11.83,21.55-14.33,33.59c-0.97,3.99-1.1,8.15-2.43,12.06c-1.12-11.2,0.45-22.52,3.17-33.39
		c3.51-13.03,9.73-27.17,22.55-33.34C628.07,763.12,634.44,763.48,639.76,760.38z"/>
	<path stroke="#000000" stroke-width="0.394" d="M1884.59,794.48c1.66-4.29,3.5601-9.1,8.1-11.06
		c5.5601,1.4,6.4701,7.77,6.8301,12.6c0.76,11.19-2.8,23.67-11.87,30.81l-0.1901,0.49c-1.71,0.38-3.48,0.81-5.1,1.35l0.24-0.99
		c-2.7899-0.86-3.1799-4.26-3.13-6.72C1879.85,811.96,1881.47,802.95,1884.59,794.48z"/>
	<path stroke="#000000" stroke-width="0.394" d="M1088.99,824.85c6.6801-3.45,14.51-4.42,21.9301-3.64
		c5.96,0.7599,12.38,3.91,14.5699,9.88c1.5701,3.6,1.15,7.6,0.98,11.42l-0.7899-0.04c0.3199,2.32-1.6101,4.15-3.77,4.47
		c-9.03,1.88-18.16-1.49-25.91-5.94c-4.52-2.72-9.48-5.73-11.3199-10.97C1085.4301,827.81,1086.8,825.83,1088.99,824.85z"/>
	<path stroke="#000000" stroke-width="0.394" d="M1045.77,866.68c2.22-1.95,5.76-2.32,8.1699-0.49
		c3.52,2.83,4.9301,7.39,5.7301,11.67c1.35,7.11,0.4299,14.36-0.4401,21.47c-0.14,0.29-0.4199,0.88-0.5599,1.17
		c-3.78,9.17-9.5901,17.66-17.66,23.57c-2.38,1.67-5.0601,3.24-8.04,3.36c-2.3099,0.11-3.97-1.66-5.51-3.09
		c-0.8099-1.6801-0.8999-3.59-0.7999-5.41c0.9199-13.04,3.9199-26,9.4-37.9C1038.52,875.8,1041.34,870.52,1045.77,866.68z"/>
	<path stroke="#000000" stroke-width="0.394" d="M1877.08,870.15c0.8-0.58,1.65-1.14,2.52-1.67c2.88-0.1,4.85,2.21,6.34,4.39
		c3.6001,6.45,6.0701,13.65,6.66,21.04c0.03,5.71-0.83,12.22-5.47,16.11c-1.36-0.5-2.71-0.99-4.02-1.46
		c-2.79-4.06-4.09-8.87-5.02-13.63C1876.75,886.78,1875.48,878.35,1877.08,870.15z"/>
	<path stroke="#000000" stroke-width="0.394" d="M495.51,923.17c14.53,0.63,28.91,3.1,43.39,4.45
		c66.35,7.6,132.75,14.81,199.13,22.23c8.53,0.96,17.16,4.69,22.22,11.89c8.99,11.99,6.74,30.32-4.07,40.45
		c-6.37,6.12-15.52,8.56-24.19,7.96c-27.74-1.62-55.29-5.45-82.85-8.84c-53.72-7.26-107.36-15.16-161.04-22.78
		c0.15-1.76,0.32-3.51,0.48-5.25c4.84,0.1,9.59,1.16,14.41,1.65c6.84-9.74,8.8-22.16,8.37-33.82c-0.57-3.77-0.49-8.29-3.28-11.17
		c-4.24-0.83-8.58-1.1-12.86-1.62C495.31,926.59,495.41,924.87,495.51,923.17 M549.4,934.38c3.94,15.42,1.63,32.32-5.36,46.54
		c32.14,4.4,64.22,9.24,96.38,13.58c-4.9-8.13-4.24-17.98-3.67-27.06c0.82-8.71,5.37-17.3,12.94-21.91
		C616.23,942.21,582.82,938.19,549.4,934.38 M702.84,951.56c0.91,3.54,2.6299,6.85,3.19,10.49c1.11,5.92,0.81,11.98,0.75,17.98
		c0.0099,5.21-1.91,10.39-5.16,14.4399c-1.96,2.53-4.91,4.09-6.7,6.76c14.74,1.27,29.49,3.83,44.32,3.03
		c14.87-1.47,24.51-18.47,19.92-32.26c-2.3799-9.03-10.94-15.1-19.93-16.28C727.12,954.15,714.97,952.95,702.84,951.56z"/>
	<path stroke="#000000" stroke-width="0.394" d="M1900.5699,933.88c0.52-2.65,3.4301-3.66,5.38-5.11
		c5.9601,2.31,12.3101,0.93,18.4401,0.35c0.75,1.78,1.95,3.77,1.15,5.79c-2.26,5.29-8.2201,9.47-14.1001,7.64
		C1907.09,941.03,1902.12,938.51,1900.5699,933.88z"/>
	<path stroke="#000000" stroke-width="0.394" d="M1021.33,995.88c0.33-3.3,3.57-5.47,6.79-4.79c1.0601,0.7,2.13,1.39,3.22,2.09
		c6.61,7.08,11.5601,15.69,14.55,24.9c2.5699,6.85,1.99,14.39,0.58,21.43c-0.1899,0.0699-0.58,0.21-0.77,0.29
		c-0.4399,4.09-2.6699,7.6499-5.23,10.76c-1.36,0-2.7,0-4.03,0.0199c-8.3099-5.47-10.45-15.74-12.8599-24.7
		C1021.62,1016.06,1020,1005.89,1021.33,995.88z"/>
	<path stroke="#000000" stroke-width="0.394" d="M1077.22,1079.83c9.78,2.4701,19.9501,1.4701,29.78-0.12
		c1.77,2.2001,4.61,4.6901,3.45,7.8501c-1.6,3.34-4.37,5.9099-6.97,8.47c-4.13,0.95-8.1799,2.6-12.47,2.45
		c-4.62-0.12-9.05-1.6-13.5701-2.34c-3.6299-2.77-9.1299-4.92-10.1599-9.75C1069.23,1082.71,1073.86,1081.8101,1077.22,1079.83z"/>
	<path fill="#0F0F0F" stroke="#0F0F0F" stroke-width="0.394" d="M1818.89,205.12c7.0499,1.49,13.95,3.63,20.65,6.31
		c14.08,5.84,28.23,12.95,38.6599,24.35c6.0901,6.37,9.05,14.86,12.0801,22.95c2.89,8.4,6.08,16.7,8.61,25.22
		c13.01,41.86,24.36,84.22,34.38,126.89c1.91,8.95,4.15,17.97,4.15,27.17c0.1499,3.64-3.2201,6.06-6.49,6.51
		c-8.5801,1.33-17.28,0.24-25.9,0.22c-13.98-0.3-27.9601-0.86-41.92-1.68c-0.3199-1.66-0.61-3.32-0.87-4.97
		c20.59-0.06,41.25,1.99,61.8101-0.16c2.46-0.41,6.46-0.5,6.4099-3.94c0.39-8.72-1.5499-17.35-3.0699-25.89
		c-7.0601-34.12-16.26-67.76-25.98-101.21c-5.9601-19.53-11.78-39.13-19.17-58.18c-3.74-10.3-12.47-17.62-21.17-23.71
		C1848.11,216.33,1833.92,209.34,1818.89,205.12z"/>
	<path fill="#0F0F0F" stroke="#0F0F0F" stroke-width="0.394" d="M1323.59,279.75c0.8201-1.11,1.6901-2.2,2.5901-3.27
		c0.1899,1.82,0.2999,3.65,0.3099,5.48c-2.4399,23.58-8.05,47.13-5.98,70.95c1.11,8.68,2.88,18.22,9.51,24.51
		c0.1899,0.19,0.5699,0.58,0.77,0.77c0.6799,7.33,8.73,9.41,14.9099,9.38c21.1801,3.16,42.65-0.15,63.2101-5.44
		c22.09-5.73,43.65-13.7,63.86-24.34c10.74-5.88,21.63-12.29,29.64-21.75c5.0599,5.08,3.0499,12.56,2.9,18.92
		c-0.7101,9.34,1.1499,20.12-5.53,27.8c-2.28,3.33-6.49,3.97-10.14,4.77c-17.9401,3.62-35.7001,8.08-53.64,11.65
		c-5.29,0.98-10.62,2.14-16.02,1.69c-26.5-1.95-52.98-6.5-79.62-4.4c-5.83,0.58-11.7,0.42-17.52,1.12
		c-5.1899,0.33-10.9199,1.13-15.5499-1.81c-6.11-3.02-8.54-10.32-8.5801-16.71c-0.33-4.85,3.2001-8.62,4.3101-13.11
		c2.33-10.19,3.14-20.65,4.83-30.95c1.14-9.59,4.7101-18.62,7.23-27.89c1.87-7.24,4.6801-14.21,6.3501-21.51
		C1321.98,283.61,1322.36,281.48,1323.59,279.75z"/>
	<path fill="#0F0F0F" stroke="#0F0F0F" stroke-width="0.394" d="M1847.85,884.96c2.0701-0.17,4.1801-0.33,6.3-0.48
		c-4.4501,9.73-11.85,17.66-18.53,25.88c-1.45,1.8-2.76,3.7-4,5.64c-17.88,3.32-35.97,5.42-53.92,8.32
		c-49.71,7.32-99.3899,14.77-149.0499,22.44c-42.59,6.01-85.0701,12.83-127.59,19.27c-91.05,14.22-181.9501,29.4-273.1001,42.96
		c1.49-1.99,2.38-4.34,3.23-6.65c7.1901-10.85,9.5901-23.89,13.1801-36.19c0.41-2.02,2.59-2.69,4.14-3.67
		c3.39,0.87,6.89,0.47,10.27-0.35c0.2899-1.1,0.59-2.2,0.9-3.28c0.12,0.79,0.35,2.36,0.47,3.15c1.65,0.24,3.41,0.49,4.9299-0.44
		c52.5801-7.2,105.26-13.67,157.9701-19.89c96.6599-11.33,193.2699-23,289.8999-34.6c44.65-5.67,89.3501-11.08,133.8501-17.94
		C1847.12,887.72,1847.49,886.34,1847.85,884.96z"/>
	<path fill="#505262" stroke="#505262" stroke-width="0.394" d="M1340.51,223.39c1.45-2.49,3.37-4.74,6-6.03
		c-5.6901,13.11-10.78,26.49-15.38,40.01c-1.23-0.14-2.46-0.29-3.65-0.44c2.01-2.93,2.5801-6.48,3.12-9.91
		C1331.91,238.47,1335.92,230.62,1340.51,223.39z"/>
	<path fill="#535353" stroke="#535353" stroke-width="0.394" d="M1564.88,220.16c2.38,1.75,5.02,3.34,8.1,3.25
		c4.6901,0.08,9.48,1.53,14.0801,0.04c3.6599,36.8,7.0299,73.64,9.86,110.52c2.0199,27.32,4.1799,54.65,4.9199,82.04
		c0.38,11.26-1.7,22.5-0.7799,33.74c-15.3501-1.09-30.7201-2.14-46.04-3.65c-6.9401-0.84-13.97-0.17-20.87-1.39
		c-13.72-0.85-27.42-1.88-41.11-3.03c-7.04,0.15-13.9601-1.48-20.99-1.27c-7.91-0.43-15.8-1.18-23.6801-1.87
		c-12.79-0.84-25.5699-1.56-38.33-2.8c-21.74-1.08-43.39-3.46-65.13-4.46c-6.05-1.06-12.2201-0.52-18.27-1.47
		c9.42-6.96,17.78-15.33,27.66-21.65c8.7799,0.58,17.5499,1.4,26.35,1.55c7.0699,2.97,14.58,5.02,22.3099,4.97
		c7.87,0.25,15.63-1.19,23.37-2.41c4.9401,0.82,9.9601,1.04,14.9701,1.26c6.3999,1.83,13.11,1.75,19.6799,2.54
		c24.34,1.95,48.67,4.09,73.0601,5.41c15.7999,0.8,31.62,2.45,47.46,1.69C1576.09,355.49,1571.12,287.77,1564.88,220.16z"/>
	<path fill="#535353" stroke="#535353" stroke-width="0.394" d="M1592.89,225.25c11.1899,1.42,22.3199,3.33,33.5699,4.32
		c1.5801,12.52,3.28,25.03,4.78,37.55c5.4401,51.82,10.04,103.92,8.3201,156.08c1.6699,0.24,3.36,0.49,5.08,0.73
		c9.65,2.17,19.54,2.8,29.34,4.05c47.4401,4.78,94.91,9.48,142.52,12.24c-0.51-13.82-2.1899-27.55-3.61-41.29
		c-5.65-47.57-12.62-94.99-21.4401-142.08c3.66,0.94,7.3501,1.8,11.0701,2.51c11.71,60.11,22.66,120.37,33.5499,180.63
		c2.3,9.21,6.5901,18.03,6.5901,27.72c-47.2001-3.52-94.41-7.22-141.62-10.53c-9.3101-1.1-18.7201-0.91-27.99-2.4
		c-8.1001-0.46-16.1901-0.9-24.27-1.46c-11.64-1.41-23.41-1.38-35.04-2.82c-2.24-0.12-4.46,0.07-6.67,0.21
		c-1.7-9.17,0.4301-18.5,0.3401-27.74c0.36-16.02-1.15-32.01-1.89-48C1602.17,325,1597.9,275.08,1592.89,225.25z"/>
	<path fill="#535353" stroke="#535353" stroke-width="0.394" d="M1808.24,259.19c6.45,1.85,12.9301,3.71,19.61,4.62
		c0.66-0.55,1.35-1.1,2.0601-1.64c2.5,12.06,4.98,24.13,7.5,36.2c8.95,46.45,17.7799,92.93,24.83,139.72
		c0.26,1.65,0.55,3.31,0.87,4.97c13.96,0.82,27.9401,1.38,41.92,1.68c8.62,0.02,17.3199,1.11,25.9-0.22
		c3.2699-0.45,6.6399-2.87,6.49-6.51c0-9.2-2.24-18.22-4.15-27.17c-10.02-42.67-21.37-85.03-34.38-126.89
		c3.87,0.22,7.76,3.46,11.5599,1.6c1.42,1.85,4,2.95,4.38,5.48c12.11,48.3,24.4401,96.71,30.9301,146.16
		c1.4399,13.23,3.1,26.59,2.03,39.91c-1.8401-0.98-3.66-2.26-5.77-2.43c-25.6901-1.39-51.3101-3.61-76.98-5.42
		c-4.9301-0.43-10.23-1.98-14.89,0.43c-0.6-0.69-1.22-1.36-1.78-2.02c0.01-12.41-6.6-23.39-8-35.55
		C1829.9301,374.43,1819.4301,316.74,1808.24,259.19z"/>
	<path fill="#535353" stroke="#535353" stroke-width="0.394" d="M691.95,370.24c11.62-1.34,23.36,0.04,34.96-1.5
		c29.3701-0.37,58.75-0.23,88.1201-0.13c5.39,0.09,10.81-0.24,16.1899,0.38c8.5601,1.11,17.21,0.16,25.8,0.88
		c12.95,1.29,26.03-0.17,38.96,1.42c11.67,0.51,23.34,0.99,34.97,2.13c12.4,0.14,24.7,1.91,37.07,2.58
		c15.9,1.82,31.87,3.33,47.57,6.51c7.0699,1.23,14.05,3.32,20.2299,7.04c-0.2799,1.35,0.27,3.23-1.1699,4.06
		c-5.22,3.77-11.76,4.52-17.83,6.06c-20.72,4.69-41.83,7.33-62.83,10.43c-30.33,4.34-60.77,7.67-91.17,11.47
		c-4.93,0.42-9.88,0.72-14.79,1.43c-14.63,2.09-29.44,2.55-44.03,4.9c-14.03,1.2-28.06,2.5-42.03,4.3
		c-10.39,0.24-20.65,2.04-31.0099,2.88c-18.06,0.82-35.98,3.59-54.02,4.79c-9.9,0.64-19.68,2.56-29.61,2.64
		c-23.99,2.22-48.01,3.94-72.01,5.99c-7.73,0.72-15.43,1.9-23.21,1.96c-4.74,0.05-9.41,1.01-14.14,1.08
		c-14.37,0.65-28.67,2.21-43.03,2.91c-4.88-0.16-9.73,0.44-14.57,0.97c-15.12,0.87-30.41,2.12-45.47-0.1
		c-8.58-1.29-17.3-1.1-25.88-2.35c-5.14-0.8-10.36-0.26-15.51-0.92c-7.14-2.79-14.97-1.93-22.46-2.32
		c-15.01,0.33-30.13-1-45.02,1.39c-5.31,0.59-10.72-0.23-15.98,0.95c-9.54,2.48-20.14,0.69-28.98,5.71
		c-5.48,1.26-11.05,2.06-16.58,3.12c21.74-10.28,44.62-17.94,67.59-24.94c11.7-3.5,23.2-7.64,35-10.78
		c5.26,1.1,10.06-1.69,15.12-2.49c10.43-1.43,20.37-5.11,30.74-6.85c14.58-3.64,29.41-6.16,44.04-9.63
		c5.95-1.48,12.08-2.06,18.02-3.64c21.01-4.66,42.15-8.72,63.22-13.1c5.45-1.48,10.94-2.75,16.4901-3.78
		c17.95-4.74,36.2-8.35,54.71-9.97c10.62-1.82,21.52-0.86,32.07-3.23c3.17-0.09,6.33-0.39,9.49-0.68
		c6.33-0.61,12.71,0.14,19.03-0.75C677.28,369.95,684.65,370.86,691.95,370.24z"/>
	<path fill="#3F4895" stroke="#3F4895" stroke-width="0.394" d="M1323.59,279.75c0.8301-1.71,1.66-3.42,2.4301-5.16
		c1.84,10.07,2.54,20.31,4.09,30.43c1.8201,11.85,3.33,23.74,5.76,35.49c-1.92,1.75-3.25,4-3.92,6.5
		c-2.97,9.81-3.36,20.3-1.9299,30.41c-6.63-6.29-8.4-15.83-9.51-24.51c-2.0701-23.82,3.54-47.37,5.98-70.95
		c-0.01-1.83-0.12-3.66-0.3099-5.48C1325.28,277.55,1324.41,278.64,1323.59,279.75z"/>
	<path fill="#3F4895" stroke="#3F4895" stroke-width="0.394" d="M1991.8101,807.88c7.7699-0.65,15.5199-1.63,23.0499-3.79
		c0.13,0.73,0.39,2.18,0.53,2.91c-6.87,16.05-15.4501,31.92-28.9401,43.39c-0.08-5.43-0.49-10.95,0.8501-16.27
		C1989.35,825.48,1990.97,816.72,1991.8101,807.88z"/>
	<path fill="#070707" stroke="#070707" stroke-width="0.394" d="M754.95,341.25c48.64-2.26,97.35-2.65,146.04-2.4
		c24.71,0.37,49.49,0.24,74.11,2.65c44.57,6.79,88.98,14.58,133.42,22.16c20.4299,3.34,40.76,7.46,61.27,10.25
		c-0.05,0.38-0.15,1.15-0.2001,1.53c-27.8099-2.08-55.7-3.08-83.5299-4.88c-63.6501-3.21-127.29-6.69-190.9901-8.9
		c-25.66-0.59-51.32-1.29-76.99-0.78c-11.7,0.63-23.43,0.41-35.14,0.72c-53.68,1.27-107.33,3.71-160.94,6.75
		c-8.98-0.01-17.92,1.82-26.9,1.06c39.34-7.93,78.4901-16.87,118.04-23.76C726.96,343.21,740.94,342.01,754.95,341.25z"/>
	<path fill="#070707" stroke="#070707" stroke-width="0.394" d="M1853.0601,502.59c3.37,0.18,6.7599,0.39,10.1399,0.75
		c3.76,2.64,7.8501,5.34,9.8401,9.66c4.47,9.06,3.76,19.49,4.2799,29.3c1.3401,52.59,2.89,105.17,4.3101,157.75
		c0.28,9.32,0.39,18.66,1.08,27.97c4.13-8.04,6.73-16.78,10.92-24.81c0.45,0.31,1.36,0.94,1.8199,1.25
		c5.29-2.15,10.62-4.76,16.49-4.62c16.76-1.13,33.41,7.69,42.64,21.56c10.99,15.19,16.75,33.46,20.28,51.7
		c2.9501,17.14,5.53,34.47,5.1801,51.91c0.84,10.97,1.5,22,0.3099,32.98c-0.71,21.23-3.7999,42.5-10.64,62.67
		c-1.72,6.91-4.63,13.4301-7.8999,19.72c-2.2001,8.6-7.1101,16.11-11.7301,23.58c-9.09,13.92-20.1899,27.45-35.5499,34.66
		c-7.61,3.75-16.4601,3.08-24.5,1.34c-15.4601-4.46-26.27-17.5-34.3-30.7401c-8.5699-16.02-14.62-33.3799-17.6899-51.28
		c-0.4-2.65-1.29-5.19-2.42-7.58c6.6801-8.22,14.08-16.15,18.53-25.88c-2.12,0.15-4.23,0.31-6.3,0.48
		c2.75-12.7,6.1901-25.22,9.27-37.84c1.6801-7.95,4.51-15.7,5.09-23.85c1.05-10.2,3.4-20.22,5.05-30.33
		c2.52-13.99,5.58-27.88,9.13-41.65c1.16-4.34,0.83-8.86,0.5499-13.28c-1.72-65.36-3.6499-130.71-5.3799-196.07
		c-0.2001-7.65-0.0901-15.44-2.16-22.86c-1.14-4.2-4.01-7.91-8.0701-9.59C1858.28,507.63,1853.33,506.93,1853.0601,502.59
		 M1901.74,754.78c-8.28,7.11-13.89,16.75-18.34,26.59c-8.1901,18.88-12.36,39.4-13.47,59.87c-1.75,18.31-0.25,36.88,3.35,54.89
		c3.35,15.1,8.36,30.32,17.98,42.65c5.26,6.67,12.85,12.61,21.74,12.46c5.45,0.22,10.76-1.84,15.08-5.07
		c7.74-5.72,13.25-13.89,17.6901-22.31c9.75-19.17,14.29-40.56,16.1799-61.85c1.92-23.38,0.3501-47.18-5.96-69.82l-0.2,0.18
		c-3.4701-12.01-8.4301-23.91-16.5601-33.55c-5.11-5.87-12.15-11.07-20.26-10.97C1912.5601,747.62,1906.51,750.71,1901.74,754.78z"
		/>
	<path fill="#070707" stroke="#070707" stroke-width="0.394" d="M27.2,684.2c3.58,0.39,6.94-1.08,10.39-1.79
		c1.4,0.51,2.83,0.97,4.32,1.1801c24.7,2.95,49.38,6.08,74.06,9.14c4.59,0.46,9.3,2.81,11.22,7.22c2.4,5.66,3.36,12.74-0.04,18.2
		c-4.06,5.71-10.4,9.48-16.99,11.62c-0.75,27.19-0.66,54.41-0.43,81.6c-0.87-4.31-1.11-8.71-1.09-13.1
		c-1.21-0.4-2.42-0.79-3.62-1.17c0.01,4.76-0.24,9.52-0.7,14.26c-0.82-9.76-0.38-19.56-0.47-29.34
		c-0.14-17.66,0.45-35.31,0.45-52.97c-0.46-6.51-4.75-13.41-11.47-14.85c-5.51-1.37-11.19-1.85-16.79-2.71
		c-16.05-2.43-32.14-4.6-48.2-6.93c1.4-0.37,2.79-0.76,4.18-1.15c-3.88-0.25-7.88-0.34-11.49-1.96c-4.37-2.14-9.17-0.02-13.58,0.89
		c-0.57,2.94-2.75,4.94-5.31,6.27c0.72-2.92,0.86-6.42,3.31-8.51C11.55,693.76,19.14,688.51,27.2,684.2z"/>
	<path fill="#070707" stroke="#070707" stroke-width="0.394" d="M1085.4,737.41c12.53-1.16,25.35-0.54,37.5399,2.77
		c8.76,2.06,16.9701,5.91,25.01,9.88c7.6901,5.14,15.37,10.46,21.8201,17.16c4.98,4.48,8.21,10.45,12.54,15.51
		c6.2599,7.64,9.98,16.85,14.3099,25.63c5.83,12.78,9.79,26.31,12.99,39.96c3.74,13.3,5.25,27.06,7.27,40.68
		c0.41,8.03,2.28,15.94,2.1801,24.01c-0.05,5,1.08,9.93,0.9399,14.95c-0.13,14.32,0.21,28.64-0.04,42.96
		c0.5701,12.15-2.27,24.06-3.11,36.13c-0.1799,2.72-0.9399,5.35-1.47,8.02c-3.5,24.19-10.87,47.65-20.1901,70.19
		c-2.8199,7.6799-7.58,14.4299-10.61,22.03c-4.1599,7.1599-8.47,14.27-13.2999,20.99c-3.76,3.49-5.1901,8.63-8.61,12.4
		c-9.86,10.4399-19.4501,21.33-31.0701,29.9199c-5.6899,4.51-12.0499,8.0801-18.36,11.63c-6.51,2.53-12.75,5.85-19.58,7.49
		c-11.88,3.54-24.54,3.3101-36.6901,1.5c-9.75-2.0599-19.64-4.61-28.15-9.96c-4.12-2.14-8.3199-4.1901-11.83-7.26
		c-3.2-2.85-7.23-4.73-9.91-8.13c-3.22-4.08-7.8-6.8199-10.82-11.0699c-11.02-12.38-18.99-27.03-26.28-41.8
		c-7-15.71-12.51-32.11-16.32-48.88c-3.58-9.71-4.24-20.12-6.53-30.14c-2.68-13.87-3.6-27.98-5.03-42
		c-0.34-12.33-0.14-24.67-0.11-37c1.72-24.41,5.15-48.86,12.83-72.18c2.68-9.83,6.24-19.41,10.37-28.73
		c2.04-6.48,5.69-12.26,8.36-18.48c4.54-9.23,10.07-17.92,15.56-26.61c8.83-11.71,17.44-23.73,28.19-33.81
		c5.94-6.44,13.22-11.36,19.89-16.97c3.9701-3.14,8.42-5.61,12.8501-8.05c4.35-1.95,8.2-4.92,12.7999-6.35
		C1070.1,740.84,1077.6801,738.75,1085.4,737.41 M1048.34,833.48c-14.5699,15.64-24.92,34.8-32.12,54.82
		c-7.78,21.32-11.85,43.84-13.4,66.45c-1.43,19.95-0.09,40.08,3.48,59.76c4.37,22.61,12.07,44.88,24.98,64.08
		c8.75,12.62,19.95,24.42,34.2999,30.4501c12.7201,6.2799,27.9601,6.76,41.36,2.37l-1.0699-0.03c3.25-0.27,6.23-1.79,9.13-3.1801
		c16.4301-8.0199,29.25-21.85,39.1899-36.9299c11.02-16.88,18.5701-35.8101,23.63-55.27c5.7401-21.49,8.1801-43.8,8.1901-66.02
		c-0.41-25.98-4.3-52.23-13.97-76.45c-6.15-15.54-14.39-30.47-25.88-42.72c-11.52-12.21-27.01-21.77-44.1801-22.35
		C1081.22,807.21,1062.13,818.86,1048.34,833.48z"/>
	<path fill="#070707" stroke="#070707" stroke-width="0.394" d="M172.98,960.42c8.79,0.51,17.24,3.23,26.02,3.81
		c10.54,2.25,21.4,2.59,31.91,5.06c12.07,1.52,24.01,3.93,36.06,5.61c13.18,1.69,26.23,4.3199,39.46,5.63
		c11.01,2.08,22.14,3.43,33.24,4.91c6.99,1.79,14.23,2.1,21.33,3.36c6.98,1.2,13.97,2.44,21.03,3.12
		c15.52,2.18,30.96,4.87,46.56,6.51c9.77,1.59,19.68,2.3,29.38,4.29c6.82,1.17,13.84,1.16,20.54,2.96
		c3.38,1.24,7.04,0.23,10.52,0.98c7.6,1.28,15.36,1.7,22.89,3.39c-1.7,3.07-4.23,5.48-6.9,7.71c-3.26,4.15-6.8,8.08-10.75,11.59
		c-4.96,4.3201-9.11,9.5801-14.7,13.14c-5.08,3.2-9.13,7.8-14.48,10.6c-2.97,1.54-5.48,3.79-8.37,5.4601
		c-6.11,2.85-11.6,6.8899-17.99,9.1599c-4.83,1.62-8.63,5.54-13.8,6.2101c-5.21,0.95-9.88,3.51-14.87,5.14
		c-6.21,2.1499-12.57,3.87-19.06,4.9299c-9.23,1.9301-18.54,3.9-28,4.16c-3.67,0.2-7.31,0.9399-11,0.9299
		c-22.05,0.25-44.53-2.5-65.05-10.9299c-8.95-3.24-17.74-7.0601-25.82-12.12c-5.88-2.41-10.7-6.61-15.8-10.27
		c-7.1-4.42-13.21-10.1801-19.38-15.78c-13.24-12.84-25.31-26.93-35.64-42.24c-3.58-6.76-8.26-12.92-11.02-20.1
		C177.09,971.95,173.92,966.52,172.98,960.42z"/>
	<path fill="#434985" stroke="#434985" stroke-width="0.394" d="M556.52,379.6c3.64-6.48,6.99-13.15,11.29-19.23
		c-1.18,5.34-4.4,9.85-6.61,14.77c-1.38,2.56-2.78,5.84-5.93,6.51c-5.16,1.24-10.42,2.16-15.38,4.14
		c12.06,0.23,23.32-4.79,35.06-6.73c5.73-0.8,11.28-2.58,17.04-3.19c8.69-0.73,17.24-2.7,25.98-2.91
		c7.85-0.05,15.7401-2.59,23.52-0.47c-10.55,2.37-21.45,1.41-32.07,3.23c-18.51,1.62-36.76,5.23-54.71,9.97
		c-5.55,1.03-11.04,2.3-16.4901,3.78c-21.0699,4.38-42.21,8.44-63.22,13.1c-5.94,1.58-12.07,2.16-18.02,3.64
		c-14.63,3.47-29.46,5.99-44.04,9.63c-10.37,1.74-20.31,5.42-30.74,6.85c-5.06,0.8-9.86,3.59-15.12,2.49
		c18.37-5.7,37.2-9.64,55.87-14.21C467.52,400.72,512.26,391.16,556.52,379.6z"/>
	<path fill="#484C71" stroke="#484C71" stroke-width="0.394" d="M326.03,451.12c14.89-2.39,30.01-1.06,45.02-1.39
		c7.49,0.39,15.32-0.47,22.46,2.32c-3.99,0.18-7.95,0.74-11.92,1.1c-22.18-2.3-44.51-0.7-66.67,1.04
		c-11.34,0.62-22.54,2.67-33.85,3.59c8.84-5.02,19.44-3.23,28.98-5.71C315.31,450.89,320.72,451.71,326.03,451.12z"/>
	<path fill="#404890" stroke="#404890" stroke-width="0.394" d="M278.99,463.98c17.92-2.72,35.97-4.35,54.05-5.59
		c15.32-0.55,30.71-1.52,46.01,0.15c33.22,3.4,66.23,9,98.71,16.71c6.4,1.95,14.04,2.86,18.17,8.8c4.65,6.99,5.56,15.72,5.87,23.91
		c0.1,9.96,0.48,19.99-1,29.87c-3.11,21.5-7.4,42.8-11.29,64.17c-4.32,22.95-9.08,45.84-12.43,68.96
		c-1.4,11.72-2.85,23.43-4.31,35.14c-5.3,51.4-9.99,102.97-10.19,154.69c-11.18,0.95-22.39-0.14-33.58-0.05
		c-45.44-0.2-90.9-2.5-136.03-7.85c-42.11-4.59-83.96-11.81-124.94-22.59c-2.67-0.76-5.3-1.63-7.94-2.5
		c0.72-40.71,5.7-81.23,12.53-121.33c7.53-43.3799,17.72-86.36,32.06-128.02c6.39-18.9,13.14-37.68,20.57-56.2
		c4.43-11.12,8.41-22.44,13.68-33.2c3.47-6.8,7.88-13.49,14.54-17.53C261.11,466.69,270.27,465.5,278.99,463.98 M283.03,467.41
		c-10.7,1.75-22.21,3.58-30.61,11.04c-9.79,8.68-13.96,21.53-18.8,33.27c-8.28,21.63-16.53,43.29-23.67,65.33
		c-15.3,45.16-25.68,91.86-32.91,138.96c-5.37,34.74-8.9,69.81-9.4,104.99c28.93,10.51,59.46,15.48,89.74,20.31
		c46.96,6.75,94.25,11.34,141.66,13.22c19.44,0.58,38.92,0.86,58.32-0.83c-0.11-35.11,2.03-70.18,4.98-105.15
		c2.01-20.74,3.67-41.51,6.31-62.19c3.1-28.37,8.77-56.38,13.88-84.44c3.81-22.26,8.68-44.39,10.88-66.89
		c0.34-11.05,0.84-22.25-1.21-33.17c-1.21-6.61-3.95-13.38-9.47-17.53c-3.91-3.08-8.91-4.03-13.55-5.46
		c-14.58-3.82-29.37-6.75-44.19-9.43c-21.85-3.69-43.82-7.41-66.02-7.97C333.56,461.59,308.17,463.67,283.03,467.41z"/>
	<path fill="#000007" stroke="#000007" stroke-width="0.394" d="M283.03,467.41c25.14-3.74,50.53-5.82,75.94-5.94
		c22.2,0.56,44.17,4.28,66.02,7.97c14.82,2.68,29.61,5.61,44.19,9.43c4.64,1.43,9.64,2.38,13.55,5.46
		c5.52,4.15,8.26,10.92,9.47,17.53c2.05,10.92,1.55,22.12,1.21,33.17c-2.2,22.5-7.07,44.6299-10.88,66.89
		c-5.11,28.06-10.78,56.07-13.88,84.44c-2.64,20.68-4.3,41.45-6.31,62.19c-2.95,34.97-5.09,70.04-4.98,105.15
		c-19.4,1.69-38.88,1.41-58.32,0.83c-47.41-1.88-94.7-6.47-141.66-13.22c-30.28-4.83-60.81-9.8-89.74-20.31
		c0.5-35.18,4.03-70.25,9.4-104.99c7.23-47.1,17.61-93.8,32.91-138.96c7.14-22.04,15.39-43.7,23.67-65.33
		c4.84-11.74,9.01-24.59,18.8-33.27C260.82,470.99,272.33,469.16,283.03,467.41 M285.39,472.73c-9.75,1.76-20.36,2.77-28.37,9.21
		c-8.39,6.8-12.22,17.29-16.22,26.96c-13.69,34.88-26.48,70.17-36.67,106.24c-5.77,20.09-10.27,40.51-14.41,60.98
		c-8.92,46.46-15.51,93.54-16.26,140.9c13.67,4.95,27.86,8.22,42.06,11.23c45.34,9.2,91.41,14.09,137.45,18.07
		c32.84,1.92,65.8,4.58,98.69,2.15c0.17-32.52,2.16-65.0099,4.8-97.42c3.3-34.85,6.07-69.82,12.22-104.32
		c3.82-22.97,8.52-45.79,12.45-68.75c3.15-19.18,7.84-38.39,6.77-57.96c0.03-8.01-0.2-16.25-3.16-23.79
		c-1.68-4.26-4.93-8.08-9.37-9.55c-11.86-3.97-24.19-6.27-36.4-8.88c-22.8-4.37-45.74-8.27-68.89-10.22
		C341.76,466.28,313.42,468.88,285.39,472.73z"/>
	<path fill="#4B4D7F" stroke="#4B4D7F" stroke-width="0.394" d="M110.33,495.69c4.63-1.8,9.4-3.24,14.28-4.17
		c1.12,1.12,2.24,2.25,3.34,3.4c-0.51,0.01-1.55,0.04-2.07,0.05C120.69,494.16,115.47,494.81,110.33,495.69z"/>
	<path fill="#F5F5F5" stroke="#F5F5F5" stroke-width="0.394" d="M116.54,506.64c7.08-1.36,14.89,0.61,19.86,5.99
		c6.26,6.76,8.29,16.4,7.72,25.38c-0.93,20.14-8.11,39.58-18.01,56.99c-7.58,13.53-18.55,25.46-32.36,32.75
		c-7.67,3.99-17.16,6.4-25.42,2.73c-7.66-3.37-11.95-11.41-13.58-19.27c-2.59-12.67-0.83-25.92,3.2-38.1
		c5.89-17.22,14.22-33.97,27.01-47.13C93.6,517.08,104.08,508.99,116.54,506.64z"/>
	<path fill="#373275" stroke="#373275" stroke-width="0.394" d="M1272.78,518.03c35.78,0.12,71.5499,1.3799,107.2999,2.71
		c28.63,1.08,57.28,1.81,85.9,3.23c52.67,2,105.34,4.35,158,6.69c2,0.21,3.98-0.23,5.79-1.1299c2.5,5.45,2.3199,11.59,3.03,17.4399
		c1.1799,15.3101,1.71,30.67,1.88,46.04c0.4399,21.7-1.37,43.33-2.5901,64.98c-1.7799,26.01-3.4,52.03-5.1699,78.04
		c-1.7201,27.31-3.87,54.61-4.36,81.98c-0.16,8.21,0.25,16.45,1.83,24.54c-48.17,3.1-96.41,5.32-144.48,9.84
		c-12.4,1.17-24.73,2.83-37.02,4.8c-25.35,3.72-50.6801,7.58-75.83,12.48c-18.8701,3.49-37.67,7.58-56.03,13.22
		c-7.1,2.2-14,4.96-20.7001,8.16c-4.5299,0.13-9.0599,0.35-13.5399,0.99c-0.2201-7.04,0.5-14.05,0.4199-21.08
		c0.3301-58.01,1.3-116.01,1.6001-174.02c0.5499-25.97,0.5699-51.94,0.7899-77.92c0.04-23.01,0.5-46.03-0.1799-69.04
		C1278.91,539.08,1277.25,528.06,1272.78,518.03 M1556.28,556.19c-4.27,3.56-5.41,9.47-5.13,14.77
		c-0.04,4.9,1.74,10.13,5.8199,13.12c2.86,2.14,6.61,2.03,10.02,2.15c7.5701,0.03,15.14,0.12,22.71,0.15
		c1.66,4.56,4.0801,9.32,2.88,14.31c-0.9099,3.26-4.2799,5.28-7.5599,5.16c-4.17,0.29-7.88-1.83-11.38-3.75
		c4.28,8.55,14.67,10.9,23.46,10.63c4.52,0.1,9.0701-2.29,11.17-6.37c2.96-5.98,3.5699-12.93,2.4-19.44
		c-0.4801-2.82,2.74-4.21,3.63-6.61c2.76-6.25,3.1-13.73,0.4199-20.06c-1.3199-3.08-4.0499-6.04-7.65-5.89
		c-14.0499-0.19-28.09-0.01-42.13-0.09C1561.99,554.31,1558.64,554.1,1556.28,556.19z"/>
	<path fill="#373275" stroke="#373275" stroke-width="0.394" d="M1636.12,530.37c2.59,0.58,5.21,1.14,7.9,1.25
		c51.01,1.92,101.97,4.82,152.98,7.02c24.85,1.07,49.6801,2.75,74.5601,3.3c1.73,65.36,3.6599,130.71,5.3799,196.07
		c0.28,4.42,0.6101,8.94-0.5499,13.28c-3.55,13.77-6.61,27.66-9.13,41.65c-1.65,10.11-4,20.13-5.05,30.33
		c-9.0599,3.58-19.02,1.19-28.34,3.38c-2.05-0.13-4.08,0.05-6.01,0.61c-17.2,1.55-34.4,3.1-51.5699,4.86
		c-1.9601,0.19-3.88,0.38-5.78,0.74c-0.15,0.6-0.46,1.8-0.61,2.4c-0.3201,0.05-0.9501,0.16-1.26,0.21
		c-10.22-0.58-20.4301,0.38-30.62,0.92c-36,1.98-72,3.82-108,5.77c-2.8-14.22-1.48-28.77-1.3101-43.14
		c2.86-53.37,7.05-106.65,10.17-159.99c2.11-26.94,1.85-54,0.3-80.95C1638.39,548.83,1638.53,539.39,1636.12,530.37 M1809.46,568.41
		c-2.7799,5.9-2.75,13.14,0.1801,18.9901c1.21,2.53,3.51,4.77,6.4,5.16c7.7899,0.88,15.6499,0.5,23.48,0.67
		c1.0599,3.84,2.72,7.7,2.29,11.77c-0.1801,2.95-2.7201,5.63-5.7201,5.66c-3.4399,0.5-6.4099-1.49-9.38-2.8
		c2.52,5.94,9.16,8.65,15.25,8.99c3.55,0.45,7.7201,0.29,10.2101-2.7c5.2799-6.08,4.62-14.69,4.1799-22.17
		c5.52-5.29,6.0701-13.84,4.47-20.89c-0.7999-3.77-3.5299-7.84-7.7899-7.71c-12.05-0.11-24.0901-0.12-36.13-0.04
		C1813.61,563.17,1810.73,565.5,1809.46,568.41z"/>
	<path fill="#373275" stroke="#373275" stroke-width="0.394" d="M1877.3199,542.3c42.87,2.45,85.79,4.1,128.67,6.47
		c3.5601,0.02,7.92,1.57,10.73-1.44c0.37,0.62,0.78,1.25,1.2101,1.9c1.2,0.13,2.4299,0.27,3.6899,0.42
		c4.25,8.5699,6.92,17.9,7.97,27.41c1.36,12.66,0.17,25.38-0.1799,38.06c-1.03,12.96-1.5901,25.96-2.61,38.93
		c-0.5601,9.96-1.5701,19.9-1.5801,29.89c0.0701,4.39-0.6,8.93,0.64,13.2c3.25,1.78,7.23,1.66,10.4,3.63
		c3.15,2.48,1.84,6.91,1.6899,10.32c-1.38,15.24-4.34,30.28-7.58,45.22c-3.77,17.19-7.45,34.67-14.98,50.69
		c-0.14-0.73-0.4-2.18-0.53-2.91c-7.53,2.16-15.28,3.14-23.0499,3.79c3.49-33.94,3.25-68.69-5.2001-101.91
		c-2.6799-10.79-7.0499-21.05-11.54-31.18c-2.63-5.39-5.7999-10.59-9.9199-14.96c-5.39-5.7-13.27-9.39-21.1901-8.57
		c-10.7999,0.98-20.1,7.68-27.0499,15.62c-4.99,5.4-8.5,11.91-13.14,17.58c-3.1901,4.18-5.3301,9.02-7.62,13.73
		c-0.84,1.68-1.6901,3.35-2.52,5.02c-4.1901,8.03-6.79,16.77-10.92,24.81c-0.6899-9.31-0.7999-18.65-1.08-27.97
		C1880.21,647.47,1878.66,594.89,1877.3199,542.3 M1983.37,576.25c-2.29,6.07-2.52,12.89-0.84,19.14
		c1.63,5.69,6.13,10.32,11.78,12.11c-3.6201-5.12-5.6001-11.2-5.9301-17.44c-0.53-7.94,0.24-16.76,5.74-22.99
		C1988.9399,567.39,1985.09,571.66,1983.37,576.25z"/>
	<path fill="#EBEBEB" stroke="#EBEBEB" stroke-width="0.394" d="M750.46,523.61c9.56-1.81,19.87-0.52,28.21,4.68
		c9.92,5.98,16.16,16.66,18.8,27.73c3.63,14.72,1.39,30.2-3.08,44.48c-5.05,16.65-13.95,32.3-26.66,44.3
		c-10.58,10.11-23.85,18.17-38.6,19.92c-10.88,1.44-22.41-1.83-30.5-9.34c-9.05-8.29-13.53-20.47-14.75-32.45
		c-2.09-20.99,4.31-42.14,15.24-59.94C710.7,544.39,728.45,528.06,750.46,523.61z"/>
	<path fill="#000004" stroke="#000004" stroke-width="0.394" d="M1556.28,556.19c2.36-2.09,5.71-1.88,8.6599-1.92
		c14.04,0.08,28.0801-0.1,42.13,0.09c3.6001-0.15,6.3301,2.81,7.65,5.89c2.6801,6.33,2.3401,13.81-0.4199,20.06
		c-0.89,2.4-4.1101,3.79-3.63,6.61c1.1699,6.51,0.5599,13.46-2.4,19.44c-2.1,4.08-6.65,6.47-11.17,6.37
		c-8.7899,0.27-19.1799-2.08-23.46-10.63c3.5,1.92,7.21,4.04,11.38,3.75c3.28,0.12,6.65-1.9,7.5599-5.16
		c1.2001-4.99-1.22-9.75-2.88-14.31c-7.5699-0.03-15.1399-0.12-22.71-0.15c-3.41-0.12-7.16-0.01-10.02-2.15
		c-4.08-2.99-5.86-8.22-5.8199-13.12C1550.87,565.66,1552.01,559.75,1556.28,556.19 M1556.51,568.39c0.2,3.74,0.45,8,3.33,10.77
		c1.98,1.67,4.77,1.19,7.1901,1.38c12.84-0.0099,25.71,0.39,38.5499-0.23c5.5701-0.66,4.86-7.98,5.3501-12.12
		c-0.42-2.38-0.5801-4.99-2.0901-6.96c-1.0599-1.65-3.22-1.15-4.83-1.34c-13.6901,0.02-27.38-0.05-41.0601,0.02
		C1558.33,559.46,1557.22,564.95,1556.51,568.39z"/>
	<path fill="#000004" stroke="#000004" stroke-width="0.394" d="M1809.46,568.41c1.27-2.91,4.15-5.24,7.4401-5.0699
		c12.0399-0.08,24.08-0.07,36.13,0.04c4.26-0.13,6.99,3.94,7.7899,7.71c1.6001,7.05,1.05,15.6-4.47,20.89
		c0.4401,7.48,1.1,16.09-4.1799,22.17c-2.49,2.99-6.66,3.15-10.2101,2.7c-6.09-0.34-12.73-3.05-15.25-8.99
		c2.9701,1.31,5.9401,3.3,9.38,2.8c3-0.03,5.54-2.71,5.7201-5.66c0.4299-4.07-1.2301-7.93-2.29-11.77
		c-7.8301-0.17-15.6901,0.21-23.48-0.67c-2.89-0.39-5.1901-2.63-6.4-5.16C1806.71,581.55,1806.6801,574.31,1809.46,568.41
		 M1812.98,576.5c0.41,3.7,0.1901,9.77,4.92,10.66c10.65,0.48,21.35,0.35,32.02,0.15c1.39-0.22,3.38,0.3,4.1799-1.31
		c1.5801-2.62,1.5801-5.78,1.9501-8.72c-0.17-2.8701-0.8601-5.65-2.12-8.23c-11.9901-0.24-23.9901-0.14-35.9801-0.11
		C1813.8101,568.53,1813.74,573.66,1812.98,576.5z"/>
	<path fill="#333235" stroke="#333235" stroke-width="0.394" d="M1556.51,568.39c0.71-3.44,1.8199-8.93,6.4399-8.48
		c13.6801-0.0699,27.37,0,41.0601-0.02c1.61,0.19,3.77-0.31,4.83,1.34c1.51,1.97,1.67,4.58,2.0901,6.96
		c-7.51,1.97-15.3,1.11-22.9601,1.29C1577.48,569.38,1566.9301,570.03,1556.51,568.39z"/>
	<path fill="#373274" stroke="#373274" stroke-width="0.394" d="M1587.97,569.48c7.66-0.18,15.4501,0.68,22.9601-1.29
		c-0.4901,4.14,0.22,11.46-5.3501,12.12c-12.84,0.62-25.71,0.22-38.5499,0.23c-2.42-0.19-5.2101,0.29-7.1901-1.38
		c-2.88-2.77-3.13-7.03-3.33-10.77C1566.9301,570.03,1577.48,569.38,1587.97,569.48z"/>
	<path fill="#333334" stroke="#333334" stroke-width="0.394" d="M1812.98,576.5c0.76-2.84,0.8301-7.97,4.97-7.56
		c11.99-0.03,23.99-0.13,35.9801,0.11c1.2599,2.58,1.95,5.36,2.12,8.23C1841.6899,577.25,1827.27,578.21,1812.98,576.5z"/>
	<path fill="#373273" stroke="#373273" stroke-width="0.394" d="M1812.98,576.5c14.29,1.71,28.71,0.75,43.0701,0.78
		c-0.37,2.9399-0.37,6.1-1.9501,8.72c-0.7999,1.61-2.7899,1.09-4.1799,1.31c-10.67,0.2-21.37,0.33-32.02-0.15
		C1813.17,586.27,1813.39,580.2,1812.98,576.5z"/>
	<path fill="#404892" stroke="#404892" stroke-width="0.394" d="M43.75,613.72c1.72-1.1899,3.37-2.47,4.94-3.85
		c1.7,9.13,5.67,18.53,13.73,23.77c7.51,5.12,17.28,5.05,25.76,2.69c-6.52,3.54-13.6,6.87-21.22,6.44
		c-7.43,0.18-14.46-4.37-17.96-10.81C45.71,626.42,44.65,619.99,43.75,613.72z"/>
	<path fill="#3F4896" stroke="#3F4896" stroke-width="0.394" d="M659.25,628.77c7.23-0.45,14.01-4.05,18.78-9.45
		c0.61,14.86,5.78,30.29,17.08,40.42c8.53,7.82,20.36,11.62,31.85,10.79c7.77-0.22,15.1-2.98,22.31-5.65
		c-12.26,8.84-26.97,15.28-42.31,14.96c-11.25-0.01-22.48-4.39-30.58-12.23C665.88,657.55,660.43,643.07,659.25,628.77z"/>
	<path fill="#1D2049" stroke="#1D2049" stroke-width="0.394" d="M450.89,671.4c0.48-6.29,0.93-12.62,2.71-18.7
		c0.03,5.11-1.15,10.1-1.5,15.18C452.05,669.15,451.41,670.26,450.89,671.4z"/>
	<path fill="#333333" stroke="#333333" stroke-width="0.394" d="M1896.15,698.19c2.2899-4.71,4.4299-9.55,7.62-13.73
		c10.21,1.6,20.51,3.93,29.49,9.28c5.6899,3.56,11.5699,7.24,15.63,12.73c-8.4501-6.27-18.22-10.98-28.76-12.14
		C1911.95,693.02,1903.5601,694.64,1896.15,698.19z"/>
	<path fill="#333333" stroke="#333333" stroke-width="0.394" d="M987.36,727.44c23.93-6.84,48.6801-11.74,73.67-11.48
		c22.2,0.23,44.6,4.04,64.99,13.03c12.15,5.46,24.3199,11.88,33.66,21.56c-7.7401-4.01-14.9901-9.03-23.28-11.92
		c-19.4601-7.17-41.17-10.09-61.47-4.81c-20.9,5.38-39.55,17.29-55.55,31.52c-25.7,23.16-45.05,52.75-58.75,84.36
		c-17.66,40.95-25.73,85.82-24.6,130.34c0.8199,26.55,4.48,52.98,10.18,78.9c7.7599,33.64,19.95,67.0701,41.43,94.5
		c10.85,13.8501,24.32,25.8501,40.0499,33.9c3.8301,2.04,8.14,3.13,11.7101,5.6901c-23.97-1.47-47.65-6.65-70.4-14.26
		c-19.45-6.7001-38.39-15.42-55-27.67c-13.82-10.22-24.55-23.96-34.13-38.0699c-11.17-16.6801-18.39-35.75-22.4-55.35
		c-2.65-11.8601-3.71-23.9701-4.99-36.0101c-0.08-1.43,0.63-2.72,1.09-4.01c8.23-20.34,14.47-41.39,20.87-62.36
		c4.9-16.36,9.96-32.69,15.02-49.01c0.73-2.14,1.2599-4.41,2.42-6.36c3.13-3.54,7.94-5.79,9.51-10.53
		c14.19-42.37,28.6-84.94,49.31-124.6801c3.82-8.28,6.12-17.33,10.92-25.1299C968.87,733.29,978.44,730.57,987.36,727.44z"/>
	<path fill="#333333" stroke="#333333" stroke-width="0.394" d="M52.28,741.38c5.17-0.69,9.86,3.15,11.97,7.62
		c5.65,11.3,5.47,26.98-4.23,36.02c-2.78,2.41-6.82,3.75-10.39,2.41c-4.2-1.54-7.17-5.34-8.87-9.35
		c-3.69-8.93-3.44-19.53,1.04-28.13C43.93,745.85,47.55,742.13,52.28,741.38z"/>
	<path fill="#333333" stroke="#333333" stroke-width="0.394" d="M686.29,810.45c5.44-0.6,9.7,3.93,11.52,8.62
		c4.28,10.73,3.04,24.08-4.66,33c-3.06,3.3-7.88,5.99-12.44,4.35c-5.03-1.83-7.97-6.84-9.31-11.76c-2.31-8.58-1.09-18.14,3.45-25.79
		C677.41,814.83,681.25,810.86,686.29,810.45z"/>
	<path fill="#333333" stroke="#333333" stroke-width="0.394" d="M1833.87,826.65c9.3199-2.19,19.28,0.2,28.34-3.38
		c-0.58,8.15-3.4099,15.9-5.09,23.85c-3.08,12.62-6.52,25.14-9.27,37.84c-0.36,1.38-0.73,2.7599-1.0499,4.17
		c-44.5,6.86-89.2001,12.27-133.8501,17.94c-96.63,11.6-193.24,23.27-289.8999,34.6c-52.7101,6.22-105.39,12.69-157.9701,19.89
		c2.67-12.5,5.78-24.91,8.11-37.48c1.6801-9.45,4.0701-18.9,3.6901-28.57c3.0599-0.37,6.13-0.75,9.1801-1.31
		c113.0199-13.87,226.0699-27.52,339.1-41.3c-0.26,20.8-3.9701,41.34-6.67,61.91c1.79,0.17,3.62,0.35,5.46,0.54
		c3.12-20.94,6.5801-41.93,6.87-63.14c45.9301-5.58,91.87-11.22,137.8201-16.7401c0.3099-0.05,0.9399-0.16,1.26-0.21
		c1.8099-0.36,3.66-0.69,5.51-1.02c0.22-0.53,0.6599-1.59,0.88-2.12c17.1699-1.76,34.37-3.31,51.5699-4.86
		C1829.76,828.7,1832.29,828.53,1833.87,826.65z"/>
	<path fill="#333333" stroke="#333333" stroke-width="0.394" d="M1254.5699,929.69c1.8501-12.57,1.7201-25.35,3.9601-37.86
		c-0.05,1.56-0.0701,3.12-0.0601,4.7c4.23,1.35,8.5701-0.29,12.8201-0.77c0.1499,8.54-1.6901,16.92-3.28,25.27
		c-2.4301,12.67-5.17,25.3-8.33,37.8199c-0.3101,1.08-0.6101,2.1801-0.9,3.28c-3.38,0.82-6.88,1.22-10.27,0.35
		C1252.11,951.91,1252.87,940.66,1254.5699,929.69z"/>
	<path fill="#333333" stroke="#333333" stroke-width="0.394" d="M1777.7,924.32c17.9501-2.9,36.04-5,53.92-8.32
		c4.1,20.62,10.01,41.27,21.0601,59.33c7.83,12.91,19.1,24.27,33.5,29.55c-16.42-0.46-32.6801-4.07-47.89-10.2
		c-12.78-5.2-25.11-12.21-34.8101-22.15C1791.08,958.9,1782.38,942.11,1777.7,924.32z"/>
	<path fill="#070A2D" stroke="#070A2D" stroke-width="0.394" d="M622.22,764.35c5.42-2.61,11.5601-3.71,17.54-3.97
		C634.44,763.48,628.07,763.12,622.22,764.35z"/>
	<path fill="#777777" stroke="#777777" stroke-width="0.394" d="M1936.72,774.61c6.91,5.43,12.02,12.91,15.63,20.86
		c8.74,19.5,9.3201,41.46,7.7001,62.4301c-1.6801,19.29-5.78,39.12-16.65,55.48c-4.5601,7.07-11.23,12.57-19.01,15.74
		c-6.13,0.58-12.48,1.96-18.4401-0.35c-5.6499-2.53-9.5-7.56-12.7999-12.59c7.83,4.68,16.39,9.63,25.89,8.63
		c7.87-0.53,13.99-6.15,18.85-11.86c12.14-14.68,17.22-33.79,19.4399-52.36c1.88-19.06,2.42-38.89-4-57.21
		C1949.97,792.72,1944.1,782.96,1936.72,774.61z"/>
	<path fill="#777777" stroke="#777777" stroke-width="0.394" d="M1133.45,849.57c13.05,7.87,23.63,19.49,31.02,32.76
		c9.23,16.52,13.77,35.34,14.86,54.14c1.12,20.78-0.49,41.7401-5.0699,62.05c-4.66,19.58-12.35,38.84-25.0601,54.63
		c-10.5499,13.1899-25.21,23.9199-42.2,26.5599c-9.83,1.5901-20,2.5901-29.78,0.12c-11.0499-3.0599-19.89-10.9099-27.0599-19.5399
		c6.48,2.59,12.5699,6.1,19.23,8.2799c12.25,4.37,25.7,6.75,38.54,3.5701c14.25-3.34,25.88-13.1901,35.47-23.8201
		c10.51-12.1599,18.22-26.6099,23.16-41.8699c6.97-21.03,9.37-43.34,9.0199-65.41c-0.3199-17.6-3.6699-35.3-11.21-51.27
		c-4.5-9.92-10.54-19.14-17.73-27.31C1142.6801,857.73,1137.73,853.98,1133.45,849.57z"/>
	<path fill="#979797" stroke="#979797" stroke-width="0.394" d="M1937.92,786.73c1.4299-0.87,2.6,0.33,3.72,1.16
		c-3.1801,1.65-6.54,3.13-9.1,5.7c-5.3101,5.2-8.53,12.1-10.9601,19.0099c-4.2999,12.76-6.45,26.22-6.4399,39.6801
		c0.15,13.65,2.35,27.41,7.49,40.11c1.99,4.62,4.61,9.67,9.53,11.69c3.52,1.7,6.9099-1.12,10.1699-2.18
		c-0.1799,5.0099-6.23,6.46-10.22,5.17c-5.99-1.92-9.52-7.74-11.92-13.18c-5.2799-12.45-7.2699-26.05-7.8999-39.48
		c-0.05-16.69,2.5699-33.6,9.13-49.02C1924.89,797.83,1929.86,789.92,1937.92,786.73z"/>
	<path fill="#979797" stroke="#979797" stroke-width="0.394" d="M1479.91,852.39c48.0699-4.52,96.3099-6.74,144.48-9.84
		c0.49,3.42,0.77,6.88,0.77,10.35c-113.03,13.78-226.0801,27.43-339.1,41.3c1.4099-1.05,2.8199-2.13,4.2699-3.15
		c6.7001-3.2,13.6001-5.96,20.7001-8.16c18.36-5.64,37.1599-9.73,56.03-13.22c25.1499-4.9,50.48-8.76,75.83-12.48
		C1455.1801,855.22,1467.51,853.56,1479.91,852.39z"/>
	<path fill="#979797" stroke="#979797" stroke-width="0.394" d="M1125.02,874.05c4.7-3.08,9.98-6.08,15.79-5.93
		c0.48,1.44-0.4401,2.53-1.88,2.69c-14.9701,3.72-25.6001,16.51-32.4901,29.63c-8.21,16.62-13.2,34.86-14.8099,53.32
		c-1.85,18.97,1.17,38.32,7.3199,56.32c3.3501,8.98,6.9701,18.22,13.6001,25.3599c4.7,5.13,11.37,8.9701,18.5199,8.6101
		c4.4301,0.0599,8.1901-2.5801,12.13-4.24c-0.25,1.6299-0.49,3.47-2.2,4.21c-6.6,4.02-15.3,3.6699-21.97,0.01
		c-7.48-3.98-12.8-11.01-16.5901-18.42c-8.87-17.98-13.61-37.93-14.0699-57.96c-0.36-20.19,3.8-40.32,11.23-59.04
		C1104.97,895.22,1113.05,882.44,1125.02,874.05z"/>
	<path fill="#45497C" stroke="#45497C" stroke-width="0.394" d="M39.09,786.7c2.57,2.15,5,4.66,8.23,5.84c3.11,1.29,6.52,0.96,9.8,1
		c-3.32,1.3-6.89,3.33-10.55,2.09c-3.52-0.81-6.23-3.31-8.7-5.78C38.28,788.79,38.68,787.74,39.09,786.7z"/>
	<path fill="#000003" stroke="#000003" stroke-width="0.394" d="M680.4,801.52c5.56-1.14,11.42,0.71,15.55,4.55
		c6.8,6.31,10.26,15.71,10.21,24.91c0.1,11.68-3.37,23.99-11.84,32.38c-4.62,4.87-11.61,7.52-18.29,6.3
		c-6.4901-1.42-11.63-6.45-14.54-12.25c-7.32-15.27-5.07-35.03,5.95-47.98C670.77,805.52,675.27,802.43,680.4,801.52 M686.29,810.45
		c-5.04,0.41-8.88,4.38-11.44,8.42c-4.54,7.65-5.7599,17.21-3.45,25.79c1.34,4.92,4.28,9.9301,9.31,11.76
		c4.56,1.64,9.38-1.05,12.44-4.35c7.7-8.92,8.94-22.27,4.66-33C695.99,814.38,691.73,809.85,686.29,810.45 M669.24,854.09
		c-0.49,1-0.97,2.0099-1.45,3.02c2.06,2.93,4.71,5.63,8.2401,6.71c3.4399,1.44,7.05-0.05,10.37-1.13c-3.13-0.21-6.42-0.19-9.26-1.69
		C673.9,859.48,671.53,856.73,669.24,854.09z"/>
	<path fill="#A7A7A7" stroke="#A7A7A7" stroke-width="0.394" d="M1932.89,811.89c2.85-2.8,6.96-4.64,11.01-3.75
		c3.33,0.72,5.27,3.85,7.15,6.43c0.46,2.44,0.97,4.87,1.45,7.33c-1.8,1.59-3.84,2.9-6.1899,3.41
		c-0.9901-2.17-1.7301-4.5-3.2001-6.38c-2.97-2.49-7.73-1.92-10.35,0.81c-4.97,4.81-6.75,11.7-9.5701,17.79
		C1923.4301,828.31,1925.89,818.37,1932.89,811.89z"/>
	<path fill="#A7A7A7" stroke="#A7A7A7" stroke-width="0.394" d="M1120.01,910.93c6.66-7.3,16.45-12.65,26.58-11.39
		c5.99,0.68,10.8301,4.94,14.03,9.82c1.7,3.27,2.61,6.87,3.23,10.5c-3.5,2.97-7.52,5.5-12.27,5.54c-0.11-0.38-0.34-1.14-0.45-1.52
		c-1.62-3.41-3.03-7.57-6.75-9.2c-6.4401-2.63-14.17-1.21-19.4301,3.28c-8.22,6.63-12.25,16.66-16.99,25.78
		C1107.92,931.88,1112.2,919.88,1120.01,910.93z"/>
	<path fill="#0A0822" stroke="#0A0822" stroke-width="0.394" d="M1827.86,827.26c1.9301-0.56,3.96-0.74,6.01-0.61
		C1832.29,828.53,1829.76,828.7,1827.86,827.26z"/>
	<path fill="#00000E" stroke="#00000E" stroke-width="0.394" d="M1770.51,832.86c1.9-0.36,3.8199-0.55,5.78-0.74
		c-0.2201,0.53-0.66,1.59-0.88,2.12c-1.85,0.33-3.7001,0.66-5.51,1.02C1770.05,834.66,1770.36,833.46,1770.51,832.86z"/>
	<path fill="#97979A" stroke="#97979A" stroke-width="0.394" d="M1738.02,836.39c10.1899-0.54,20.4-1.5,30.62-0.92
		c-45.9501,5.52-91.89,11.16-137.8201,16.7401c-0.0499-3.37-0.35-6.72-0.7999-10.05C1666.02,840.21,1702.02,838.37,1738.02,836.39z"
		/>
	<path fill="#474C82" stroke="#474C82" stroke-width="0.394" d="M669.24,854.09c2.29,2.64,4.66,5.39,7.9,6.91
		c2.84,1.5,6.13,1.48,9.26,1.69c-3.32,1.08-6.9301,2.57-10.37,1.13c-3.53-1.08-6.1801-3.78-8.2401-6.71
		C668.27,856.1,668.75,855.09,669.24,854.09z"/>
	<path fill="#474B84" stroke="#474B84" stroke-width="0.394" d="M27.63,873.51c0.58-0.96,1.16-1.91,1.72-2.85
		c0.39,13.3,5.54,26.41,13.85,36.77c-0.91-0.01-1.81-0.01-2.71,0.01c0.08,1.58,0.15,3.16,0.27,4.76
		c-4.48-8.46-9.2-16.97-11.45-26.35c-1.23-4.59-2.54-9.15-3.66-13.7599C26.31,872.55,26.97,873.03,27.63,873.51z"/>
	<path fill="#454780" stroke="#454780" stroke-width="0.394" d="M1276.79,892.04c4.48-0.64,9.01-0.86,13.5399-0.99
		c-1.45,1.02-2.86,2.1-4.2699,3.15c-3.05,0.56-6.1201,0.94-9.1801,1.31C1276.85,894.64,1276.8101,892.91,1276.79,892.04z"/>
	<path fill="#787878" stroke="#787878" stroke-width="0.394" d="M1058.67,900.5c1.1499,1.55,0.26,3.47-0.0901,5.16
		c-2.49,8.34-7.84,15.79-14.72,21.09c-3.72,2.57-8.1799,5.21-12.87,4.25c-3.1899-0.92-4.51-4.47-4.4299-7.5l0.8999,0.84
		c1.54,1.43,3.2001,3.2,5.51,3.09c2.98-0.12,5.66-1.69,8.04-3.36C1049.08,918.16,1054.89,909.67,1058.67,900.5z"/>
	<path fill="#282932" stroke="#282932" stroke-width="0.394" d="M1226.25,1009.23c1.3-2.53,2.99-4.82,4.9399-6.89
		c-0.85,2.31-1.74,4.66-3.23,6.65L1226.25,1009.23z"/>
	<path fill="#424242" stroke="#424242" stroke-width="0.394" d="M1077.4399,1096.14c4.52,0.74,8.9501,2.22,13.5701,2.34
		c4.29,0.15,8.34-1.5,12.47-2.45C1096.59,1103.14,1084.87,1101.51,1077.4399,1096.14z"/>
</g>
</svg>
