<svg xmlns:rdf="http://www.w3.org/1999/02/22-rdf-syntax-ns#" xmlns="http://www.w3.org/2000/svg" height="600" viewBox="0 0 584.22827 600.00001" width="584.23" version="1.1" xmlns:cc="http://creativecommons.org/ns#" xmlns:dc="http://purl.org/dc/elements/1.1/">
 <g transform="translate(1892.5 -867.88)">
  <path d="m-1576.3 1310.2c-6.209-1.1567-15.983-7.077-20.859-14.702-3.1749-5.1964-3.8759-17.311-3.7223-23.102.019-1.1951.1082-2.3678.2727-3.5089 14.672-54.034 59.394-106.65 51.189-158.25-.2413-14.416.3054-33.222-4.2957-47.105-35.971-77.965-94.621-128.67-176.98-131.63-41.43-3.7437-87.902 9.4015-121.11 40.461-54.96 58.254-45.988 145.4-2.1037 199.31.019.021.035.042.053.063 6.2895 8.1098 24.443 16.378 35.556 23.88 11.366 5.1601 27.942 26.134 41.131 24.265 1.2325-.186 1.0784-1.5036 1.6252-2.2461 9.8467-11.393 15.099-31.222 27.064-39.509 17.585 2.1776 33.889 24.854 38.36 37.006 10.653 21.777 8.7569 44.186 9.8606 66.699 6.9498 31.339 17.675 63.753 52.719 95.955 14.294 8.0872 25.859 16.451 41.343 19.137 3.7349-1.2856 36.795 2.1088 35.36-2.3995-6.7367-26.446-19.358-57.17-5.4678-84.329" fill-rule="evenodd" stroke="#000" stroke-width="5.0389" fill="#a40"/>
  <path d="m-1741.4 933.59c69.163 5.1985 94.009 20.135 118.7 48.608 18.001 17.446 25.083 40.492 31.32 62.68 32.233 100.48-28.048 165.47-15.363 237.29 1.8732 14.897 7.0436 23.906 18.334 31.486 15.216 10.161 34.282 18.306 32.221 15.093-3.2255-27.562 15.946-2.0527-18.083-13.99-6.2091-1.1566-20.591-11.684-25.466-19.31-3.1749-5.1964-3.876-17.311-3.7224-23.102.019-1.1952.1084-2.3674.2729-3.5086 14.672-54.034 59.394-106.65 51.189-158.25-.2413-14.416.3055-33.222-4.2955-47.104-35.971-77.965-92.828-126.37-175.19-129.33-3.2769-.2961-6.5856-.48563-9.9164-.56992z" fill-rule="evenodd" fill="#803300"/>
  <path d="m-1451.6 1441.1c0-12.774-4.3776-27.865-13.16-36.805-9.9015-10.078-18.658-14.052-34.744-14.763-12.438-.5493-20.072.6789-29.072 5.2229-8.5355 4.3087-15.459 12.851-20.119 22.382l-4.7313 9.6768-8.3738-12.397c-12.238-18.118-16.666-45.016-20.242-73.507-1.8928-15.078-.9293-68.172 1.1543-85.77 4.7316-39.959 11.25-73.772 22.166-112.61 5.0554-17.986 17.049-54.464 23.875-70.188l5.7391-13.22 5.6464 4.6088c6.7755 5.5307 19.094 13.085 24.766 15.66 13.131 5.9627 42.068 8.5025 65.74 6.5394 29.04-2.4084 37.423-7.6038 58.742-20.079l8.1883-5.9766 5.5779 13.606c6.7263 16.407 19.61 51.562 24.7 69.702 32.341 115.24 37.126 222.58-1.4262 276.68l-5.0183 7.0408-2.4872-6.6003c-5.8335-15.481-18.509-25.884-34.411-29.256-34.675-7.3472-61.164 15.234-64.363 49.368-.5776 6.164-2.9402 4.6809-4.4384 4.6809-1.4648 0-3.7089-.2469-3.7089-3.9947z" fill="#a40"/>
  <path d="m-1557.1 933.28c-5.0664-11.17-11.244-31.07 2.8974-42.737 17.973-14.829 24.061-9.9427 24.061-9.9427s27.309 17.8 22.232 19.93c-17.536 7.3591-21.625 10.527-33.912 18.826" stroke="#000" stroke-width=".19236px" fill="#520"/>
  <path d="m-1338.9 933.24c5.0655-11.17 11.244-31.07-2.8969-42.737-17.973-14.829-24.061-9.9434-24.061-9.9434s-27.309 17.8-22.232 19.93c17.536 7.3591 21.625 10.527 33.912 18.826" stroke="#000" stroke-width=".19236px" fill="#520"/>
  <path d="m-1408.6 1458.7c-1.682-3.5564-1.962-15.076-.7436-20.758.5602-2.6127.8552-4.8985.5554-5.6798-.7519-1.9593-2.4375-1.1569-3.0637.8536-1.5844 5.0866-2.1514 15.06-1.3223 20.794.4969 3.4366 1.9752 8.0905 1.9853 8.5424.029 1.323-12.88-.7349-17.464-2.7625-5.5502-2.4551-8.629-5.5291-10.709-10.347-4.9725-11.519 1.2004-33.582 12.565-44.675 17.23-16.817 50.593-16.234 68.44.2173 3.9892 3.677 3.828 4.6651 3.8211 11.253-.01 6.1478-1.979 17.583-2.7671 21.664-.5824 3.016-1.8543 4.5561-3.8694-1.4279-.9438-2.8026-1.7798-3.9778-3.142-3.9778-2.9011 0-1.364.321.7731 6.4964 1.0647 3.0765 1.3632 7.3525 1.3632 8.0027 0 1.769-10.762 11.558-14.986 13.777-4.3805 2.3014-9.6322 3.3149-7.8179-.5233 5.0845-10.757 1.2554-35.955-2.4224-36.651-2.9828-.5645-1.3977.4487.3224 7.2968 1.9174 7.6333 1.911 19.759-.015 26.622l-3.3097 5.7094h-7.596c-7.3777 0-9.0213-.073-10.19-2.5451z" fill="#a40"/>
  <path d="m-1525.1 1462.1c-3.3404-.3061-3.1816-.7495-5.1209-4.1764-2.6918-4.7563-4.7371-13.036-2.4013-18.829.8764-2.1736 4.3596-5.0577 3.7336-6.1926-.347-.6294-.5923-1.5046-1.8152-1.3117-2.16.3407-1.468.986-3.3287 6.1927-1.7018 4.762-2.648 7.1342-2.3436 12.262.2115 3.563 1.3868 7.1455 1.866 7.9822 2.7254 4.7586-2.0563 3.787-7.096.4049-3.3392-2.241-6.6218-5.7469-7.805-8.8498-6.2291-16.335 5.3341-44.998 22.757-53.454 17.882-8.6791 47.797-6.5556 56.445 8.0688l3.4993 3.2755.3821 11.855c.4781 14.833-3.9006 26.003-10.384 31.954l-4.7006 4.3142.064-9.5446c.022-3.2701-1.621-7.6189-2.2808-10.164-1.0257-3.9574.683-3.8912-1.244-3.8912-2.0752 0-1.0146 0-.8791 3.8373.5387 15.257.7727 18.04.1678 20.722-.6009 2.665-1.9753 3.7389-6.4031 5.0262-2.7444.7978-7.2556 1.645-9.137 1.5706-4.42-.1748-3.8147.1149-5.8078-4.9725-1.9033-4.8582-3.0158-22.263-.5027-28.635 2.1604-5.4785 2.611-6.6084-.4955-6.2446-2.1569.2524-1.2291 1.0589-2.6335 6.3827-1.9907 7.546-1.9017 22.09-.2501 28.106l1.543 5.6205-5.9414-.6847c-2.699-.311-7.8034-.4336-9.8873-.6246z" fill="#a40"/>
  <g fill="#803300">
   <path d="m-1343.5 1430.3c-4.3263-10.514-12.253-24.565-10.548-26.885 20.18-27.448 20.335-72.148 21.326-89.741 2.0608-36.606-5.8786-144.13-26.344-202.99-8.7109-25.057-20.735-43.436-18.616-44.402 13.426-6.1143 12.756-8.8106 12.756-8.8106 20.71 50.653 48.09 150.43 51.37 194.43 4.9638 66.585.5862 109.78-10.08 141.68"/>
   <path d="m-1457.4 1414.6c4.5755-1.7556 11.906-2.3828 19.758-.2595-.7627 6.9736-1.7666 30.719-10.12 31.75-8.6614 1.0685-11.814-32.696-19.639-31.491"/>
   <path d="m-1394.4 1463.9c13.444-2.6093 19.239-1.6251 31.587-17.286 9.803-12.433 6.708-39.789 6.708-39.789s22.191 16.499 9.2757 47c-5.0781 11.992-16.072 8.4448-30.902 10.728"/>
   <path d="m-1510.5 1464c13.444-2.6093 23.983-1.5433 36.331-17.204 9.803-12.433 5.89-42.98 5.89-42.98s26.118 19.362 13.202 49.863c-5.0781 11.992-19.181 8.7721-34.013 11.055"/>
   <path d="m-1409.7 1079.3c15.757-9.0875 51.367-50.905 61.839-69.496 21.68-38.488 17.176-70.873 17.176-70.873s27.05 32.927 1.8719 75.227c-6.6608 11.191-38.978 45.463-57.048 57.927"/>
  </g>
  <path d="m-1501.4 1075.5c-12.574-6.5094-30.181-19.514-42.71-32.719-7.3889-7.7851-11.276-12.219-16.335-19.789-10.66-15.941-18.211-35.843-17.517-50.016.5568-11.374 6.2476-25.889 11.236-32.891-8.2151-18.781-10.002-37.774 4.6186-53.672 19.261-21.012 41.253-21.304 58.465 1.2297 6.5667 7.7879 6.1013 9.9718 7.6452 9.9702 33.656-14.992 69.801-11.076 96.127-1.6183 20.861-26.789 36.186-32.343 57.991-18.424 28.268 23.637 20.023 43.548 13.493 63.754.8852 2.0065-.7749 15.143-1.474 21.388-1.9632 17.538-8.4283 38.266-17.308 52.018-11.706 18.129-37.684 52.483-53.708 64.482-2.9034 2.1739-29.709 5.112-42.522 5.4972-25.756-1.7434-35.053 2.2174-57.989-9.2093zm59.727-55.524c8.2144-2.8438 19.279-12.893 15.231-21.375-7.2542-10.829-36.491-10.448-44.208.53076-3.5552 10.924 10.576 19.813 18.088 21.566 5.5284 1.0576 6.0882.6554 10.889-.722zm73.981-57.002c1.0251-45.385-60.65-43.415-61.06-2.2319-1.384 38.23 56.546 46.72 61.06 2.2319zm-99.176 5.6596c9.6519-38.046-42.774-55.479-57.923-22.114-17.973 46.574 45.396 65.291 57.923 22.114zm-42.038-69.301c-5.1076-10.08-18.362-21.242-31.917-16.634-28.672 13.512-23.814 36.874-16.006 48.951 13.161-12.574 31.61-25.552 47.922-32.32zm167.39-6.6207c-7.131-7.1674-16.641-13.564-26.915-9.5238-5.7229 2.4159-12.261 8.3273-17.053 15.846 13.357 5.8885 31.39 15.915 46.562 31.585 7.7535-11.796 9.1589-26.363-2.5928-37.907z" fill="#a40"/>
  <path d="m-1446.5 991.11c-.2978.005-.5955.0114-.8933.0206-.4352.0389-.4581.0458-.8474.0504-9.345-.0321-18.369 2.4851-22.378 7.6821-4.6267 6.0307 6.3445 20.234 19.766 22.446 1.6491.3321 4.6266.2405 6.0925-.01 13.422-2.2126 24.393-16.413 19.744-22.446-3.8479-5.0023-12.437-7.8562-21.484-7.7439z" stroke="#000" stroke-width="5.0318"/>
  <g transform="matrix(.22904 0 0 .22904 -1754 867.88)">
   <path d="m1329.4 950.22c-17.9-.06-29.2.72-29.2.72-1 .19-1.9.56-2.9 1.12-57.7 4.42-135 19.28-173 65.14-89.067 112.97-112.01 401.53-137.46 603.2-5.16 3.5-35.28 228.6 1.54 376.7 50.62 203.7 198.72 224.2 313.72 224.4l35.8.1h.1.3l29.4-.2c115-.2 263.1-20.7 313.8-224.5 36.8-148 6.7-373.1 1.5-376.6-27.441-237.85-41.759-501.95-137.5-603.2-38.1-46.03-115.7-60.83-173.5-65.19-.8-.41-1.6-.69-2.4-.85 0 0-11.2-.75-29.2-.68 0 0-.1-.01-.2 0-3.8-.09-7.5-.15-10.8-.16z" fill="#ff7f2a"/>
  </g>
  <path d="m-1447 887.89c-26.473-.85341-40.715 6.6924-48.447 8.2531-4.7636.96138-25.511-49.109-64.787-11.802-26.079 24.771-4.3607 54.137-6.366 56.406-8.639 9.7712-11.776 27.925-10.575 40.337 4.4881 33.369 26.846 58.271 48.678 76.319 0 0 20.458 17.164 34.526 21.645 19.486 6.207 47.98 5.8048 47.98 5.8048" stroke="#000" stroke-linecap="round" stroke-width="5.2707" fill="none"/>
  <ellipse stroke-linejoin="round" stroke-linecap="round" rx="31.203" ry="31.858" stroke="#000" cy="960.89" cx="-1497.1" stroke-width="5.0321" fill="#fff"/>
  <g stroke="#000" stroke-width="5.0318" stroke-linecap="round" fill="none">
   <path d="m-1508.7 898.96c-15.598-21.521-30.586-24.031-47.98-3.6088-11.04 12.963-5.4977 25.456-.3834 37.21"/>
   <path d="m-1556.9 932.5c8.7328-8.2847 14.952-14.975 25.937-21.765 12.896-7.9709 22.487-10.954 22.487-10.954"/>
   <path d="m-1529.9 1056c-53.282 129.98-78.784 290.13-23.807 373.77"/>
  </g>
  <g transform="matrix(.22904 0 0 .22904 -1667.2 785.51)">
   <g stroke="#000" stroke-linecap="round" transform="matrix(.80365 0 0 1 -99.461 71.429)" fill="none">
    <path d="m1017.2 2895.2c-146.21-1.9087-246.94-.3584-268.07-81.379-22.732-87.173 55.009-246.83 272.48-242.76" stroke-width="24.506"/>
    <path d="m1018.5 2895c146.21-1.9087 246.94-.3584 268.07-81.379 22.732-87.173-55.009-246.83-272.48-242.76" stroke-width="24.506"/>
    <path d="m697.14 2790.7c-37.143 101.43 4.2857 171.43 4.2857 171.43" transform="matrix(1.2443,0,0,1,123.76,-71.429)" stroke-width="21.969"/>
    <path d="m865.27 2755.7c-28.231 43.781-32.984 91.442 7.1104 130" stroke-width="24.506"/>
    <path d="m1113.5 2756.4c13.122 35.21 17.875 88.585-7.1104 130" stroke-width="24.506"/>
   </g>
  </g>
  <g transform="matrix(.15064 0 0 .22503 -1135.1 1131.5)">
   <path fill="#a40" d="m-2353.7 466.01c-12.026-4.1713-8.0656-8.5614-12.729-26.036-2.9652-11.112-5.4459-28.406-4.2779-36.581 2.6525-18.564 1.3483-24.817-10.787-18.323-6.4889 3.4728-.7738 7.0148-4.4308 29.286l3.3698 39.254-27.954-25.082c-41.781-37.49-68.619-174.01-52.629-231.74 10.443-37.697 49.682-77.45 94.551-94.263 55.303-20.722 165.2-9.7479 203.04 19.594 10.096 7.828 8.081 13.426 7.6645 81.271-.4642 75.612-10.414 130.77-26.25 165.17-14.971 32.52-24.431 47.107-31.525 37.55-4.7987-6.465-2.3803-19.804-8.2407-16.225-5.262 3.2138-2.4367 10.498-4.1982 28.618-2.7495 28.285-14.712 48.843-42.057 50.458l-19.754 8.1179-7.1616-29.161c-4.5382-18.479 2.3701-49.13 9.5882-84.818 2.1927-10.842 4.7463-12.653-3.0979-15.142-6.5039-2.0642-6.1459-1.9024-9.7172 2.9816-8.1074 11.088-10.778 65.468-8.5955 99.246 2.7559 42.651 2.4038 33.426-31.173 21.376z"/>
   <path d="m-2329.5 483.58c58.592-16.2 83.892-10.1 137.38-107.1 42.462-77.017 28.284-246.48 28.284-246.48s91.961 35.318 36.366 224.25c-21.859 74.284-64.65 119.2-129.3 133.34" fill="#803300"/>
   <g transform="translate(-3143.3 -1455.8)" stroke="#000" stroke-linecap="round" stroke-width="21.969" fill="none">
    <path d="m860.01 1538.7c-107.12-.8047-203.8 53.698-189.33 182.92 18.912 168.88 79.186 217.41 190.58 222.75"/>
    <path d="m845.22 1935.7c-17.95-64.083 4.2857-125.97 4.2857-125.97"/>
    <path d="m776.81 1924.7c-8.1274-30.649-14.559-42.147-9.3366-77.328"/>
    <path d="m903.86 1933.2c10.617-24.618 18.232-43.618 16.581-82.869"/>
    <path d="m850.74 1538.5c107.12-.8047 203.8 53.698 189.33 182.92-18.912 168.88-79.186 217.41-190.58 222.75"/>
   </g>
  </g>
  <path d="m-1448.2 887.97c26.473-.85341 40.715 6.6924 48.447 8.2531 4.7637.96138 25.511-49.109 64.787-11.802 26.079 24.771 4.3608 54.137 6.366 56.406 8.6391 9.7712 11.776 27.925 10.575 40.337-4.4881 33.369-26.846 58.271-48.678 76.319 0 0-20.458 17.164-34.526 21.645-19.486 6.207-47.98 5.8048-47.98 5.8048" stroke="#000" stroke-linecap="round" stroke-width="5.2707" fill="none"/>
  <ellipse stroke-linejoin="round" stroke-linecap="round" rx="31.203" transform="scale(-1,1)" stroke="#000" ry="31.858" cy="960.97" cx="1398.2" stroke-width="5.0321" fill="#fff"/>
  <g stroke="#000" stroke-width="5.0318" stroke-linecap="round" fill="none">
   <path d="m-1386.6 899.04c15.598-21.521 30.586-24.031 47.98-3.6088 11.04 12.963 5.4977 25.456.3833 37.21"/>
   <path d="m-1338.3 932.57c-8.7327-8.2847-14.952-14.976-25.937-21.765-12.896-7.9709-22.487-10.954-22.487-10.954"/>
   <path d="m-1365.3 1056.1c53.282 129.98 78.784 290.13 23.807 373.77"/>
  </g>
  <g transform="matrix(-.22904 0 0 .22904 -1228 785.58)">
   <g stroke="#000" stroke-linecap="round" transform="matrix(.80365 0 0 1 -99.461 71.429)" fill="none">
    <path d="m1017.2 2895.2c-146.21-1.9087-246.94-.3584-268.07-81.379-22.732-87.173 55.009-246.83 272.48-242.76" stroke-width="24.506"/>
    <path d="m1018.5 2895c146.21-1.9087 246.94-.3584 268.07-81.379 22.732-87.173-55.009-246.83-272.48-242.76" stroke-width="24.506"/>
    <path d="m697.14 2790.7c-37.143 101.43 4.2857 171.43 4.2857 171.43" transform="matrix(1.2443,0,0,1,123.76,-71.429)" stroke-width="21.969"/>
    <path d="m865.27 2755.7c-28.231 43.781-32.984 91.442 7.1104 130" stroke-width="24.506"/>
    <path d="m1113.5 2756.4c13.122 35.21 17.875 88.585-7.1104 130" stroke-width="24.506"/>
   </g>
  </g>
  <g transform="matrix(.15073 0 0 .22504 -1153.5 1131.4)">
   <path fill="#a40" d="m-1781.4 467.81c-4.7908-7.7519-16.139-52.629-16.139-66.6 0-15.412 1.9757-15.939-9.6114-11.493-6.9423 2.664-6.8652 36.682 1.2221 61.183 7.5704 22.935-3.172 16.529-18.611 8.5452-35.264-18.236-74.95-76.173-88.688-147.87-17.474-91.2.7038-152.31 55.441-189.68 31.42-21.451 61.22-32.736 121.82-32.568 59.207.1644 95.588-3.723 119.4 33.264l16.013 15.355 3.3164 75.222c1.6759 38.012-9.8858 81.077-13.402 97.141-7.6924 35.143-25.566 77.418-32.473 76.524-12.812-1.6573-15.127-2.6779-15.127 13.091 0 14.217-2.9724 25.756-20.368 43.151-11.006 11.006-33.961 21.437-35.734 21.435-1.7726 0 .3508-25.36-.2016-43.692-1.6957-56.275-8.5782-87.237-23.191-72.624-3.9178 3.9178-.4058 6.9427 3.4244 29.279 6.9991 40.816 8.8732 83.206 1.0368 91.043-6.741 6.7411-39.925 11.528-43.582 5.6102z"/>
   <path d="m-1771.1 477.48c58.589-16.162 83.896-10.066 137.38-107.08 42.462-77.017 28.284-246.48 28.284-246.48s91.961 35.318 36.366 224.25c-21.859 74.284-64.65 119.2-129.3 133.34" fill="#803300"/>
   <g transform="matrix(-1 0 0 1 -882.97 -1455.5)" stroke="#000" stroke-linecap="round" stroke-width="21.969" fill="none">
    <path d="m860.01 1538.7c-107.12-.8047-203.8 53.698-189.33 182.92 18.912 168.88 79.186 217.41 190.58 222.75"/>
    <path d="m845.22 1935.7c-17.95-64.083 4.2857-125.97 4.2857-125.97"/>
    <path d="m776.81 1924.7c-8.1274-30.649-14.559-42.147-9.3366-77.328"/>
    <path d="m903.86 1933.2c10.617-24.618 18.232-43.618 16.581-82.869"/>
    <path d="m850.74 1538.5c107.12-.8047 203.8 53.698 189.33 182.92-18.912 168.88-79.186 217.41-190.58 222.75"/>
   </g>
  </g>
  <g stroke="#000">
   <path d="m-1451.8 1446.5c3.0078-.2314 4.8587.2313 8.5607-.2314" stroke-linecap="round" stroke-width="5.0318" fill="none"/>
   <path d="m-1482.9 1017.8c24.822 27.691 47.182 25.973 70.137 0" stroke-width="5.0389" fill="none"/>
   <path stroke-linejoin="round" style="color-rendering:auto;color:#000000;isolation:auto;mix-blend-mode:normal;shape-rendering:auto;solid-color:#000000;image-rendering:auto" d="m-1447.8 1038c12.072-.6512 16.45-4.6 22.069-8.0165l-3.2066 27.956h-18.863zm-22.069-8.136c6.8342 4.2786 13.809 8.1345 22.069 8.136l.00010 19.939h-18.863z" fill-rule="evenodd" stroke-linecap="round" stroke-width="5.0389" fill="#fff"/>
  </g>
  <path d="m-1750 1175.4c-19.773 4.9993-25.119 21.974-31.947 41.962 4.2325 2.246.2131.5209 4.0905-.023l2.7764-4.4466c4.1565-4.2456 14.833-29.159 25.08-37.492z" fill-rule="evenodd" fill="#803300"/>
  <ellipse rx="10.089" transform="scale(-1,1)" ry="10.458" cy="966.34" cx="1407.8"/>
  <ellipse rx="10.089" ry="10.458" cy="966.27" cx="-1487.5"/>
 </g>
</svg>
