<?xml version="1.0" encoding="UTF-8"?>
<svg id="Layer_1" data-name="Layer 1" xmlns="http://www.w3.org/2000/svg" viewBox="0 0 34 81.105">
  <path d="m12.551,47.121c.047-2.785.363-4.984.949-6.599.585-1.614,1.781-3.405,3.586-5.371l4.605-4.738c1.969-2.222,2.953-4.607,2.953-7.157,0-2.456-.645-4.378-1.934-5.771-1.289-1.392-3.164-2.087-5.625-2.087-2.391,0-4.312.633-5.766,1.898-1.454,1.266-2.18,2.965-2.18,5.098H2.637c.047-3.797,1.4-6.861,4.061-9.193,2.66-2.332,6.123-3.498,10.389-3.498,4.43,0,7.88,1.188,10.354,3.563,2.473,2.375,3.709,5.634,3.709,9.775,0,4.095-1.898,8.132-5.695,12.11l-3.832,3.791c-1.711,1.896-2.566,4.622-2.566,8.179h-6.504Zm-.281,11.168c0-1.064.322-1.958.967-2.68.645-.722,1.6-1.083,2.865-1.083s2.227.361,2.883,1.083c.656.722.984,1.615.984,2.68s-.329,1.946-.984,2.644c-.656.697-1.617,1.047-2.883,1.047s-2.221-.35-2.865-1.047c-.645-.698-.967-1.58-.967-2.644Z"/>
</svg>