<?xml version="1.0" encoding="UTF-8"?>
<svg id="Layer_1" data-name="Layer 1" xmlns="http://www.w3.org/2000/svg" viewBox="0 0 1243.758 1600.289">
  <path d="m907.306,216.73c0,.01,0,.03-.01.04-.15-.02.01-.04.01-.04Z" style="fill: #f7f7f7; stroke: #1c1c1c; stroke-miterlimit: 10;"/>
  <path d="m824.966,719.85c-5.58,3.2-95.63,47.27-98.52,48.27l-8.1-26.79c13.08-3.84,100.47-20.65,106.62-21.48Z" style="fill: #f7f7f7; stroke: #1c1c1c; stroke-miterlimit: 10;"/>
  <path d="m718.396,1344.51c87.23,24.81,148.16,3.89,164.84-.07-.35,1.25-30.44,29.56-31.39,30.43-11.52,1.82-22.94,4.25-34.44,6.19-20.22,3.5-16.26-.9-29.58-.18-1-.22-48.14-4.36-77.19-16.08,3.18-6.52,5.06-13.57,7.76-20.29Z" style="fill: #f7f7f7; stroke: #1c1c1c; stroke-miterlimit: 10;"/>
  <path d="m722.626,458.19c-36.07,19.64-29.68,17.46-38.47,20.99-1.59,2.38-24.33,28.58-24.8,28.96,1.48-3.47,17.29-29.18,31.95-54.49,5.35-42.38,22.69-61.04,38.8-74.34-11.97,46.79-12.57,29.93-8.27,57.55.19,2.6.83,5.16.73,7.79,5.03,1.27,42.3,7.26,47.28,9.14-3.95,0-43.34,4.39-47.22,4.4Z" style="fill: #f7f7f7; stroke: #1c1c1c; stroke-miterlimit: 10;"/>
  <path d="m600.976,711.77c.56-35.63,9.42-19.58-3.79-71.55-1.25-4.52-21.88-28.65-26.45-29.77-53.36-12.42-20.88-10.71-61.19-10.92,0,0-24.74,1.28-41.07,5.46-3.35.88-56.04,19.13-56.04,19.13.75-1.01,60.92-38.77,61.99-39.43,56.05-16.58,85.34-3.94,98.66-5.1,29.88-19.62,22.14-16.88,27.51-37.3,6.6-32.28,1.56-21.31,1.43-42.88-20.23-72.43-14.88-107.64.15-142.89,6.94-15.35.98-13.32,20.44-26.77,5.96-4.12,14.31-9.69,26.13-17.65,9.23-6.22,42.46-14.98,43.48-15.11-2.83,1.55-56.98,34.55-71.24,44.12-8.06,38.1-8.88,44.06-6.8,51.94,12.55,56.34-13.93,1.19,21.67,69.33,1.4,1.44,15.71,12.95,16.51,13.5-7.25,12.22-27.31,44.11-27.27,44.87.05,21.72-2.06,70.27,7.66,98.88,1.29,1.17,12.83,10.55,14.86,13.15,36.85-34.6,36.82-30.85,75.13-40.08,5.16-1.13,10.17-3.26,15.5-3.42-1.53,1.03-41.71,22.65-51.67,27.19-.24.41-34.33,42.61-34.5,43.12,0,0-1.56,5.44-19.82,59.97-.17.41,3.01,63.47,5.28,70.87,20.84,68.6,4.73,41.01,41.74,77.58,47.34-13.77,13.42-2.82,86.24-52.42-.82,1.51-65.76,69.67-66.63,70.67-40.52,61.16-32.67,39.56-48.97,103.04-7.48,23.06-8.68,42.84-6.31,62.35l-7.13.64c-1.85-16.25-4.57-31.01-8.83-41.08-1.73-4.21-19.3-42.75-19.3-42.76-.16-.08-32.97-23.02-33.12-23.12-17.88-11.93-59.31-34.6-61.64-37.69,2.5.77,96.83,42.03,99.14,43.05l5.82-28.08c7.71-67.53-44.57-131.44-50.49-132.81-114.88-31.13-29.46-11.13-151.72-9.55l-.14-12.33c15.34-.24,37.01-2.35,58.18-9.29,53.71-4.63,26.95-6.46,75.2,4.51,44.81-11.95,44.71-33.62,51.4-51.37Z" style="fill: #f7f7f7; stroke: #1c1c1c; stroke-miterlimit: 10;"/>
  <path d="m509.976,192.47c37.76,26.53.62,104.93-21,145.59-1.67,3.98-3.53,7.89-5.66,11.63-.57-5.46,1.09-10.78,1.1-16.21.17-.59,2.6-36.57,2.58-40.63-5.93-1.42-70.93-7.29-74.57-9.16,0,0,7.18-.74,66.54-4.34,7-2.9,13.66-6.81,20.64-9.87,25.42-30.17,17.4-49.22,10.37-77.01Z" style="fill: #f7f7f7; stroke: #1c1c1c; stroke-miterlimit: 10;"/>
  <path d="m442.826,428.34c-6.64,5.08-39.12,27.98-42.09,29.94,3.75-6.04,16-21.5,18.44-25.69,0,0,24.67-13.65,32.61-18.29.52-.06,38.11,3.31,39.11,3.53,14.7.96,4,2.55,19.97-8.64,32.95-25.99,28.65-23.58,31.88-25.11-.53.84-24.16,38.48-24.76,39.27.9,1.18,32,52.19,32,52.19.08.22.23.68.31.91-17.33-19.64-25.41-28.84-58.69-43.79-2.19-.63-46.4-4.67-48.78-4.32Z" style="fill: #f7f7f7; stroke: #1c1c1c; stroke-miterlimit: 10;"/>
  <path d="m1079.136,698.08c-6.71,1.35-47.84,28.46-48.84,29.29-57.51,46.34-54.11,41.75-67.22,44.12-1,.21-25.09,5.26-26.32,5.01-1-.19-28.24-4.86-29.94-4.71-1.27,5.81-4.81,10.71-7.04,16.14-12.27,33.65-8.34-3.72-10.21,69.11,17.15-7.4,6.34-5.25,18.18-6.03,60.64,5.52,33.62,2.35,48.47,5.58,48.46,11.34,23.01,12.16,76.04,11.5,1.61-1.63,62.1-59.76,62.96-61.41,3.2-.05,6.21-1.34,9.35-1.83,35.79-7.97,25.47-2.83,57.43-22.84,4.84-2.52,16.04-15.46,16.74-16.46,10.05-10.18,4.48-3.35,14.82-50.46-5.85-21.59-8.78-30.32-8.78-30.32-.15-.18-11.14-11.82-11.88-12.56-1.38,4.53-21.98,14.47-25.06,15.87-2.55,1.07.38,1.14-68.7,10Zm-95.43,697.26c73.78-23.56,47-10.86,81.69-38.2,63.64-53.55,65.26-79.42,91.38-139.32,16.35-46.46,17.16-45.74,18.89-66.29-2.37,4.05-4.96,7.95-7.38,11.97-20.84,31.26-52.44,38.8-55.35,51.18-7.75,41.86-1.24,22.6-27,72.55-4.3,6.04-31.94,36.97-32.94,37.68-1.52,2.04-55.16,19.94-56.95,20.13-10.11.06-20.22-.05-30.33.05-1.64,4.14-30.79,49.28-31.27,50.28,16.42-.02,32.84.03,49.26-.03ZM887.926,114.49c-2.08.42-4,1.34-5.96,2.07-5.46,1.67-10.95,3.21-16.37,4.95,1.57,7.78,6.34,27.5,6.45,28.11.88,1,25.3,26.52,27.47,29.33,1.76,8.24,3.32,16.54,5.05,24.79.22-.05,57.58-10.98,57.74-11.07-14.19-35.73-6-28.19-32.57-61.1-4.7-5.04,7.62-1.15-41.81-17.08Zm19.37,102.28c-2.79,16.65-7.76,38.7-7.62,41.62,3.18,7.17,7.29,4.54,16.95,32.42,2.91,7.25,5.24,16.41,6.82,18.84,0,.01,59.1,30.85,59.1,30.85,1.91,2.62,4.41,10.3,7.55,10.13,6.45,1.39,25.72,6.42,25.72,6.42.36-37.04,2.35-26.41-11.92-55.02-10.35-21.69-7.31-13.86-30.83-35.13,3.49-5.02,8.18-9.08,11.47-14.26,2.93,2.83,34.99,38.78,35.93,39.78,13.67,28.54,18.75,53.69,20.17,74.49,14.16,17.58,29.61,37.65,38.58,60.53,4.83,1.13,18.39,7.6,24.24,8.82,7.08-23.47,15.96-4.62-11.23-47.53-14.89-26.28-1.91,10.05-19.31-59.9-1.46-8.31-19.01-42.53-23.47-46.67-21.33-17.63-40.07-32.33-54.45-43.23-16.31-12.35-27.02-19.8-29.56-21.07-51.08-.5-57.52-.93-58.14-1.09.01-.01.01-.03.01-.04,0,0-.16.02-.01.04ZM125.096,462.47c8.39-1.27,34.68-4.39,55.83-4.89-1.01-5.31,7.52-50.72,8.58-52.33,8.72-14.56,18.37-28.54,27.06-43.12.28-1.1-4.64-33.2-4.75-35.12-14.02-.02-10.45-.35-13.39,1.52-49.3,41.55-23.2-10.37-64.62,99.15-3.02,11.57-5.9,23.17-8.71,34.79Zm295.69,1033.68c-112.23-18.51-144.41-99.29-145.91-100.63,0,0-87.12-21.55-87.13-21.55,12.92,24.15,11.05,41.66,90.95,94.3,12.75,8.27,26.48,18.91,31.36,19.49,22.46,4.4,58.49,13.76,61.66,12.84,1-.28,46.8-3.28,49.07-4.45Zm-107.11-893.83c.22-.3,11.7-30.35,11.83-30.7-3.03-2.48-22.56-19.7-24.04-21.63-14.16-45.76-9.66-39.77-9.73-47.91,5.09-18.81-7.71-20.91,22.04-87.64,2.47-2,35.02-29.83,35.02-29.83.27-1.1-.49-2.22-.61-3.33-7.99-47.51-9.99-38.49-10.44-50.39-.23-6.14-.05-17.82-.07-45.65-.05-.84,14.65-35.81,17.12-38.53,9.75-12.68,19.76-25.18,29.89-37.56,16.79-10.32,30.3-20.09,31.3-20.77-4.4-12.35-11.39-26.2-11.88-27.39-.61-59.58-.66-44.28,4.93-52.44-2.84,1.37-5.61,2.88-8.56,4-8.91,4.48-48.87,29.14-49.94,29.79-7.93,4.72-1.47-.66-9.22,10.59-44.38,69.11-29.49,53.81-47.46,61.18-30.49,10.73-21.78,4.22-57.74,40.23-2.45,2.38-4.72,4.96-7.44,7.03-4.37,15.51-8.51,36.97-11.41,43.36,16.13-19.96,20.56-34.24,65.89-56.6-1.85,2.77-25.62,22.91-31.59,28.08-4.22,2.81-19.11,46.52-19.4,47.52,20.89,29.17-8.21,15.68,47.11,25.23,0,0,29.68-15.66,31.61-16.81-10.75,27.21-1.06,14.02-35.47,47.79-14.53.14-29.06-.02-43.59.07-21.02,28.3-23.39,28.07-27.37,37.52-15.6,48.24-11.47,46.81-7.24,76.16,1.96,16,3.5,26.42,3.5,26.42l42.95,39.21-34.25-17.88c-2.47-1.94-13.79-18.87-15.29-21.11-9.31-14.45-9.36-8.23-9.54-21.34-1-.33-35.71-12.3-37.97-13.54-.84.38-31.3,12.05-36.1,13.69-9.4,33.72-19.68,9.91-19.02,117.01,4.86-1.36,18.36-5.48,19.55-5.5,1.55,3.96,4.55,7.06,6.74,10.65,1.89,2.59,102.3,30.98,103.98,33.25-.77-.13-88.06-13.16-88.06-13.16l-27.08,9.07c-12.75,26.71-11.75,25.31-11.89,25.61-.16,8.85.01,17.71-.08,26.56-2.31,2.14-5.77,2.53-7.76,5.08-11.03-36.51-14.71-33.51-8.75-70.36-40.51,28.47-21.02,72.96-19.22,90.4.25.19,30.28,16.77,32.56,17.75,1.99-.33,35.36-4.33,36.21-4.92,21.67-13.55,76.9-39.19,104.1-55.98,49.6-.45,37.49-2.76,78.59,11.15l3.16-67.3c-1.11-2.16-42.21-47.09-42.98-48.84,10.17,5.77,39.82,19.32,43.11,22.71Zm389.9,717.36c68.07-17.07,19.3-.36,112.62-51.17,1-.56,118-54.2,123.18-75.39,17.93-56.28,14.83-6.33,9.93-72.14-.16-.28-21.37-38.34-22.94-40.97,9.24,2.8,18.15,6.57,27.2,9.92,11.02,22.87,28.55,33.82,17.24,74.68-8.51,27.29-12.27,38.52-12.27,38.52.5,1.36,23.18,22.6,24.68,22.55,71.93.19,28.82,3.33,90.27-21.57,1-.44,72.08-52.02,112.35-111.91,6.94-13.61,40.11-75.44,41.88-108.39-7.04-26.35,10.57-30.73-26.13-83.78-2.06,2.88-3.86,5.95-5.7,8.98-1.7,4.28-31.73,27.17-33.68,29.02-13.37,49.03-13.54,27.05-5.2,83.34.35,2.86,1.18,5.66,1.23,8.56-30.43-24.91-3.78-33.22-50.23,7.99-2.14,1.87-39.18,13.21-40.18,13.41.03.93-11.27,56.35-11.42,57.27-1.62-2.85-1.42-20.39-2.48-24.27.1-3.58-.83-7.06-.64-10.65-.34-1.53-1.19-10.71-1.58-22.45-37.74-.72-91.9-9.98-128.9-16.64-15.16,9.27-44.2,26.07-45.99,28.52-1.01.87-97.46,82.06-107.4,97.1-60.95,22.09-81.98,10.72-97.12,9.22-1.28,2.48-4.58,13.99-8.28,26.06-6,2.91-4.6,1.23-9.4,15.29-16.85,44.33-14.32,46.21-13.92,71.57,13.59,29.5,12.69,30.25,33.16,39.19,2.93,1.28,6.29,2.72,10.19,4.44-7.89,4.68-16.11,8.76-24.1,13.27-3.85,41.83-5.27,41.39-3.66,44.21,14.52,31.81,6.62,22,17.42,30.22,35.06,21.9,31.79,21.11,34.31,21.37,0,0,76.94,12.61,78.16,12.74,74.35-16.56,20.75,7.76,99.83-40.41,8.22-4.55,16.48-18.01,39.73-44.32,5.78-11.84,17.12-36.87,17.12-36.87-.05-.15-9.08-44.62-9.08-44.62l-15.48-16.88c.77.08,1.57.19,2.28.61,37.39,20.27,22.88-4.27,41.41,44.22,1.39,3.66,2.08,7.62,4.2,10.97.33-.02,42.13-7.43,45.16-7.75,3.76-1.76,52.96-30.16,54.99-33.87.29-.53,23.9-32.13,24.24-32.54,0,0,2.57-12.9,5.07-22.94-12.33,4.74-60.83,31.32-84.94,28.3-4.92-1.27-46.75-10.09-63.73-19.76-7.17-2.97,4.37-3.79-63.8,27.15-8.34,3.79-17.88,8.05-28.79,12.84-19.78,8.97-101.88,43.25-107.87,45.74-.81.01-38.44,2.89-40.05,3.27-2.78-.25-5.46.69-8.22.54,1.51-1.22,3.55-1.23,5.33-1.79Zm-76.33-106.77c-15.07-2.02-37.55-3.2-42.99-4.71-1-.63-37.56-24.08-43.63-31.82-54.07-71.19-23.15-19.17-101.46-69.3-34.62-26.86-58.55-92.35-70.07-116.74-.32-.77-23.91-20.39-24.56-20.92-12.29-10.37-31.28-10.62-42.66-14.62-34.32,19.37-12.33-2.76-54.25,35.01.07-.25,9.26-22.82,11.67-27.7,1.39-4.32,25.9-16.78,27.64-18.26-93.01-34.65-76.97-25.66-121.66-31.63-11.03,5.03-22.57,9.01-33.83,13.58-24.33,10.12-73.22,8.68-85.39,8.73-2.8,5.04-5.65,10.06-8.58,15.03-1.19.99-1.47-.15-1.11,27.21,0,0,6.33,17.06,11.66,33.3.29,1,13.94,23.99,17.19,24.05,11.92,1.66,71.96,10.37,84.03,12.34.49-4.92-7.96-54.33-7.4-60.42.63-.54,12.86-4.29,16.37-4.46,21.64,122.55,78.35,130.96,93.27,144.06,4.7-1.47,8.45-.66,43.79-4.94,2.25-11.5,9.06-56.74,10.42-65.82,2.49.28,19.2,4.79,20.21,5.06.07,1.88-11.48,73.72-11.81,74.72,4.72,8.95,11.43,47.71,70.37,95.14,14.74,2.86,35.39,8.91,106.95-4.15-.06.23-.19.69-.25.91-12.28,9.35-23.74,19.71-35.95,29.13,4.35,3.71,23.31,17.69,28.29,21.7,6.14,1.59,40.22,12.69,42.28,13.55-3.12.37-6.15-.73-9.28-.56-.23-.06-25.31-2.72-27.8-2.66-27.17-10.63-27.69-32.22-99.01-31.56-1.68-.86-42.55-29.28-44.07-30.39-1.84-3.33-53.32-76.59-54.18-78.73-14.52-.07-29.05-.03-43.58-.02-.42,4.19-16.6,52.12-19.54,61.66-1-1-16.83-26.09-16.24-28.26.56-1.7,1.85-5.93,3.4-11.16,3.18-10.71,7.44-25.57,8.78-31.27,0,0-10.75-8.05-35.79-29.65-32.03-28.23-10.04-25.45-55.18-42.78-10.32-3.75-44.93,3.84-76.12-6.41.01,4.52,1.58,8.85,1.72,13.35.96,2.04,18.21,28.87,19.38,30.42,57.65,34.98,38.93,15.68,81.38,33.16,9.53,3.63,29.06,13.92,29.77,15.2l8.1,12.98c-5.69-1.57-36.21-13.29-38.09-12.98-51.91-4.97-44.88-3.52-49.08-6.03-39.41-19.98-47.82-37.26-58.61-45.23-1.54-2.59-7.95-16.08-10.12-18.49.32,1.59,7.12,37.62,7.1,38.62,16.81,39.92,39.66,76.45,78.01,96.45.06-3.46,5.23-21.82,6.59-30.51,4.42-.02,8.84-.03,13.25.01.15,50.19-1.78,24.57,8.79,61.34.94,2.76,1.42,5.76,2.93,8.29,41.65,33.26,44.84,41.75,112.95,56.78.62-.45,19.81-12.66,19.81-12.66.17-14.8-.03-29.61.1-44.4,1.72,3.56,19.8,62.05,19.88,62.18,8.34,6.69,42.45,30.87,46.62,35.37,5.01.01,22.24,4.34,43.72,8.12,7.65-1.37,15.09-3.72,22.65-5.56,0,0-31.29-34.61-31.3-34.61.01,0,11.58-17.64,11.58-17.64,4.21,3.64,17.74,20.17,26.89,30.12,1.68,2.22,23.41,11.81,34.05,17.34,46.79,21.99,136.83,5.4,158.85-43.14-1.24-2.54-2.69-5-3.74-7.62-.13-13.54-.99-75.52,6.89-87.1Zm6.8,114.41c-40.68,41.27-35.82,37.3-42.55,39.25-63.43,20.13-31.18,15.85-116.27,15.96-3.77-.07-38.94-11.62-41.53-12.53-1.35-.72-2.34.58-30.88,10.77-8.37,3.58-13.82.76-19.64,1.19-1.17-.28-24.59-2.21-25.69-2.15-18.95-4.24-7.9,5.16-31.41-14.06-3.1-2.75-15.85-12.58-16.25-13.18-1.84-2.19-11.82-22.46-14.56-26.23-62.79-.36-28.44.75-46.02-2.06-10.91-3.12-75.33-15.59-99.9-47.82-47.23-62.27-9.64-22.57-61.4-49.92-6.9-4.25-13.78-8.54-20.74-12.69,17.11,42.07,42.46,78.39,54.17,88.45,78.68,59.39,19.23,24.02,69.99,50.97,38.57,15.46,55.26,10.06,87.76,16,5.62,9.34,26.14,47.51,26.51,48.52.08.31,40.71,30.09,40.96,30.21,46.32,10.59,18.65,17.32,94.82,16.34,7.66-3.04,15.7-4.89,23.67-6.89,18.34-6.18,20.91-12.34,59.62-30.81,102.27-43.11,90.13-32.65,115.11-87.15,0,0-4.58-8.459-5.77-12.17Zm-37.73-1262.45c2.71-3.12,24.42-40.11,28.15-46.85,0,0,33.75-15.01,39.09-17.52h2.3c5.53,2.44,32.07,5.77,40.86,8.26l47.61,31.2c.09.02,43.34,3.28,46.13,3.38,1.53,1.85,32.48,29,34.35,30.61,4.18,4.29,19.7,20.53,25.01,25.49.56.12,23.14-2.25,25.19-1.86.2.1,47.62,15.84,47.83,15.91,1.01.38,40.15,39.54,43.88,53,1.23,3.62,12.03,37.68,13.04,42.52,115.14,70.29,93.94,103.16,113.7,165.77.64,1,19.81,31.33,22.96,35.48,9.45,45.79,7.61,11.54,8.85,56.87,0-.04.4.56,12.61,28.12,4.54,8.38,2.32,13.89,6.54,36.77-1.3,8.6-6.38,2.35,17.05,30.64,3.73,4.17,6.86,8.86,10.69,12.94,10.6,66.09,7.7,31.33,6.34,53.04-3.03,30.11-8.02,20.65,16.11,47.04.39,1,9.13,38.6,8.18,41.99-8.81,51.31-8.75,12.7,11.71,72.46.17,1.85.14,43.31.01,52.2l-10.5,35.98c.23.51,26.15,41.64,26.22,41.7,1.57,2.8,2.38,32,3.03,34.39-5.22,152.5-52.58,117.63-57.82,241.19-21.89,62.18-39.1,111.8-83.26,158.8-.14,1.01-4.08,29.7-9.47,40.74-44.8,72.37-5.64,18.1-68.58,66.92,0,0-32.52,8.57-44.88,11.26-3.54.72-54.93,40.61-69.71,49.66-37.21,22.9-20.87,19.35-96.69,41.95-20.63,2.92-66.47,9.06-68.82,9.13-4.72-1.19-44.59-1.64-48.13-3.79-58.87-26.28-36.85-17.74-85.88,13.4-5.75,3.27,3.18,2.81-29.87,9.75-21.95,5.5-47.3,18.25-126.17-21.57-71.21-18.39-32.04,9.08-106.69-38.35-44.68-23.02-130.59-67.75-154.29-104.77-75.01-122.23-155.47-153.88-156.71-262.92-.06-1.79-18.49-40.98-19.05-41.98-3-5.8-2.85-33.09-3.85-36.83.06-4.65-.43-9.26-1.13-13.85,5.96-33.06-1.98-17.44,14.91-46.9-1.31-2.01-2.58-4.09-3.58-6.25.01-2.05-13.06-65.25-7.28-84.63,7.55-30.88,5.72-9.12-8.32-32.48-.42-1.77-5.92-34.92-7.48-48.04,9.6-49.32,7.01-66.67,44.87-100.87-22.83-34.88-18.72-20.21-18.06-90.71,2.04-5.32,14-34.64,16.73-39.49,0,0,16.47-9.08,22.27-13.2.03-18.84-.1-37.68.05-56.5,29.35-62.32-1.71-34.61,53.44-89.18,3.39-67.62-1.77-35.71,20.55-104.51,1.16-3.51-2.75.99,39.03-40.74,2.28-2.71,13.25-36.27,13.58-37.27,7.08-22.22-2.1-2.16,34.84-55.59.61-.49,67-38.37,67.4-38.57.39-1.21,8.59-19.17,10.01-26.91.93-.87,32.81-37.92,34.99-40.51,5.1-5.23,45.14-17.79,50.98-21.28,84.77-54.39,88.6-56.01,88.6-56.01,1.73-.31,54.69-2.37,56.55-2.78,12.76-1.24,9.77-4.55,59.98,24.15Zm8.42,166.96c-9.58-30.88-10.04-28.96.07-70.55-15.57-7.39-31.64-13.74-47.2-21.17,1.79-7,1.88-14.27,3.38-21.31,4.68-.31,34.44,4.18,39.53,3.74-1.55-3.34-19.36-33.66-20.08-34.57-1-.66-44.93-26.53-49.54-25.4-85.54,22.11-57.47,18.17-85.99,29.1-22.15,12.12-24.96.3-24.22,58.07.35.7,10.72,18.35,11.42,19.83.18.01.55.05.73.07.23-.35,13-26.31,14.42-29.61,6.18-3.21,42.61-10.46,44.95-14.98.47-1,8.19-17.07,14.96-24.56,8.38,21.55,8.85,17.25,3.25,35.79-77.24,36.05-57.28,29.12-70.03,51.65,5.05,5.65,17.1,15.22,23.16,21.73,0,0-33.82,3.59-43.72,5.69-44.08,28.17-36.01,19.24-60.25,61.84-1.84,3.34-1.94-2.74-1.51,41.69,5.07,8.39,14.82,41.85,27.17,51.58,7.72-4.2,6.01-2.65,39.32-16.82-18.84,25.25-81.51,66.79-102.32,126.01-1.17,51.08,9.89,58.98,23.95,78.72l58.56-35.03c-.16.99-28.08,26.98-28.89,27.56-31.14,27.66-25.89,24.84-29.97,32.67-29.12,56.14-10.25,52.69-19.93,86.04.05,1,10.96,48.34,15.35,54.13,10.47,10.85,20.57,24.29,53.7,42.64.59.7,8.84,1.73,21.19,1.54l.14,12.33c-5.76.08-11.99.11-18.71.1-2.32-.28-38.67-10.47-42.59-15.2-6.72-10.04-26.29-23.5-33.58-40.83-.93-1.96,2.44-1.68-36.56-11.07-2.73-.56-5.53-2.25-8.32-.94-7.08,1.92-32.93,7.23-35.95,8.47-8.13,4.97-19.27,13.69-22.82,15.17-9.12,9.84-40.58,71.85-40.69,71.95,1.64-7.35,6.53-62.95,8-71.08-.01,0-52.16,31.54-52.17,31.54-49.51,9.75-45.46,9.91-71.59-3.59.64,1.14,1.41,2.2,2.27,3.17-36,28.45-31.62,25.91-32.87,30.4-15.76,63.2-8.63,16.1-8.27,55.83.02.06,1.29,15.85,1.74,18.58,2.11,4.55,4.46,8.99,7.06,13.28,2.3,4.07,7.48,15.8,10.29,18.08,8.75,5.15,16.03,12.45,18.29,12.22,54.22-.07,25.62,5.71,112.45-26.26,188.62,42.81,150.54,5.92,236.02,107.59,3,4.23,32.6,73.3,38.84,80,27.4,37.87,22.82,15.8,78.12,38.55.7.84,18.53,31.52,19.95,34.12.53.77,34.38,24.42,35.05,24.9,7.24,5.57,32.54,8.52,40.36,10.82,12.76-13.39,16.31-7,23.14-35.81-3.45-12.62-2.94-59.46-7.32-97.95l7.13-.64c2.53,20.8,9.11,41.3,16.49,65.17.84,1,13.27,13.57,15.21,16.4,6.24,6.96-2.32,2.76,33.35,9.99,50.78.49,40.21,9.02,110.75-50.26,89.44-70.96,55.87-74.48,138.99-108.3,10.45-4.29,38.06-16.45,39.42-16.47-6.66,4.81-69.65,48.34-69.89,49.15,17.13,2.52,57.49,15.09,80.91,16.12,2.81-.75,32.79-1.63,35.96-2.51,3.57.08,7.04-.78,10.61-.68,24.16-6.04-13.48,12.39,50.68-22.1,15.05-9.91,6.29-3.62,11.54-9.33.68-1.01,20.94-30.8,21.13-32.41.02-.13,6.69-36.45,6.69-36.58,0,0,44.12-35.71,44.13-35.71.24-.34,19.27-39.42,19.47-41-.05-3.72,2.89-28.03,3.65-32.56-2.21-9.35-10.2-50.47-10.71-54.25-1.17.09-11.39,26.14-11.8,27.25-43.22,32.23-70.81,29.7-106.16,48.55-34.1,39.02-26.64,39.22-102.97,38.84-.92-.22-17.89-1.75-20.34-1.6-3.72-.95-7.59-.06-11.29-.97-16.75.33,3.16-3.84-32.28,4.53-36.38,8.42-27.35,7.11-55.78,27.18-30.6,21.59-17.88,13.15-30.02,25.12-29.8,43.52-16.54-7.42-59.97,102.22-.76,1.68-1.79,3.28-1.9,5.18-2.61.03-5.21.02-7.81.02,5.47-14.38,21.85-134.78,106.63-174.31,1.75-.91,3.64-1.63,5.15-2.95-4.56-18.24-1.72-51.36,2.66-76.5,4.83-22.57,3.42-15.69.21-20.46-2.38-3.57-21.31-21.82-21.13-24.92-.46-2.41-6.54-28.28-6.56-28.36,0,0,8.45-19.14,22.35-67.33,5.05-16.46,5.29-9.37,4.56-49.34-41.73-128.6-51.95-45.06-51.29-151.06.39-3.63-17-38.07-24.58-55.19-6.34-80.43,1.26-85.73.43-146.97-50.35-57.39-16.99,1.26-45.89-74.64-.06-1.53-5.21-38.27-5.35-39.06,3.58-5.72,10.38-21.54,13.24-26.36.12,11.48-.02,22.97.07,34.45l15.68,53.87c16.31,16.72,13.95,32.17,50.69,42.19-.14,1-.28,1.99-.42,2.99-10.41,73.99-18.1,130.69,24.02,193.23,2.82-2.19,55.9-29.13,59.16-30.59.42.84,7.83,21.08,7.71,22.38-.37.02-74.4,29.64-74.86,29.76-1.29,6.38-3.89,31.44-3.89,31.44,4.16,7.35,39.41,53.95,59.36,105,1.81,97.39-46.21,108.64-12.07,153.36,2.19,2.83,7.25,11.62,8.97,11.39,46.88.15,34.95.38,41.41-1.9,51.25-19.18,70.64-50.74,97.19-62.31,79.88-32.97,87.69-27.7,110.65-27.88,5.12-5.52,6.34-11.8,18.88-28.33.94-1.23.48-31.01.46-32.02-7.86-21.91-10.4-32.28-20.28-41.01-.05.05-4.28,8.3-26.29,32.81,2.75,5.63,5.02,11.48,8.01,17-4.09,2.32-7.58,5.51-11.47,8.11-3.76-3.66-46.97-30.33-52.06-29.3-.14.03-36.88,8.05-38.39,8.23-2.63,1.19-33.52,17.76-34.59,18.4-1,.7-26.75,32.31-43.37,59.55-.58-.28-15.72-12.93-16.04-13.31,6.95-10.8,13.01-22.13,19.37-33.28,12.21-26.31,81.52-62.81,84.02-62.62,28.4,4.13,34.24.73,69.44,8.44,6.47-5.85-8.58,6.86,25.94-22.82,3.26-4.79,3.47-21.23,5.2-28.39-11.48-32.92-6.26-42.67-62.91-77.83-21.9-11-15.71-44.79-67.66-71.23,7.1,11.45,23.25,52.93,25.12,57.53-.25,1.55-4.87,32.34-4.71,34.02,1,.49,70.67,34.78,70.74,36.12-2.86-.57-5.69-1.3-8.62-1.23-2.56-.69-5.22-.2-7.77-.76-88.44-7.33-65.18-7.26-127.49-22.38-2.8-.68-5.51-1.72-8.38-2.07.17-.09,52.39-8.54,58.47-10.17.3-39.49-10.17-59.23-24.48-95.77-3.41-1.97-46.85-32.34-50-34.12-18.6-.14-37.2.07-55.79-.1,5.85-3,20.81-6.18,28.02-9.73.29-25.41.01-24.74-.65-25.93-1.62-4.55-14.54-35.98-14.83-36.55-2.14-4.4-26.9-22.54-27.9-23.18.22-1.16,3.79-12.51,4.5-14.37,0,0,27.66,13.5,27.67,13.5.03-37.31,5.64-23.96-24.51-78.29-2.84-1.54-62.42-24.97-63.42-25.27,1.53-.82,46.63-4.67,48.41-4.62-3.41-18.95-26.92-51.02-27.79-52.02-1.52-1.93-43.29-18.67-78.08-17.61-27.92-27.86-9.25-19.97-44.45-37.56-3.72-1.94-7.63-3.54-11.06-5.98-9.66.67-19.35,2.48-29.04,3.17-1.9.56-3.93.05-5.82.49-36.28,42.28-31.72,41.26-31.28,66.02,2.75,2.45,14.66,16.5,15.09,17.27,8,.08,15.99,0,23.99.03-36.99,59.86-31.9,82.95-31.57,109.63,2.54,6.89,4.94,13.85,8.04,20.52,12.77-5.35,64.69-25.38,67.03-26.28l-65.88,59.02c-3.66,4.41-22.93,45.37-24.73,47.13-1.49-48.18-8.96-47.78-39.8-100.98,1.541.74,11.411,5.89,31.681,17.38Zm-73.08,1257.96c73.93-16.39,68.36-19.42,95.46-38.45.56-5.72,2.32-6.91,8.71-30.28-1.67-5.43-3.46-10.85-5.42-16.18-3.62,3.35-12.63,12.89-17.29,16.51-.38.07-59.27,19.85-60.47,20.34-43.77,18.13-29,9.57-58.08,36.79-.36,18.42-1.85,27,13.54,45.66,39.48,14.19,33.58,11.85,88.02,11.37,5.61-2.1,29.29-17.55,32.38-18.27-2.92,3.14-6.78,5.23-10.21,7.77-32.75,24.7-9.91,17.19-90.6,32.51-4.54,2.03-73.96-23.68-79.84-26.71-39.36-.49-43.31,2.35-87.87-8.15,6.73,5.4,32.67,19.99,41.49,25.71,1,.08,30.08,2.31,31.47,2.21,3.37.85,6.87.13,10.23.97,27.23,2.79.1-5.8,53.95,15.65,5.35,2.15,11.01,3.61,16.11,6.37,2.25,1.14,4.89.1,7.28.75,41.74,4.42,34.32,9.31,84.89-10.28,14.16-14.04,28.25-28.16,42.32-42.31,1.82,1.17,18.76,10.51,19.77,11.06,36.2,20.06,22.76,14.64,34.16,15.62,79.21,0,36.14,3.77,153.4-17.35,12.99-3.46,42.64-26.39,58.33-34.8,76.39-61.18,23.79-28.73,101.62-59.49,18.79-7.76,48.5-40.17,59.29-56.51-54.33,32.83-38.43,22.78-85.28,39.09-19.98,5.61-56.79,5.02-59.14,8.84-20,28.37-57.43,59.16-77.39,70.35-20.71,11.93-110.85,29.47-118.4,28.41,6.75-4.27,87.91-20.28,118.91-49.33,4.07-5.34,41.83-43.23,45.8-47.55-2.16,1.38-61.19,31.08-63,31.97-3.48.59-7.1-.3-10.55.66-44-2.4,4.06,13.6-130.33-15.69-10.38-2.41-20.87-4.41-31.12-7.32-.65,1-7.73,12.19-8.06,13.55-3.31,26.86-4.14,28.61-2.65,31.34,11.5,27.21,10.58,24.52,14.41,26.81,1.91,1.25,26.41,17.36,27.9,19.47-53.27-22.53-37.17-7.33-56.63-24.85-2.78-2.5-6.28-5.67-10.82-9.71-.96-4.34-1.36-8.78-1.82-13.18-3.88.92-41.98,4.6-45.98,4.31-1.35.29-53.59,4.35-55.36,4.16,2.12-1.12,4.61-1.11,6.87-1.84Z" style="fill: #f7f7f7; stroke: #1c1c1c; stroke-miterlimit: 10;"/>
</svg>