<?xml version="1.0" encoding="UTF-8"?>
<svg id="Layer_1" data-name="Layer 1" xmlns="http://www.w3.org/2000/svg" viewBox="0 0 244.983 88.378">
  <path d="m60.888,60.375c0,.244-.067.464-.202.659-.134.196-.378.354-.732.476-.354.123-.824.22-1.41.293s-1.331.11-2.234.11c-.879,0-1.611-.037-2.197-.11s-1.05-.17-1.392-.293c-.342-.122-.586-.28-.732-.476-.146-.195-.22-.415-.22-.659V21.813h-.073l-13.733,38.525c-.098.317-.256.58-.476.788s-.519.372-.897.494-.86.201-1.446.238c-.586.036-1.294.055-2.124.055s-1.538-.031-2.124-.092-1.068-.158-1.446-.293c-.379-.134-.678-.298-.897-.494-.22-.195-.366-.427-.439-.696L14.855,21.813h-.073v38.562c0,.244-.067.464-.201.659-.135.196-.385.354-.751.476-.366.123-.836.22-1.41.293s-1.312.11-2.215.11c-.879,0-1.611-.037-2.197-.11s-1.056-.17-1.41-.293c-.354-.122-.599-.28-.732-.476-.135-.195-.202-.415-.202-.659V18.151c0-1.245.33-2.197.989-2.856s1.538-.989,2.637-.989h6.299c1.123,0,2.087.092,2.893.274.806.184,1.501.489,2.087.916s1.074.988,1.465,1.685c.39.695.732,1.556,1.025,2.582l10.254,28.235h.146l10.62-28.162c.317-1.025.665-1.892,1.044-2.6.378-.708.817-1.282,1.318-1.721.5-.439,1.092-.75,1.776-.934.683-.183,1.477-.274,2.38-.274h6.482c.659,0,1.227.086,1.703.256.477.171.867.421,1.172.75.305.33.537.732.696,1.209.158.476.238,1.02.238,1.629v42.224Z" style="fill: #f7f7f7; stroke: #1c1c1c; stroke-miterlimit: 10;"/>
  <path d="m99.304,57.922c0,.708-.031,1.3-.092,1.776-.061.477-.152.861-.274,1.154-.123.293-.274.507-.458.641-.183.134-.384.201-.604.201h-23.804c-.806,0-1.483-.238-2.033-.714-.549-.477-.824-1.251-.824-2.326V17.346c0-1.074.275-1.849.824-2.326.55-.476,1.227-.714,2.033-.714h23.657c.22,0,.415.061.586.183.17.123.317.336.439.641.122.305.213.695.275,1.172.061.476.091,1.08.091,1.812,0,.684-.031,1.264-.091,1.739-.062.477-.153.861-.275,1.154-.123.293-.269.507-.439.641-.171.134-.366.201-.586.201h-16.919v11.572h14.319c.22,0,.421.067.604.201.183.135.335.342.458.623.122.281.213.659.275,1.135.061.477.091,1.057.091,1.74,0,.708-.031,1.294-.091,1.758-.062.464-.153.836-.275,1.117-.123.281-.275.482-.458.604-.184.123-.385.183-.604.183h-14.319v13.367h17.065c.22,0,.421.067.604.201.184.135.335.348.458.641.122.293.213.677.274,1.154.061.476.092,1.068.092,1.776Z" style="fill: #f7f7f7; stroke: #1c1c1c; stroke-miterlimit: 10;"/>
  <path d="m163.024,60.375c0,.244-.067.464-.202.659-.134.196-.378.354-.732.476-.354.123-.824.22-1.41.293s-1.331.11-2.234.11c-.879,0-1.611-.037-2.197-.11s-1.05-.17-1.392-.293c-.342-.122-.586-.28-.732-.476-.146-.195-.22-.415-.22-.659V21.813h-.073l-13.733,38.525c-.098.317-.256.58-.476.788s-.519.372-.897.494-.86.201-1.446.238c-.586.036-1.294.055-2.124.055s-1.538-.031-2.124-.092-1.068-.158-1.446-.293c-.379-.134-.678-.298-.897-.494-.22-.195-.366-.427-.439-.696l-13.257-38.525h-.073v38.562c0,.244-.067.464-.201.659-.135.196-.385.354-.751.476-.366.123-.836.22-1.41.293s-1.312.11-2.215.11c-.879,0-1.611-.037-2.197-.11s-1.056-.17-1.41-.293c-.354-.122-.599-.28-.732-.476-.135-.195-.202-.415-.202-.659V18.151c0-1.245.33-2.197.989-2.856s1.538-.989,2.637-.989h6.299c1.123,0,2.087.092,2.893.274.806.184,1.501.489,2.087.916s1.074.988,1.465,1.685c.39.695.732,1.556,1.025,2.582l10.254,28.235h.146l10.62-28.162c.317-1.025.665-1.892,1.044-2.6.378-.708.817-1.282,1.318-1.721.5-.439,1.092-.75,1.776-.934.683-.183,1.477-.274,2.38-.274h6.482c.659,0,1.227.086,1.703.256.477.171.867.421,1.172.75.305.33.537.732.696,1.209.158.476.238,1.02.238,1.629v42.224Z" style="fill: #f7f7f7; stroke: #1c1c1c; stroke-miterlimit: 10;"/>
  <path d="m203.637,40.637c0,.684-.037,1.258-.109,1.721-.074.464-.184.836-.33,1.117s-.317.482-.513.604c-.195.123-.403.183-.622.183h-11.39v12.415c0,.244-.061.458-.183.641-.123.183-.33.342-.623.476-.293.135-.684.238-1.172.312-.489.073-1.099.11-1.831.11s-1.343-.037-1.831-.11c-.489-.073-.879-.177-1.172-.312-.293-.134-.507-.293-.641-.476-.135-.184-.202-.397-.202-.641v-12.415h-11.353c-.22,0-.421-.061-.604-.183-.184-.122-.348-.323-.495-.604s-.263-.653-.348-1.117c-.085-.463-.128-1.038-.128-1.721,0-.659.037-1.227.11-1.703.073-.477.177-.854.311-1.136.134-.28.287-.481.458-.604.17-.122.366-.183.586-.183h11.462v-12.378c0-.244.067-.47.202-.678.134-.207.348-.378.641-.513.293-.134.683-.238,1.172-.311.488-.073,1.099-.11,1.831-.11s1.342.037,1.831.11c.488.073.879.177,1.172.311.293.135.5.306.623.513.122.208.183.434.183.678v12.378h11.499c.195,0,.385.061.567.183.184.123.342.324.477.604.134.281.237.659.312,1.136.072.476.109,1.043.109,1.703Z" style="fill: #f7f7f7; stroke: #1c1c1c; stroke-miterlimit: 10;"/>
  <path d="m241.907,40.637c0,.684-.037,1.258-.109,1.721-.074.464-.184.836-.33,1.117s-.317.482-.513.604c-.195.123-.403.183-.622.183h-11.39v12.415c0,.244-.062.458-.183.641-.123.183-.33.342-.623.476-.293.135-.684.238-1.172.312s-1.099.11-1.831.11-1.343-.037-1.831-.11-.879-.177-1.172-.312c-.293-.134-.507-.293-.641-.476-.135-.184-.201-.397-.201-.641v-12.415h-11.354c-.219,0-.421-.061-.604-.183-.184-.122-.348-.323-.494-.604s-.263-.653-.349-1.117c-.086-.463-.128-1.038-.128-1.721,0-.659.037-1.227.109-1.703.074-.477.178-.854.312-1.136.134-.28.287-.481.458-.604.171-.122.366-.183.586-.183h11.463v-12.378c0-.244.066-.47.201-.678.134-.207.348-.378.641-.513.293-.134.684-.238,1.172-.311s1.099-.11,1.831-.11,1.343.037,1.831.11.879.177,1.172.311c.293.135.5.306.623.513.121.208.183.434.183.678v12.378h11.499c.195,0,.385.061.567.183.184.123.342.324.477.604.134.281.237.659.312,1.136.072.476.109,1.043.109,1.703Z" style="fill: #f7f7f7; stroke: #1c1c1c; stroke-miterlimit: 10;"/>
</svg>