<?xml version="1.0" encoding="UTF-8"?><svg id="Layer_1" xmlns="http://www.w3.org/2000/svg" xmlns:xlink="http://www.w3.org/1999/xlink" viewBox="0 0 641 896.348"><defs><radialGradient id="radial-gradient" cx="320.5" cy="450.732" fx="320.5" fy="450.732" r="388.066" gradientUnits="userSpaceOnUse"><stop offset="0" stop-color="#ed1c24"/><stop offset="1" stop-color="#962f34"/></radialGradient><linearGradient id="linear-gradient" x1="565.062" y1="873.739" x2="89.188" y2="49.501" gradientUnits="userSpaceOnUse"><stop offset="0" stop-color="#d72229"/><stop offset="1" stop-color="#7b3236"/></linearGradient></defs><rect x=".5" y="5.732" width="640" height="890" style="fill:#f0e9d6; stroke:url(#radial-gradient); stroke-miterlimit:10;"/><rect x="42.906" y="47.848" width="556" height="806" rx="33.167" ry="33.167" style="fill:url(#linear-gradient); stroke:#232323; stroke-miterlimit:10; stroke-width:2px;"/><path d="M103.955,13.788c-11.869,.354-23.728,1-35.595,1.394-5.511,.798-11.077,.396-16.676,.333-1.992-.022-3.365-.986-4.125-2.306-1.976,.03-3.953,.064-5.932,.076-9.569,.057-19.176-1.296-28.738-.63-1.516,.106-3.256,.185-4.981,.387,1.951,9.333,1.03,19.043,1.168,28.674,.1,6.941-.348,14.405,.953,21.235,1.036,5.439,2.648,11.023,.698,16.449-.214,.596-.547,1.153-.961,1.646-.158,6.929-.642,13.843-1.063,20.783,.041,.359,.082,.718,.123,1.077,.179,1.209,.298,2.435,.388,3.665,.18,1.901,.318,3.806,.359,5.722,.043,2.027-.864,3.406-2.148,4.152-.376,7.051-.779,14.101-1.059,21.156,.995,3.632,1.366,7.348,1.429,11.136,.017,.993-.232,1.839-.651,2.539,11.206,3.849,23.228,5.942,35.74,5.942,60.739,0,109.978-49.239,109.978-109.978,0-12.918-2.235-25.311-6.327-36.825-14.219,.181-28.357,2.949-42.58,3.373Z" style="fill:#f0e9d6; stroke:#232323; stroke-miterlimit:10; stroke-width:2px;"/><path d="M502.252,885.556c11.953-.382,23.959-.192,35.917-.092,28.18,.234,56.252,1.923,84.404,3.051,2.106,.084,5.861,.982,7.877,.247,1.892-.69,2.103-1.977,2.412-3.909,.927-5.788,.812-11.919,.442-17.738-.858-13.481-1.498-26.834-1.422-40.353,.081-14.372,.522-28.738,.653-43.109,.064-6.984-.207-13.935-.363-20.914-.093-4.12-.372-9.085,.481-13.44-10.745-3.505-22.215-5.407-34.13-5.407-60.739,0-109.978,49.239-109.978,109.978,0,11.539,1.781,22.661,5.077,33.112,2.721-.937,5.83-1.336,8.632-1.425Z" style="fill:#f0e9d6; stroke:#232323; stroke-miterlimit:10; stroke-width:2px;"/><circle cx="320.906" cy="450.848" r="174.272" style="fill:#f0e9d6; stroke:#232323; stroke-miterlimit:10; stroke-width:2px;"/><rect x=".906" y="5.848" width="640" height="41" style="fill:#f0e9d6;"/><rect x=".406" y="855.348" width="640" height="41" style="fill:#f0e9d6;"/><rect x="599.906" y="5.848" width="41" height="890" style="fill:#f0e9d6;"/><rect x=".906" y="5.848" width="41" height="890" style="fill:#f0e9d6;"/><path d="M572.549,793.505h2.666c-.092,2.871-.285,5.412-.581,7.622-.297,2.211-.673,4.159-1.128,5.845-.912,3.281-3.236,8.887-6.973,16.816-3.737,7.885-5.605,14.469-5.605,19.756,0,3.008,.398,5.685,1.196,8.032,.797,2.347,1.914,4.317,3.35,5.913,1.436,1.595,3.145,2.813,5.127,3.657,1.982,.843,4.136,1.265,6.46,1.265,1.959,0,3.736-.263,5.332-.786,1.595-.524,2.939-1.208,4.033-2.051,1.094-.844,1.937-1.801,2.529-2.871,.592-1.071,.889-2.153,.889-3.247,0-.593-.217-1.413-.649-2.461-.434-1.049-.923-2.143-1.47-3.281-.547-1.14-1.037-2.245-1.47-3.315-.434-1.071-.649-1.926-.649-2.563,0-1.55,.547-2.86,1.641-3.931,1.094-1.071,2.393-1.606,3.896-1.606,.957,0,1.88,.25,2.769,.752,.889,.501,1.697,1.207,2.427,2.119,.729,.911,1.31,2.005,1.743,3.281,.433,1.275,.649,2.688,.649,4.238,0,2.598-.581,5.081-1.743,7.451-1.162,2.369-2.814,4.478-4.956,6.323-2.143,1.846-4.751,3.315-7.827,4.409s-6.528,1.641-10.356,1.641-7.304-.57-10.425-1.709c-3.122-1.14-5.788-2.7-7.998-4.683-2.211-1.982-3.92-4.284-5.127-6.904-1.208-2.621-1.812-5.412-1.812-8.374,0-3.737,.66-7.201,1.982-10.391,.957-2.232,2.29-4.603,3.999-7.109,1.709-2.506,3.794-5.172,6.255-7.998,4.922-5.742,8.043-10.117,9.365-13.125,1.367-3.053,2.188-7.291,2.461-12.715Zm.752-23.857c1.048,0,2.027,.205,2.939,.615,.911,.41,1.709,.957,2.393,1.641s1.23,1.481,1.641,2.393c.41,.912,.615,1.892,.615,2.939s-.205,2.028-.615,2.939c-.41,.912-.957,1.709-1.641,2.393s-1.481,1.23-2.393,1.641c-.912,.41-1.892,.615-2.939,.615s-2.028-.205-2.939-.615c-.912-.41-1.709-.957-2.393-1.641s-1.23-1.48-1.641-2.393c-.41-.911-.615-1.891-.615-2.939s.205-2.027,.615-2.939c.41-.911,.957-1.709,1.641-2.393s1.48-1.23,2.393-1.641c.911-.41,1.891-.615,2.939-.615Z" style="fill:#7b3236; stroke:#232323; stroke-miterlimit:10; stroke-width:1.5px;"/><path d="M78.687,99.461h-2.803c.364-5.833,1.07-10.572,2.119-14.219,.547-1.914,1.412-4.17,2.598-6.768,1.185-2.598,2.643-5.582,4.375-8.955,1.321-2.598,2.438-4.876,3.35-6.836,.911-1.959,1.572-3.623,1.982-4.99,.82-2.779,1.23-5.582,1.23-8.408,0-2.871-.422-5.479-1.265-7.827-.844-2.347-1.982-4.341-3.418-5.981s-3.122-2.905-5.059-3.794c-1.938-.889-3.999-1.333-6.187-1.333-2.006,0-3.794,.263-5.366,.786-1.572,.524-2.905,1.208-3.999,2.051-1.094,.844-1.938,1.789-2.529,2.837-.593,1.049-.889,2.119-.889,3.213,0,.775,.216,1.721,.649,2.837,.433,1.117,.899,2.245,1.401,3.384,.501,1.14,.968,2.222,1.401,3.247,.433,1.025,.649,1.812,.649,2.358,0,1.641-.524,3.02-1.572,4.136-1.049,1.117-2.324,1.675-3.828,1.675-.957,0-1.892-.239-2.803-.718-.912-.479-1.721-1.185-2.427-2.119-.707-.934-1.276-2.062-1.709-3.384-.434-1.321-.649-2.825-.649-4.512,0-2.506,.569-4.944,1.709-7.314,1.139-2.369,2.769-4.466,4.888-6.289,2.119-1.822,4.705-3.281,7.759-4.375,3.053-1.094,6.471-1.641,10.254-1.641,4.01,0,7.599,.57,10.767,1.709,3.167,1.14,5.855,2.678,8.066,4.614,2.21,1.938,3.896,4.216,5.059,6.836,1.162,2.621,1.743,5.412,1.743,8.374,0,3.373-.752,6.791-2.256,10.254-.775,1.732-1.846,3.635-3.213,5.708-1.367,2.074-3.1,4.296-5.195,6.665-6.562,7.383-10.619,12.692-12.168,15.928-1.413,3.054-2.302,7.338-2.666,12.852Zm-.957,8.477c2.188,0,4.01,.729,5.469,2.188,1.458,1.459,2.188,3.281,2.188,5.469,0,1.049-.205,2.028-.615,2.939-.41,.912-.957,1.709-1.641,2.393s-1.493,1.23-2.427,1.641c-.935,.41-1.926,.615-2.974,.615s-2.028-.205-2.939-.615c-.912-.41-1.709-.957-2.393-1.641s-1.23-1.48-1.641-2.393c-.41-.911-.615-1.891-.615-2.939,0-1.094,.205-2.107,.615-3.042,.41-.934,.957-1.743,1.641-2.427s1.48-1.219,2.393-1.606c.911-.387,1.891-.581,2.939-.581Z" style="fill:#7b3236; stroke:#232323; stroke-miterlimit:10; stroke-width:1.5px;"/><path d="M320.825,513.418h-6.606c.858-13.749,2.522-24.92,4.995-33.516,1.289-4.512,3.329-9.829,6.124-15.952,2.792-6.123,6.229-13.157,10.312-21.108,3.114-6.123,5.745-11.493,7.896-16.113,2.147-4.617,3.706-8.54,4.673-11.763,1.934-6.551,2.9-13.157,2.9-19.819,0-6.768-.994-12.916-2.98-18.449-1.989-5.532-4.674-10.232-8.057-14.1-3.385-3.867-7.359-6.848-11.924-8.943-4.567-2.094-9.427-3.142-14.583-3.142-4.729,0-8.942,.619-12.649,1.853-3.705,1.236-6.848,2.848-9.426,4.834-2.578,1.989-4.567,4.218-5.962,6.688-1.397,2.473-2.095,4.995-2.095,7.573,0,1.828,.509,4.056,1.531,6.687,1.02,2.634,2.119,5.293,3.303,7.977,1.181,2.687,2.281,5.236,3.303,7.654,1.021,2.416,1.531,4.27,1.531,5.559,0,3.867-1.236,7.117-3.706,9.748-2.473,2.634-5.479,3.948-9.023,3.948-2.256,0-4.459-.563-6.606-1.692-2.15-1.127-4.056-2.792-5.721-4.994-1.666-2.201-3.008-4.859-4.027-7.977-1.022-3.114-1.531-6.659-1.531-10.635,0-5.906,1.342-11.654,4.028-17.241,2.684-5.584,6.526-10.526,11.521-14.824,4.996-4.295,11.091-7.734,18.289-10.312,7.195-2.578,15.252-3.867,24.17-3.867,9.452,0,17.912,1.345,25.379,4.028,7.465,2.687,13.802,6.312,19.014,10.877,5.209,4.566,9.184,9.937,11.924,16.113,2.738,6.178,4.108,12.757,4.108,19.738,0,7.951-1.772,16.008-5.317,24.17-1.828,4.084-4.351,8.567-7.573,13.455-3.223,4.889-7.307,10.126-12.246,15.71-15.469,17.402-25.031,29.918-28.682,37.544-3.331,7.198-5.426,17.297-6.285,30.293Zm-2.256,19.98c5.157,0,9.452,1.72,12.891,5.156,3.437,3.439,5.156,7.734,5.156,12.891,0,2.473-.483,4.781-1.45,6.929-.967,2.15-2.256,4.028-3.867,5.64s-3.52,2.9-5.72,3.867c-2.203,.967-4.541,1.45-7.01,1.45s-4.781-.483-6.929-1.45c-2.15-.967-4.028-2.256-5.64-3.867s-2.9-3.489-3.867-5.64c-.967-2.147-1.45-4.456-1.45-6.929,0-2.578,.483-4.968,1.45-7.17,.967-2.201,2.256-4.109,3.867-5.721s3.489-2.873,5.64-3.787c2.147-.911,4.456-1.369,6.929-1.369Z" style="fill:#7b3236; stroke:#232323; stroke-miterlimit:10; stroke-width:2px;"/></svg>